STARTFONT 2.3
FONT -FontForge-Roboto Condensed-Book-R-Condensed---14-140-72-72-P-69-ISO10646-1
SIZE 14 72 72  4
FONTBOUNDINGBOX 25 20 -11 -4
COMMENT "Generated by fontforge, http://fontforge.sourceforge.net"
COMMENT "Copyright 2011 Google Inc. All Rights Reserved."
STARTPROPERTIES 42
FOUNDRY "FontForge"
FAMILY_NAME "Roboto Condensed"
WEIGHT_NAME "Book"
SLANT "R"
SETWIDTH_NAME "Condensed"
ADD_STYLE_NAME ""
PIXEL_SIZE 14
POINT_SIZE 140
RESOLUTION_X 72
RESOLUTION_Y 72
SPACING "P"
AVERAGE_WIDTH 69
CHARSET_REGISTRY "ISO10646"
CHARSET_ENCODING "1"
FONTNAME_REGISTRY ""
CHARSET_COLLECTIONS "ISO8859-2 ISO8859-5 ISO8859-7 ISO8859-9 ISO8859-4 ISO10646-1"
BITS_PER_PIXEL 4
FONT_NAME "RobotoCondensed-Regular"
FACE_NAME "Roboto Condensed"
COPYRIGHT "Copyright 2011 Google Inc. All Rights Reserved."
FONT_VERSION "2.137; 2017"
FONT_ASCENT 10
FONT_DESCENT 4
UNDERLINE_POSITION -1
UNDERLINE_THICKNESS 1
X_HEIGHT 7
CAP_HEIGHT 9
DEFAULT_CHAR 1
RAW_ASCENT 750
RAW_DESCENT 250
NORM_SPACE 3
RELATIVE_WEIGHT 40
RELATIVE_SETWIDTH 50
SUPERSCRIPT_X 0
SUPERSCRIPT_Y 6
SUPERSCRIPT_SIZE 9
SUBSCRIPT_X 0
SUBSCRIPT_Y 1
SUBSCRIPT_SIZE 9
FIGURE_WIDTH 7
AVG_LOWERCASE_WIDTH 68
AVG_UPPERCASE_WIDTH 80
ENDPROPERTIES
CHARS 1296
STARTCHAR uni0000
ENCODING 0
SWIDTH 0 0
DWIDTH 0 0
BBX 1 1 0 0
BITMAP
00
ENDCHAR
STARTCHAR uni0002
ENCODING 2
SWIDTH 0 0
DWIDTH 0 0
BBX 1 1 0 0
BITMAP
00
ENDCHAR
STARTCHAR uni000D
ENCODING 13
SWIDTH 229 0
DWIDTH 3 0
BBX 1 1 0 0
BITMAP
00
ENDCHAR
STARTCHAR space
ENCODING 32
SWIDTH 229 0
DWIDTH 3 0
BBX 1 1 0 0
BITMAP
00
ENDCHAR
STARTCHAR exclam
ENCODING 33
SWIDTH 245 0
DWIDTH 3 0
BBX 2 10 1 0
BITMAP
E5
D5
D5
D5
D4
D4
C4
20
41
C5
ENDCHAR
STARTCHAR quotedbl
ENCODING 34
SWIDTH 319 0
DWIDTH 4 0
BBX 4 4 0 7
BITMAP
1D3B
1D3B
1C3A
1B38
ENDCHAR
STARTCHAR numbersign
ENCODING 35
SWIDTH 547 0
DWIDTH 8 0
BBX 8 10 0 0
BITMAP
000A4590
000C1760
000D0A40
0AFFFFF4
00590E00
00863B00
2FFFFFD0
00D18600
00D0A400
02B0D100
ENDCHAR
STARTCHAR dollar
ENCODING 36
SWIDTH 493 0
DWIDTH 7 0
BBX 7 14 0 -2
BITMAP
00071000
000D1000
02CFC200
0AA2AB00
0D503F00
0B900300
04EB4000
0029F700
01005F10
3F101F20
0E828D00
04DFC300
000E0000
00040000
ENDCHAR
STARTCHAR percent
ENCODING 37
SWIDTH 632 0
DWIDTH 9 0
BBX 9 10 0 0
BITMAP
08E8000000
2C1D128000
490A3A4000
2C1D5A0000
09E8B30000
000498E800
000C4D1D20
00684A0A30
00A12D1D20
000008E800
ENDCHAR
STARTCHAR ampersand
ENCODING 38
SWIDTH 543 0
DWIDTH 8 0
BBX 8 10 0 0
BITMAP
01BEB100
07C2B700
09909700
05E6E200
00DF3000
09CE6190
2F25E6D0
4E009F80
1E617F80
04CEB6F3
ENDCHAR
STARTCHAR quotesingle
ENCODING 39
SWIDTH 174 0
DWIDTH 2 0
BBX 2 3 0 8
BITMAP
4B
4A
49
ENDCHAR
STARTCHAR parenleft
ENCODING 40
SWIDTH 313 0
DWIDTH 4 0
BBX 4 14 0 -3
BITMAP
001A
0097
02E0
0890
0C50
0F30
1F20
1F20
0F30
0D50
0890
02D0
0097
000A
ENDCHAR
STARTCHAR parenright
ENCODING 41
SWIDTH 318 0
DWIDTH 4 0
BBX 4 14 0 -3
BITMAP
7300
2D10
0980
04E0
00E3
00D6
00B7
00B7
00C6
00E3
03E0
0880
2C10
7300
ENDCHAR
STARTCHAR asterisk
ENCODING 42
SWIDTH 430 0
DWIDTH 6 0
BBX 6 6 0 4
BITMAP
007800
107801
ADBCDA
04EE40
08AB70
0A12B0
ENDCHAR
STARTCHAR plus
ENCODING 43
SWIDTH 496 0
DWIDTH 7 0
BBX 7 8 0 0
BITMAP
002E1000
002F1000
002F1000
6FFFFF50
135F4310
002F1000
002F1000
00150000
ENDCHAR
STARTCHAR comma
ENCODING 44
SWIDTH 196 0
DWIDTH 3 0
BBX 3 4 0 -2
BITMAP
1810
2F10
5D00
8500
ENDCHAR
STARTCHAR hyphen
ENCODING 45
SWIDTH 248 0
DWIDTH 3 0
BBX 4 1 0 4
BITMAP
AFF2
ENDCHAR
STARTCHAR period
ENCODING 46
SWIDTH 263 0
DWIDTH 4 0
BBX 2 2 1 0
BITMAP
52
D6
ENDCHAR
STARTCHAR slash
ENCODING 47
SWIDTH 370 0
DWIDTH 5 0
BBX 5 11 0 -1
BITMAP
000780
000C40
001E00
006900
00B400
01E000
05A000
0A5000
0E1000
5B0000
960000
ENDCHAR
STARTCHAR zero
ENCODING 48
SWIDTH 493 0
DWIDTH 7 0
BBX 7 10 0 0
BITMAP
03CEB100
0C92AA00
1F204E00
3F002F10
3F001F20
3F001F20
3F002F10
1F204E00
0B92AA00
02CFB200
ENDCHAR
STARTCHAR one
ENCODING 49
SWIDTH 493 0
DWIDTH 7 0
BBX 4 10 1 0
BITMAP
27C6
D9D6
00C6
00C6
00C6
00C6
00C6
00C6
00C6
00C6
ENDCHAR
STARTCHAR two
ENCODING 50
SWIDTH 493 0
DWIDTH 7 0
BBX 7 10 0 0
BITMAP
04CEB200
1E71AB00
4E004E00
01006D00
0000C700
0007D000
004E3000
01D60000
0BA00000
3FFFFF50
ENDCHAR
STARTCHAR three
ENCODING 51
SWIDTH 493 0
DWIDTH 7 0
BBX 6 10 0 0
BITMAP
04CEB1
1E61AA
2B005D
0001B9
00AFD1
0002BA
00004E
3B004E
1E61B9
04DEA1
ENDCHAR
STARTCHAR four
ENCODING 52
SWIDTH 493 0
DWIDTH 7 0
BBX 7 10 0 0
BITMAP
0002F600
000AF600
003DD600
00A6C600
03E0C600
0B70C600
3E10C600
9FFFFF70
0000D600
0000C600
ENDCHAR
STARTCHAR five
ENCODING 53
SWIDTH 493 0
DWIDTH 7 0
BBX 6 10 1 0
BITMAP
5FFFF1
6B3330
890000
9DED30
683AD0
0001F3
0000E4
B200F3
AA18D0
1BEC30
ENDCHAR
STARTCHAR six
ENCODING 54
SWIDTH 493 0
DWIDTH 7 0
BBX 7 10 0 0
BITMAP
004BE000
03E72000
0A900000
0E9EC300
0FB29C00
1F302F20
1F200F30
0E502F10
08C29B00
01AEC200
ENDCHAR
STARTCHAR seven
ENCODING 55
SWIDTH 493 0
DWIDTH 7 0
BBX 7 10 0 0
BITMAP
6FFFFF40
01113E10
00008A00
0000E400
0005D000
000A8000
001F2000
007C0000
00D60000
03F10000
ENDCHAR
STARTCHAR eight
ENCODING 56
SWIDTH 493 0
DWIDTH 7 0
BBX 7 10 0 0
BITMAP
03CEB200
0C91AB00
0F305D00
0B819A00
02FFE100
0C82AA00
2F103F10
2F102F10
0D819C00
03CEB200
ENDCHAR
STARTCHAR nine
ENCODING 57
SWIDTH 493 0
DWIDTH 7 0
BBX 6 10 0 0
BITMAP
02CEA0
0C82D7
2F106C
4E004E
3F004F
0D71CE
04EE9D
000099
0027E3
02EB30
ENDCHAR
STARTCHAR colon
ENCODING 58
SWIDTH 233 0
DWIDTH 3 0
BBX 2 8 1 0
BITMAP
52
D6
00
00
00
00
62
D5
ENDCHAR
STARTCHAR semicolon
ENCODING 59
SWIDTH 202 0
DWIDTH 3 0
BBX 3 10 0 -2
BITMAP
0610
2E30
0000
0000
0000
0000
0820
1F30
3E10
7700
ENDCHAR
STARTCHAR less
ENCODING 60
SWIDTH 445 0
DWIDTH 6 0
BBX 6 6 0 2
BITMAP
000293
018EA1
4EA200
4E9200
018EA1
000293
ENDCHAR
STARTCHAR equal
ENCODING 61
SWIDTH 479 0
DWIDTH 7 0
BBX 5 5 1 2
BITMAP
FFFFC0
111110
000000
FFFFC0
111110
ENDCHAR
STARTCHAR greater
ENCODING 62
SWIDTH 459 0
DWIDTH 6 0
BBX 6 6 0 2
BITMAP
1B3000
08EA30
0017D9
0017E9
08EA30
1B3000
ENDCHAR
STARTCHAR question
ENCODING 63
SWIDTH 421 0
DWIDTH 6 0
BBX 6 10 0 0
BITMAP
07EE60
4E45F2
3500E4
0002F2
000C90
007C00
00C600
002100
004100
00B500
ENDCHAR
STARTCHAR at
ENCODING 64
SWIDTH 769 0
DWIDTH 11 0
BBX 11 13 0 -3
BITMAP
0005CED81000
007C4128B000
02D100008600
09505ED31B00
0D12E3960C00
1D0790A50B10
3B0A60B30C10
2B0B50C20D00
1D0983F56900
0D23DB6EB100
089000000000
01D821420000
0019DEB20000
ENDCHAR
STARTCHAR A
ENCODING 65
SWIDTH 576 0
DWIDTH 8 0
BBX 8 10 0 0
BITMAP
000AB000
000EF100
005CB600
00976B00
00E21E10
04D00C50
09FFFFA0
0D4113E0
3E0000E5
8B0000A9
ENDCHAR
STARTCHAR B
ENCODING 66
SWIDTH 545 0
DWIDTH 8 0
BBX 6 10 1 0
BITMAP
EFFE90
E613D7
E500A9
E502E5
EFFFB0
E512D7
E5007C
E5007B
E613D7
EFFE90
ENDCHAR
STARTCHAR C
ENCODING 67
SWIDTH 566 0
DWIDTH 8 0
BBX 8 10 0 0
BITMAP
008EEB20
07D42AC0
0E6002F2
1F300051
2F200000
2F200000
1F200041
0E5001F2
07D329C0
008EEA20
ENDCHAR
STARTCHAR D
ENCODING 68
SWIDTH 570 0
DWIDTH 8 0
BBX 7 10 1 0
BITMAP
EFFD6000
E625E500
E5006D00
E5003F00
E5002F20
E5002F20
E5003F00
E5006D00
E625E500
EFFD6000
ENDCHAR
STARTCHAR E
ENCODING 69
SWIDTH 496 0
DWIDTH 7 0
BBX 6 10 1 0
BITMAP
EFFFF5
E61110
E50000
E50000
EFFFD0
E61110
E50000
E50000
E61110
EFFFF6
ENDCHAR
STARTCHAR F
ENCODING 70
SWIDTH 480 0
DWIDTH 7 0
BBX 6 10 1 0
BITMAP
EFFFF4
E61110
E50000
E50000
EFFFA0
E61110
E50000
E50000
E50000
E50000
ENDCHAR
STARTCHAR G
ENCODING 71
SWIDTH 590 0
DWIDTH 8 0
BBX 8 10 0 0
BITMAP
019EEB20
09D32AD0
0E5001F3
2F200010
2F200000
2F20CFF4
1F3011E4
0E6000E4
07D425F4
008EFD60
ENDCHAR
STARTCHAR H
ENCODING 72
SWIDTH 620 0
DWIDTH 9 0
BBX 7 10 1 0
BITMAP
E5000A90
E5000A90
E5000A90
E5000A90
EFFFFF90
E6111A90
E5000A90
E5000A90
E5000A90
E5000A90
ENDCHAR
STARTCHAR I
ENCODING 73
SWIDTH 250 0
DWIDTH 4 0
BBX 2 10 1 0
BITMAP
D6
D6
D6
D6
D6
D6
D6
D6
D6
D6
ENDCHAR
STARTCHAR J
ENCODING 74
SWIDTH 483 0
DWIDTH 7 0
BBX 6 10 0 0
BITMAP
00008C
00008C
00008C
00008C
00008C
00008C
00008B
7A009A
4E43E6
07EE90
ENDCHAR
STARTCHAR K
ENCODING 75
SWIDTH 544 0
DWIDTH 8 0
BBX 7 10 1 0
BITMAP
E5008D10
E504F400
E51D7000
E5AB0000
EBF40000
EFBC0000
E71E6000
E506E100
E500CA00
E5003F40
ENDCHAR
STARTCHAR L
ENCODING 76
SWIDTH 475 0
DWIDTH 7 0
BBX 6 10 1 0
BITMAP
E50000
E50000
E50000
E50000
E50000
E50000
E50000
E50000
E61110
EFFFF4
ENDCHAR
STARTCHAR M
ENCODING 77
SWIDTH 755 0
DWIDTH 11 0
BBX 9 10 1 0
BITMAP
ED00004F80
EF20009F80
EE7000EE80
E9C004EA80
E5F2089B80
E5B70D4B80
E56B3E0B80
E51E990B80
E50BF40B80
E506E00B80
ENDCHAR
STARTCHAR N
ENCODING 78
SWIDTH 619 0
DWIDTH 9 0
BBX 7 10 1 0
BITMAP
E9000A90
EF200A90
ED900A90
E6E20A90
E58A0A90
E51E3A90
E508AA90
E501ED90
E5007F90
E5001E90
ENDCHAR
STARTCHAR O
ENCODING 79
SWIDTH 600 0
DWIDTH 8 0
BBX 8 10 0 0
BITMAP
008EFB20
07E53AD0
0D6000E5
1F2000C7
2F1000B8
2F1000B8
1F2000B7
0E6000E5
07D439D0
008EFB20
ENDCHAR
STARTCHAR P
ENCODING 80
SWIDTH 554 0
DWIDTH 8 0
BBX 7 10 1 0
BITMAP
EFFEB200
E612AC00
E5002F20
E5001F20
E5019D00
EFFFC300
E6110000
E5000000
E5000000
E5000000
ENDCHAR
STARTCHAR Q
ENCODING 81
SWIDTH 600 0
DWIDTH 8 0
BBX 8 12 0 -2
BITMAP
008EEB20
08D43AC0
0E5001F4
2F2000C6
3F1000C7
3F1000C7
2F2000C7
0E5001E4
08D43AD0
009EEF60
000006F5
00000041
ENDCHAR
STARTCHAR R
ENCODING 82
SWIDTH 530 0
DWIDTH 7 0
BBX 7 10 1 0
BITMAP
EFFE9000
E613D700
E5008B00
E5007C00
E503D700
EFFFA000
E61B9000
E504F100
E500C800
E5006E10
ENDCHAR
STARTCHAR S
ENCODING 83
SWIDTH 518 0
DWIDTH 7 0
BBX 7 10 0 0
BITMAP
02BED600
0D925E40
2F200A90
1E700000
05EC5000
0028EC10
00001D80
5E0009A0
1E824E60
03BFD800
ENDCHAR
STARTCHAR T
ENCODING 84
SWIDTH 520 0
DWIDTH 7 0
BBX 7 10 0 0
BITMAP
9FFFFFD0
111F5110
000F4000
000F4000
000F4000
000F4000
000F4000
000F4000
000F4000
000F4000
ENDCHAR
STARTCHAR U
ENCODING 85
SWIDTH 561 0
DWIDTH 8 0
BBX 7 10 0 0
BITMAP
2F2004F0
2F2004F0
2F2004F0
2F2004F0
2F2004F0
2F2004F0
2F2004F0
1F3005E0
0BA22C90
02AEE910
ENDCHAR
STARTCHAR V
ENCODING 86
SWIDTH 560 0
DWIDTH 8 0
BBX 8 10 0 0
BITMAP
8C0000E6
4F1004F2
0E5008C0
0AA00C70
05E01F30
01F35D00
00B7A800
006CE400
001FE000
000C9000
ENDCHAR
STARTCHAR W
ENCODING 87
SWIDTH 761 0
DWIDTH 11 0
BBX 11 10 0 0
BITMAP
6C003F101F30
3F007F403F00
1F30AD706C00
0C50E6B09900
0982D1E0B600
06B6A0D2E300
03E96097F000
01FD306DC000
00CE002F9000
009B000E6000
ENDCHAR
STARTCHAR X
ENCODING 88
SWIDTH 550 0
DWIDTH 8 0
BBX 8 10 0 0
BITMAP
3F3007E1
0AB01E60
03F37D00
00ABE600
002FD000
003FD000
00ABD700
03F37E10
0BA01E70
4F3007E1
ENDCHAR
STARTCHAR Y
ENCODING 89
SWIDTH 524 0
DWIDTH 7 0
BBX 7 10 0 0
BITMAP
9C0008D0
2F400D60
0AA05E10
03F1B800
00C9F100
005F9000
000F4000
000F4000
000F4000
000F4000
ENDCHAR
STARTCHAR Z
ENCODING 90
SWIDTH 522 0
DWIDTH 7 0
BBX 7 10 0 0
BITMAP
5FFFFF80
01113F40
0000AA00
0003F200
000C8000
006E1000
01D60000
08C00000
2E511110
6FFFFFB0
ENDCHAR
STARTCHAR bracketleft
ENCODING 91
SWIDTH 250 0
DWIDTH 4 0
BBX 4 13 0 -2
BITMAP
1FF3
1F30
1F20
1F20
1F20
1F20
1F20
1F20
1F20
1F20
1F20
1F30
1FF3
ENDCHAR
STARTCHAR backslash
ENCODING 92
SWIDTH 369 0
DWIDTH 5 0
BBX 5 11 0 -1
BITMAP
7A0000
3E0000
0D4000
089000
03E000
00E300
009800
004D00
000E30
000A80
0005C0
ENDCHAR
STARTCHAR bracketright
ENCODING 93
SWIDTH 250 0
DWIDTH 4 0
BBX 3 13 0 -2
BITMAP
CF70
1B70
0B70
0B70
0B70
0B70
0B70
0B70
0B70
0B70
0B70
1B70
CF70
ENDCHAR
STARTCHAR asciicircum
ENCODING 94
SWIDTH 371 0
DWIDTH 5 0
BBX 5 5 0 5
BITMAP
01E300
05F800
0A7D00
1E1D30
5B0880
ENDCHAR
STARTCHAR underscore
ENCODING 95
SWIDTH 404 0
DWIDTH 6 0
BBX 6 1 0 -1
BITMAP
CFFFF8
ENDCHAR
STARTCHAR grave
ENCODING 96
SWIDTH 309 0
DWIDTH 4 0
BBX 4 2 0 8
BITMAP
3E50
04C1
ENDCHAR
STARTCHAR a
ENCODING 97
SWIDTH 479 0
DWIDTH 7 0
BBX 6 8 0 0
BITMAP
03CEB1
0E71B9
02007B
03CFFB
0E817B
3F007B
1F53DC
07EC8E
ENDCHAR
STARTCHAR b
ENCODING 98
SWIDTH 493 0
DWIDTH 7 0
BBX 7 11 0 0
BITMAP
1F200000
1F200000
1F200000
1F8ED400
1F928D00
1F201F20
1F200E40
1F200E40
1F201F20
1F928D00
1F7ED400
ENDCHAR
STARTCHAR c
ENCODING 99
SWIDTH 461 0
DWIDTH 6 0
BBX 6 8 0 0
BITMAP
03CEB2
0D719A
3E003B
5D0000
5D0000
3E0028
0D719A
03CEB1
ENDCHAR
STARTCHAR d
ENCODING 100
SWIDTH 496 0
DWIDTH 7 0
BBX 6 11 0 0
BITMAP
00003F
00003F
00003F
04DE9F
0E82AF
3E003F
5D003F
5D003F
3E003F
0E72AF
04DE8F
ENDCHAR
STARTCHAR e
ENCODING 101
SWIDTH 468 0
DWIDTH 7 0
BBX 6 8 0 0
BITMAP
02CEB2
0D71AA
3E004E
5FFFFF
5E1111
3F1000
0D8149
03CFD5
ENDCHAR
STARTCHAR f
ENCODING 102
SWIDTH 316 0
DWIDTH 4 0
BBX 5 11 0 0
BITMAP
01BE40
06D200
08A000
8FFE00
08A000
08A000
08A000
08A000
08A000
08A000
08A000
ENDCHAR
STARTCHAR g
ENCODING 103
SWIDTH 492 0
DWIDTH 7 0
BBX 6 11 0 -3
BITMAP
04DE7F
0E82AF
3F003F
5D003F
5D003F
3F003F
0E72AF
04DE9F
00004E
0841AA
05DEB2
ENDCHAR
STARTCHAR h
ENCODING 104
SWIDTH 482 0
DWIDTH 7 0
BBX 6 11 0 0
BITMAP
1F2000
1F2000
1F2000
1F8ED3
1FA2AA
1F206C
1F205D
1F205D
1F205D
1F205D
1F205D
ENDCHAR
STARTCHAR i
ENCODING 105
SWIDTH 229 0
DWIDTH 3 0
BBX 2 11 1 0
BITMAP
51
D3
00
F3
F3
F3
F3
F3
F3
F3
F3
ENDCHAR
STARTCHAR j
ENCODING 106
SWIDTH 223 0
DWIDTH 3 0
BBX 4 14 -1 -3
BITMAP
0050
01E1
0000
01F2
01F2
01F2
01F2
01F2
01F2
01F2
01F2
01F2
04F1
2E90
ENDCHAR
STARTCHAR k
ENCODING 107
SWIDTH 450 0
DWIDTH 6 0
BBX 6 11 0 0
BITMAP
1F2000
1F2000
1F2000
1F21D8
1F28C0
1F5E20
1FDA00
1FCF30
1F2AB0
1F22F5
1F208D
ENDCHAR
STARTCHAR l
ENCODING 108
SWIDTH 229 0
DWIDTH 3 0
BBX 2 11 1 0
BITMAP
F3
F3
F3
F3
F3
F3
F3
F3
F3
F3
F3
ENDCHAR
STARTCHAR m
ENCODING 109
SWIDTH 752 0
DWIDTH 11 0
BBX 10 8 0 0
BITMAP
1F8ED4BEB1
1F82BF62D6
1F206E0099
1F205D0099
1F205D0099
1F205D0099
1F205D0099
1F205D0099
ENDCHAR
STARTCHAR n
ENCODING 110
SWIDTH 483 0
DWIDTH 7 0
BBX 6 8 0 0
BITMAP
1F7ED3
1FA2AA
1F206C
1F205D
1F205D
1F205D
1F205D
1F205D
ENDCHAR
STARTCHAR o
ENCODING 111
SWIDTH 501 0
DWIDTH 7 0
BBX 7 8 0 0
BITMAP
02BEB200
0C929D00
3F101F30
5D000D50
5D000D50
3F100E30
0D817D00
02BEC200
ENDCHAR
STARTCHAR p
ENCODING 112
SWIDTH 493 0
DWIDTH 7 0
BBX 7 11 0 -3
BITMAP
1F7ED400
1F829D00
1F201F20
1F200F40
1F200F30
1F201F20
1F819D00
1F9ED300
1F200000
1F200000
1F200000
ENDCHAR
STARTCHAR q
ENCODING 113
SWIDTH 500 0
DWIDTH 7 0
BBX 6 11 0 -3
BITMAP
04DE8F
0E729F
3E004F
5D004F
5D004F
4E004F
1E719F
04DEAF
00004F
00004F
00004F
ENDCHAR
STARTCHAR r
ENCODING 114
SWIDTH 304 0
DWIDTH 4 0
BBX 4 8 0 0
BITMAP
1F9D
1FA4
1F20
1F20
1F20
1F20
1F20
1F20
ENDCHAR
STARTCHAR s
ENCODING 115
SWIDTH 455 0
DWIDTH 6 0
BBX 6 8 0 0
BITMAP
04DEA0
0E62D7
1F4033
08E810
003BE3
2600AA
2F51B8
05DEB1
ENDCHAR
STARTCHAR t
ENCODING 116
SWIDTH 295 0
DWIDTH 4 0
BBX 4 10 0 0
BITMAP
0B70
0B70
DFF9
0B70
0B70
0B70
0B70
0B70
0AA1
04E8
ENDCHAR
STARTCHAR u
ENCODING 117
SWIDTH 483 0
DWIDTH 7 0
BBX 6 8 0 0
BITMAP
2F105D
2F105D
2F105D
2F105D
2F105D
1F205D
0E72CD
05ED9D
ENDCHAR
STARTCHAR v
ENCODING 118
SWIDTH 427 0
DWIDTH 6 0
BBX 6 8 0 0
BITMAP
8A00B8
4E00E3
0E23E0
0B66A0
07AA60
02DD20
00DD00
009900
ENDCHAR
STARTCHAR w
ENCODING 119
SWIDTH 649 0
DWIDTH 9 0
BBX 9 8 0 0
BITMAP
8A01F20890
5D05F60B60
1F19D90E30
0D4C6D2E00
0A8E0E7B00
06EB0AD700
03F706F400
00E302F100
ENDCHAR
STARTCHAR x
ENCODING 120
SWIDTH 438 0
DWIDTH 6 0
BBX 6 8 0 0
BITMAP
5E10D7
0C75E1
05DC70
00CE00
00DE10
06DB70
0D64E1
6E10D7
ENDCHAR
STARTCHAR y
ENCODING 121
SWIDTH 416 0
DWIDTH 6 0
BBX 6 11 0 -3
BITMAP
9A00D6
5E01F2
1F25D0
0C6890
08AC50
04EF10
00EC00
00A800
00C400
15E000
5E4000
ENDCHAR
STARTCHAR z
ENCODING 122
SWIDTH 438 0
DWIDTH 6 0
BBX 6 8 0 0
BITMAP
5FFFF7
0114F2
000C80
005E10
00D600
07D000
1E5000
5FFFF9
ENDCHAR
STARTCHAR braceleft
ENCODING 123
SWIDTH 306 0
DWIDTH 4 0
BBX 4 14 0 -3
BITMAP
004B
01E4
04E0
05D0
05D0
0A90
8F20
0A90
05D0
05D0
05D0
03E0
00D5
003B
ENDCHAR
STARTCHAR bar
ENCODING 124
SWIDTH 243 0
DWIDTH 3 0
BBX 2 12 1 -2
BITMAP
C3
C3
C3
C3
C3
C3
C3
C3
C3
C3
C3
C3
ENDCHAR
STARTCHAR braceright
ENCODING 125
SWIDTH 306 0
DWIDTH 4 0
BBX 4 14 0 -3
BITMAP
8700
1E40
0A80
0990
0990
06D1
00CC
05D1
0990
0990
0990
0B70
2E20
8500
ENDCHAR
STARTCHAR asciitilde
ENCODING 126
SWIDTH 589 0
DWIDTH 8 0
BBX 8 4 0 3
BITMAP
00100000
05FD2095
0D38C3D2
1E009E70
ENDCHAR
STARTCHAR uni00A0
ENCODING 160
SWIDTH 229 0
DWIDTH 3 0
BBX 1 1 0 0
BITMAP
00
ENDCHAR
STARTCHAR exclamdown
ENCODING 161
SWIDTH 231 0
DWIDTH 3 0
BBX 2 10 1 -2
BITMAP
D3
51
20
E3
E3
E3
E3
E4
F4
F4
ENDCHAR
STARTCHAR cent
ENCODING 162
SWIDTH 479 0
DWIDTH 7 0
BBX 6 12 0 -2
BITMAP
001800
002F10
02CFC2
0C919B
2F1029
4E0000
4E0000
2F1016
0C818C
02CFC2
002F10
001900
ENDCHAR
STARTCHAR sterling
ENCODING 163
SWIDTH 510 0
DWIDTH 7 0
BBX 7 10 0 0
BITMAP
006DE800
02F54F40
07C00740
08B00000
07C00000
5FFF8000
07D11000
06D00000
0AA11110
5FFFFFA0
ENDCHAR
STARTCHAR currency
ENCODING 164
SWIDTH 712 0
DWIDTH 10 0
BBX 10 10 0 0
BITMAP
0100000010
1D69EEA5D2
09FB44AFA0
09B0000B90
0E400004E0
0F200002F1
0E400004E0
09B0000B90
0BFB44AFC1
1B49EEA4C2
ENDCHAR
STARTCHAR yen
ENCODING 165
SWIDTH 463 0
DWIDTH 6 0
BBX 7 10 0 0
BITMAP
9C004F20
3F30AA00
0B91F400
05E7C000
00DF6000
2FFFFA00
006D0000
2FFFFA00
006D0000
006D0000
ENDCHAR
STARTCHAR brokenbar
ENCODING 166
SWIDTH 239 0
DWIDTH 3 0
BBX 2 12 1 -2
BITMAP
F4
F4
F4
F4
F4
00
F4
F4
F4
F4
F4
F4
ENDCHAR
STARTCHAR section
ENCODING 167
SWIDTH 537 0
DWIDTH 8 0
BBX 7 13 0 -3
BITMAP
03BED700
0D914E50
0F300870
0CA20000
08FFB400
3F239F50
4E0008A0
1DC51AA0
019EFE20
00016F40
4C000B70
1E714E40
04CED700
ENDCHAR
STARTCHAR dieresis
ENCODING 168
SWIDTH 417 0
DWIDTH 6 0
BBX 6 2 0 9
BITMAP
150150
3E14E1
ENDCHAR
STARTCHAR copyright
ENCODING 169
SWIDTH 785 0
DWIDTH 11 0
BBX 11 10 0 0
BITMAP
0018DFD71000
01D82029C100
0B52CEB16A00
2B0B61980C10
570E00110840
570E00110840
2B0B61980C10
0B53CEB26A00
01D82029C100
0018DFD81000
ENDCHAR
STARTCHAR ordfeminine
ENCODING 170
SWIDTH 395 0
DWIDTH 6 0
BBX 4 5 1 5
BITMAP
7ED2
6297
8EF8
F398
AEC9
ENDCHAR
STARTCHAR guillemotleft
ENCODING 171
SWIDTH 417 0
DWIDTH 6 0
BBX 6 5 0 1
BITMAP
01C2C1
0A6B50
3E4D00
0A6B50
01C2C1
ENDCHAR
STARTCHAR logicalnot
ENCODING 172
SWIDTH 487 0
DWIDTH 7 0
BBX 6 3 0 2
BITMAP
2FFFFA
01119A
00008A
ENDCHAR
STARTCHAR uni00AD
ENCODING 173
SWIDTH 248 0
DWIDTH 3 0
BBX 4 1 0 4
BITMAP
AFF2
ENDCHAR
STARTCHAR registered
ENCODING 174
SWIDTH 786 0
DWIDTH 11 0
BBX 11 10 0 0
BITMAP
0018DFD71000
02D82029C100
0B58FFB16A00
2B0870880C10
570871970840
5708FFE10840
2B0870970C10
0B5870696900
01D82029C100
0018DFD81000
ENDCHAR
STARTCHAR macron
ENCODING 175
SWIDTH 414 0
DWIDTH 6 0
BBX 4 1 1 9
BITMAP
FFFE
ENDCHAR
STARTCHAR degree
ENCODING 176
SWIDTH 373 0
DWIDTH 5 0
BBX 5 4 0 6
BITMAP
06EA00
1D1B40
1D1B40
07EA00
ENDCHAR
STARTCHAR plusminus
ENCODING 177
SWIDTH 469 0
DWIDTH 7 0
BBX 6 9 0 0
BITMAP
002C00
002E00
002E00
4FFFFF
002E00
002E00
002E00
011110
1FFFFB
ENDCHAR
STARTCHAR uni00B2
ENCODING 178
SWIDTH 329 0
DWIDTH 5 0
BBX 5 5 0 5
BITMAP
1CE700
584D00
00A700
0A7000
6FFF10
ENDCHAR
STARTCHAR uni00B3
ENCODING 179
SWIDTH 329 0
DWIDTH 5 0
BBX 4 5 0 5
BITMAP
2DE7
354D
05F8
353E
3DE8
ENDCHAR
STARTCHAR acute
ENCODING 180
SWIDTH 313 0
DWIDTH 4 0
BBX 3 2 1 8
BITMAP
4E40
B500
ENDCHAR
STARTCHAR mu
ENCODING 181
SWIDTH 498 0
DWIDTH 7 0
BBX 5 11 1 -3
BITMAP
F304F0
F304F0
F304F0
F304F0
F304F0
F404F0
F92AF0
FCE9F0
F30000
F30000
F30000
ENDCHAR
STARTCHAR paragraph
ENCODING 182
SWIDTH 434 0
DWIDTH 6 0
BBX 5 10 0 0
BITMAP
04CEE0
2EFFF0
6FFFF0
7FFFF0
5FFFF0
0BFFF0
0058F0
0004F0
0004F0
0004F0
ENDCHAR
STARTCHAR periodcentered
ENCODING 183
SWIDTH 243 0
DWIDTH 3 0
BBX 2 2 1 4
BITMAP
D4
61
ENDCHAR
STARTCHAR cedilla
ENCODING 184
SWIDTH 229 0
DWIDTH 3 0
BBX 3 3 0 -3
BITMAP
1C00
0760
2E50
ENDCHAR
STARTCHAR uni00B9
ENCODING 185
SWIDTH 329 0
DWIDTH 5 0
BBX 4 5 0 5
BITMAP
05C1
2BF1
00F1
00F1
00F1
ENDCHAR
STARTCHAR ordmasculine
ENCODING 186
SWIDTH 402 0
DWIDTH 6 0
BBX 5 5 0 5
BITMAP
06ED30
1E27A0
3D04C0
1E27A0
06ED30
ENDCHAR
STARTCHAR guillemotright
ENCODING 187
SWIDTH 417 0
DWIDTH 6 0
BBX 6 5 0 1
BITMAP
1C2C10
0795B0
01F2E3
0795B0
1C2C10
ENDCHAR
STARTCHAR onequarter
ENCODING 188
SWIDTH 637 0
DWIDTH 9 0
BBX 9 10 0 0
BITMAP
17A0000000
6CC0029000
04C00A4000
04C03B0000
04C0B30000
0004908C00
000C23DC00
00580B4C00
00915FFF60
0000003C00
ENDCHAR
STARTCHAR onehalf
ENCODING 189
SWIDTH 677 0
DWIDTH 9 0
BBX 9 10 0 0
BITMAP
17A0000000
6CC0055000
04C00C1000
04C0770000
04C1C00000
000865ED30
002C083980
0094003D20
01A003C300
00000BFFB0
ENDCHAR
STARTCHAR threequarters
ENCODING 190
SWIDTH 673 0
DWIDTH 9 0
BBX 9 10 0 0
BITMAP
0BFB000000
141E206400
01FC01C100
161D386000
0BFB2C0000
0000952E40
0002B0BD40
000A367B40
00190DFFD0
0000000B40
ENDCHAR
STARTCHAR questiondown
ENCODING 191
SWIDTH 421 0
DWIDTH 6 0
BBX 6 11 0 -3
BITMAP
009700
003200
000000
00A800
00E500
08C000
2F3000
6C0000
7B00E4
4E37E1
08ED40
ENDCHAR
STARTCHAR Agrave
ENCODING 192
SWIDTH 576 0
DWIDTH 8 0
BBX 8 13 0 0
BITMAP
009D1000
000B6000
00000000
000AB000
000EF100
005CB600
00976B00
00E21E10
04D00C50
09FFFFA0
0D4113E0
3E0000E5
8B0000A9
ENDCHAR
STARTCHAR Aacute
ENCODING 193
SWIDTH 576 0
DWIDTH 8 0
BBX 8 13 0 0
BITMAP
0000BB00
0005B100
00000000
000AB000
000EF100
005CB600
00976B00
00E21E10
04D00C50
09FFFFA0
0D4113E0
3E0000E5
8B0000A9
ENDCHAR
STARTCHAR Acircumflex
ENCODING 194
SWIDTH 576 0
DWIDTH 8 0
BBX 8 13 0 0
BITMAP
001BC100
00687800
00000000
000AB000
000EF100
005CB600
00976B00
00E21E10
04D00C50
09FFFFA0
0D4113E0
3E0000E5
8B0000A9
ENDCHAR
STARTCHAR Atilde
ENCODING 195
SWIDTH 576 0
DWIDTH 8 0
BBX 8 14 0 0
BITMAP
00000100
008D2C10
00C2D900
00000000
000AB000
000EF100
005CB600
00976B00
00E21E10
04D00C50
09FFFFA0
0D4113E0
3E0000E5
8B0000A9
ENDCHAR
STARTCHAR Adieresis
ENCODING 196
SWIDTH 576 0
DWIDTH 8 0
BBX 8 13 0 0
BITMAP
00510500
01E31E30
00000000
000AB000
000EF100
005CB600
00976B00
00E21E10
04D00C50
09FFFFA0
0D4113E0
3E0000E5
8B0000A9
ENDCHAR
STARTCHAR Aring
ENCODING 197
SWIDTH 576 0
DWIDTH 8 0
BBX 8 14 0 0
BITMAP
001AA200
00554700
001BB300
00000000
000AB000
000EF100
005CB600
00976B00
00E21E10
04D00C50
09FFFFA0
0D4113E0
3E0000E5
8B0000A9
ENDCHAR
STARTCHAR AE
ENCODING 198
SWIDTH 812 0
DWIDTH 11 0
BBX 12 10 0 0
BITMAP
00003FFFFFA0
0000BEB11100
0003E7C00000
000B76C00000
004E15FFFF40
00B605D00000
04FFFFE00000
0B8336E00000
4F1003F00000
BA0003FFFFF1
ENDCHAR
STARTCHAR Ccedilla
ENCODING 199
SWIDTH 566 0
DWIDTH 8 0
BBX 8 13 0 -3
BITMAP
008EEB20
07D42AC0
0E6002F2
1F300051
2F200000
2F200000
1F200041
0E5001F2
07D329C0
008EEA20
00067000
0000B200
0007C100
ENDCHAR
STARTCHAR Egrave
ENCODING 200
SWIDTH 496 0
DWIDTH 7 0
BBX 6 13 1 0
BITMAP
2D8000
03D200
000000
EFFFF5
E61110
E50000
E50000
EFFFD0
E61110
E50000
E50000
E61110
EFFFF6
ENDCHAR
STARTCHAR Eacute
ENCODING 201
SWIDTH 496 0
DWIDTH 7 0
BBX 6 13 1 0
BITMAP
003E60
00A700
000000
EFFFF5
E61110
E50000
E50000
EFFFD0
E61110
E50000
E50000
E61110
EFFFF6
ENDCHAR
STARTCHAR Ecircumflex
ENCODING 202
SWIDTH 496 0
DWIDTH 7 0
BBX 6 13 1 0
BITMAP
03E800
0B4B30
000000
EFFFF5
E61110
E50000
E50000
EFFFD0
E61110
E50000
E50000
E61110
EFFFF6
ENDCHAR
STARTCHAR Edieresis
ENCODING 203
SWIDTH 496 0
DWIDTH 7 0
BBX 6 13 1 0
BITMAP
140240
6C06B0
000000
EFFFF5
E61110
E50000
E50000
EFFFD0
E61110
E50000
E50000
E61110
EFFFF6
ENDCHAR
STARTCHAR Igrave
ENCODING 204
SWIDTH 250 0
DWIDTH 4 0
BBX 4 13 -1 0
BITMAP
1D90
02C3
0000
00D6
00D6
00D6
00D6
00D6
00D6
00D6
00D6
00D6
00D6
ENDCHAR
STARTCHAR Iacute
ENCODING 205
SWIDTH 250 0
DWIDTH 4 0
BBX 3 13 1 0
BITMAP
2E70
9800
0000
D600
D600
D600
D600
D600
D600
D600
D600
D600
D600
ENDCHAR
STARTCHAR Icircumflex
ENCODING 206
SWIDTH 250 0
DWIDTH 4 0
BBX 4 13 0 0
BITMAP
3D90
B4B4
0000
0D60
0D60
0D60
0D60
0D60
0D60
0D60
0D60
0D60
0D60
ENDCHAR
STARTCHAR Idieresis
ENCODING 207
SWIDTH 250 0
DWIDTH 4 0
BBX 5 13 -1 0
BITMAP
150140
5D06C0
000000
00D600
00D600
00D600
00D600
00D600
00D600
00D600
00D600
00D600
00D600
ENDCHAR
STARTCHAR Eth
ENCODING 208
SWIDTH 585 0
DWIDTH 8 0
BBX 8 10 0 0
BITMAP
0BFFE800
0B914C90
0B8003F1
0B8000F3
DFFC00E5
0B8000E5
0B8000F4
0B8003F1
0B914D90
0BFFD800
ENDCHAR
STARTCHAR Ntilde
ENCODING 209
SWIDTH 619 0
DWIDTH 9 0
BBX 7 14 1 0
BITMAP
00001000
05E59500
0A3AC100
00000000
E9000A90
EF200A90
ED900A90
E6E20A90
E58A0A90
E51E3A90
E508AA90
E501ED90
E5007F90
E5001E90
ENDCHAR
STARTCHAR Ograve
ENCODING 210
SWIDTH 600 0
DWIDTH 8 0
BBX 8 13 0 0
BITMAP
007E2000
00098000
00000000
008EFB20
07E53AD0
0D6000E5
1F2000C7
2F1000B8
2F1000B8
1F2000B7
0E6000E5
07D439D0
008EFB20
ENDCHAR
STARTCHAR Oacute
ENCODING 211
SWIDTH 600 0
DWIDTH 8 0
BBX 8 13 0 0
BITMAP
00009D10
0003C200
00000000
008EFB20
07E53AD0
0D6000E5
1F2000C7
2F1000B8
2F1000B8
1F2000B7
0E6000E5
07D439D0
008EFB20
ENDCHAR
STARTCHAR Ocircumflex
ENCODING 212
SWIDTH 600 0
DWIDTH 8 0
BBX 8 13 0 0
BITMAP
0009D200
004B4A00
00000000
008EFB20
07E53AD0
0D6000E5
1F2000C7
2F1000B8
2F1000B8
1F2000B7
0E6000E5
07D439D0
008EFB20
ENDCHAR
STARTCHAR Otilde
ENCODING 213
SWIDTH 600 0
DWIDTH 8 0
BBX 8 14 0 0
BITMAP
00000100
006E4A30
00B2BC00
00000000
008EFB20
07E53AD0
0D6000E5
1F2000C7
2F1000B8
2F1000B8
1F2000B7
0E6000E5
07D439D0
008EFB20
ENDCHAR
STARTCHAR Odieresis
ENCODING 214
SWIDTH 600 0
DWIDTH 8 0
BBX 8 13 0 0
BITMAP
00410510
00C60D50
00000000
008EFB20
07E53AD0
0D6000E5
1F2000C7
2F1000B8
2F1000B8
1F2000B7
0E6000E5
07D439D0
008EFB20
ENDCHAR
STARTCHAR multiply
ENCODING 215
SWIDTH 470 0
DWIDTH 7 0
BBX 6 7 0 1
BITMAP
2A0048
1D71E7
04FCB0
00AF20
03FCB0
1D81E7
1A0047
ENDCHAR
STARTCHAR Oslash
ENCODING 216
SWIDTH 600 0
DWIDTH 8 0
BBX 8 12 0 -1
BITMAP
00000013
006DEAA5
05E53BE0
0D700AF4
1F303BB7
3F10B3A9
3F14A0A9
2F2C20B7
0DB901F4
06F63BC0
06BDEB20
06100000
ENDCHAR
STARTCHAR Ugrave
ENCODING 217
SWIDTH 561 0
DWIDTH 8 0
BBX 7 13 0 0
BITMAP
00BB0000
001C5000
00000000
2F2004F0
2F2004F0
2F2004F0
2F2004F0
2F2004F0
2F2004F0
2F2004F0
1F3005E0
0BA22C90
02AEE910
ENDCHAR
STARTCHAR Uacute
ENCODING 218
SWIDTH 561 0
DWIDTH 8 0
BBX 7 13 0 0
BITMAP
0001C900
0006A000
00000000
2F2004F0
2F2004F0
2F2004F0
2F2004F0
2F2004F0
2F2004F0
2F2004F0
1F3005E0
0BA22C90
02AEE910
ENDCHAR
STARTCHAR Ucircumflex
ENCODING 219
SWIDTH 561 0
DWIDTH 8 0
BBX 7 13 0 0
BITMAP
001CB100
00879600
00000000
2F2004F0
2F2004F0
2F2004F0
2F2004F0
2F2004F0
2F2004F0
2F2004F0
1F3005E0
0BA22C90
02AEE910
ENDCHAR
STARTCHAR Udieresis
ENCODING 220
SWIDTH 561 0
DWIDTH 8 0
BBX 7 13 0 0
BITMAP
00501500
02E23E10
00000000
2F2004F0
2F2004F0
2F2004F0
2F2004F0
2F2004F0
2F2004F0
2F2004F0
1F3005E0
0BA22C90
02AEE910
ENDCHAR
STARTCHAR Yacute
ENCODING 221
SWIDTH 524 0
DWIDTH 7 0
BBX 7 13 0 0
BITMAP
0003E600
000A7000
00000000
9C0008D0
2F400D60
0AA05E10
03F1B800
00C9F100
005F9000
000F4000
000F4000
000F4000
000F4000
ENDCHAR
STARTCHAR Thorn
ENCODING 222
SWIDTH 515 0
DWIDTH 7 0
BBX 6 10 1 0
BITMAP
E40000
E40000
EFFD60
E414F3
E400A8
E400A8
E404E4
EFFE60
E41000
E40000
ENDCHAR
STARTCHAR germandbls
ENCODING 223
SWIDTH 521 0
DWIDTH 7 0
BBX 7 11 0 0
BITMAP
03CE9000
0C82D500
0F20B700
1F20E400
1F25D000
1F26D000
1F21E800
1F203E50
1F2009A0
1F241B80
1F3CEB10
ENDCHAR
STARTCHAR agrave
ENCODING 224
SWIDTH 479 0
DWIDTH 7 0
BBX 6 11 0 0
BITMAP
03E500
005C00
000000
03CEB1
0E71B9
02007B
03CFFB
0E817B
3F007B
1F53DC
07EC8E
ENDCHAR
STARTCHAR aacute
ENCODING 225
SWIDTH 479 0
DWIDTH 7 0
BBX 6 11 0 0
BITMAP
0005E3
001C40
000000
03CEB1
0E71B9
02007B
03CFFB
0E817B
3F007B
1F53DC
07EC8E
ENDCHAR
STARTCHAR acircumflex
ENCODING 226
SWIDTH 479 0
DWIDTH 7 0
BBX 6 11 0 0
BITMAP
006E50
01C3C1
000000
03CEB1
0E71B9
02007B
03CFFB
0E817B
3F007B
1F53DC
07EC8E
ENDCHAR
STARTCHAR atilde
ENCODING 227
SWIDTH 479 0
DWIDTH 7 0
BBX 6 11 0 0
BITMAP
03E767
0858D2
000000
03CEB1
0E71B9
02007B
03CFFB
0E817B
3F007B
1F53DC
07EC8E
ENDCHAR
STARTCHAR adieresis
ENCODING 228
SWIDTH 479 0
DWIDTH 7 0
BBX 6 11 0 0
BITMAP
033033
089098
000000
03CEB1
0E71B9
02007B
03CFFB
0E817B
3F007B
1F53DC
07EC8E
ENDCHAR
STARTCHAR aring
ENCODING 229
SWIDTH 479 0
DWIDTH 7 0
BBX 6 12 0 0
BITMAP
007970
00B0B0
008A70
000000
03CEB1
0E71B9
02007B
03CFFB
0E817B
3F007B
1F53DC
07EC8E
ENDCHAR
STARTCHAR ae
ENCODING 230
SWIDTH 728 0
DWIDTH 10 0
BBX 10 8 0 0
BITMAP
06DE94DE80
2F52DF42D5
0200AA0099
07DFFFFFFA
3F40990000
6C009C0000
4E24EF6154
09ED54DEB3
ENDCHAR
STARTCHAR ccedilla
ENCODING 231
SWIDTH 461 0
DWIDTH 6 0
BBX 6 11 0 -3
BITMAP
03CEB2
0D719A
3E003B
5D0000
5D0000
3E0028
0D719A
03CEB1
004900
000940
005D30
ENDCHAR
STARTCHAR egrave
ENCODING 232
SWIDTH 468 0
DWIDTH 7 0
BBX 6 11 0 0
BITMAP
05E400
006B00
000000
02CEB2
0D71AA
3E004E
5FFFFF
5E1111
3F1000
0D8149
03CFD5
ENDCHAR
STARTCHAR eacute
ENCODING 233
SWIDTH 468 0
DWIDTH 7 0
BBX 6 11 0 0
BITMAP
0007E2
001C30
000000
02CEB2
0D71AA
3E004E
5FFFFF
5E1111
3F1000
0D8149
03CFD5
ENDCHAR
STARTCHAR ecircumflex
ENCODING 234
SWIDTH 468 0
DWIDTH 7 0
BBX 6 11 0 0
BITMAP
007E40
02C3B0
000000
02CEB2
0D71AA
3E004E
5FFFFF
5E1111
3F1000
0D8149
03CFD5
ENDCHAR
STARTCHAR edieresis
ENCODING 235
SWIDTH 468 0
DWIDTH 7 0
BBX 6 11 0 0
BITMAP
032042
0A80B7
000000
02CEB2
0D71AA
3E004E
5FFFFF
5E1111
3F1000
0D8149
03CFD5
ENDCHAR
STARTCHAR igrave
ENCODING 236
SWIDTH 234 0
DWIDTH 3 0
BBX 4 11 -1 0
BITMAP
2E70
03D2
0000
00F3
00F3
00F3
00F3
00F3
00F3
00F3
00F3
ENDCHAR
STARTCHAR iacute
ENCODING 237
SWIDTH 234 0
DWIDTH 3 0
BBX 3 11 1 0
BITMAP
3E50
A600
0000
F300
F300
F300
F300
F300
F300
F300
F300
ENDCHAR
STARTCHAR icircumflex
ENCODING 238
SWIDTH 234 0
DWIDTH 3 0
BBX 4 11 0 0
BITMAP
4E70
B3C2
0000
0F30
0F30
0F30
0F30
0F30
0F30
0F30
0F30
ENDCHAR
STARTCHAR idieresis
ENCODING 239
SWIDTH 234 0
DWIDTH 3 0
BBX 5 11 -1 0
BITMAP
240240
6C07B0
000000
00F300
00F300
00F300
00F300
00F300
00F300
00F300
00F300
ENDCHAR
STARTCHAR eth
ENCODING 240
SWIDTH 513 0
DWIDTH 7 0
BBX 7 11 0 0
BITMAP
04B41400
018FD500
004DF300
00519B00
02BEBF10
0BB26F30
1F300E40
2F100E40
1F201F20
0BA29B00
01BEB200
ENDCHAR
STARTCHAR ntilde
ENCODING 241
SWIDTH 483 0
DWIDTH 7 0
BBX 6 11 0 0
BITMAP
03E676
0949D2
000000
1F7ED3
1FA2AA
1F206C
1F205D
1F205D
1F205D
1F205D
1F205D
ENDCHAR
STARTCHAR ograve
ENCODING 242
SWIDTH 501 0
DWIDTH 7 0
BBX 7 11 0 0
BITMAP
04E50000
005B0000
00000000
02BEB200
0C929D00
3F101F30
5D000D50
5D000D50
3F100E30
0D817D00
02BEC200
ENDCHAR
STARTCHAR oacute
ENCODING 243
SWIDTH 501 0
DWIDTH 7 0
BBX 7 11 0 0
BITMAP
0006E300
001C4000
00000000
02BEB200
0C929D00
3F101F30
5D000D50
5D000D50
3F100E30
0D817D00
02BEC200
ENDCHAR
STARTCHAR ocircumflex
ENCODING 244
SWIDTH 501 0
DWIDTH 7 0
BBX 7 11 0 0
BITMAP
006E5000
02C3C100
00000000
02BEB200
0C929D00
3F101F30
5D000D50
5D000D50
3F100E30
0D817D00
02BEC200
ENDCHAR
STARTCHAR otilde
ENCODING 245
SWIDTH 501 0
DWIDTH 7 0
BBX 7 11 0 0
BITMAP
03E67700
0858D200
00000000
02BEB200
0C929D00
3F101F30
5D000D50
5D000D50
3F100E30
0D817D00
02BEC200
ENDCHAR
STARTCHAR odieresis
ENCODING 246
SWIDTH 501 0
DWIDTH 7 0
BBX 7 11 0 0
BITMAP
03303200
0990A800
00000000
02BEB200
0C929D00
3F101F30
5D000D50
5D000D50
3F100E30
0D817D00
02BEC200
ENDCHAR
STARTCHAR divide
ENCODING 247
SWIDTH 500 0
DWIDTH 7 0
BBX 7 8 0 0
BITMAP
002C1000
00170000
00000000
7FFFFF40
24444410
00030000
003F1000
00020000
ENDCHAR
STARTCHAR oslash
ENCODING 248
SWIDTH 498 0
DWIDTH 7 0
BBX 7 10 0 -1
BITMAP
00001800
02BFD600
0B92EC00
2F139F30
4E092D50
5E1B0E50
2F851F20
0CE29B00
05DEC200
07200000
ENDCHAR
STARTCHAR ugrave
ENCODING 249
SWIDTH 483 0
DWIDTH 7 0
BBX 6 11 0 0
BITMAP
05E400
006B00
000000
2F105D
2F105D
2F105D
2F105D
2F105D
1F205D
0E72CD
05ED9D
ENDCHAR
STARTCHAR uacute
ENCODING 250
SWIDTH 483 0
DWIDTH 7 0
BBX 6 11 0 0
BITMAP
0007E2
001C30
000000
2F105D
2F105D
2F105D
2F105D
2F105D
1F205D
0E72CD
05ED9D
ENDCHAR
STARTCHAR ucircumflex
ENCODING 251
SWIDTH 483 0
DWIDTH 7 0
BBX 6 11 0 0
BITMAP
007E40
02C3B0
000000
2F105D
2F105D
2F105D
2F105D
2F105D
1F205D
0E72CD
05ED9D
ENDCHAR
STARTCHAR udieresis
ENCODING 252
SWIDTH 483 0
DWIDTH 7 0
BBX 6 11 0 0
BITMAP
032042
0A80B7
000000
2F105D
2F105D
2F105D
2F105D
2F105D
1F205D
0E72CD
05ED9D
ENDCHAR
STARTCHAR yacute
ENCODING 253
SWIDTH 416 0
DWIDTH 6 0
BBX 6 14 0 -3
BITMAP
000BB0
005B10
000000
9A00D6
5E01F2
1F25D0
0C6890
08AC50
04EF10
00EC00
00A800
00C400
15E000
5E4000
ENDCHAR
STARTCHAR thorn
ENCODING 254
SWIDTH 508 0
DWIDTH 7 0
BBX 6 14 1 -3
BITMAP
F30000
F30000
F30000
F9ED30
FA2AC0
F301F2
F300E4
F300E4
F301F2
F929C0
F9ED30
F30000
F30000
F30000
ENDCHAR
STARTCHAR ydieresis
ENCODING 255
SWIDTH 416 0
DWIDTH 6 0
BBX 6 14 0 -3
BITMAP
051050
1E32E2
000000
9A00D6
5E01F2
1F25D0
0C6890
08AC50
04EF10
00EC00
00A800
00C400
15E000
5E4000
ENDCHAR
STARTCHAR Amacron
ENCODING 256
SWIDTH 576 0
DWIDTH 8 0
BBX 8 12 0 0
BITMAP
00DFFF10
00000000
000AB000
000EF100
005CB600
00976B00
00E21E10
04D00C50
09FFFFA0
0D4113E0
3E0000E5
8B0000A9
ENDCHAR
STARTCHAR amacron
ENCODING 257
SWIDTH 479 0
DWIDTH 7 0
BBX 6 10 0 0
BITMAP
07FFF8
000000
03CEB1
0E71B9
02007B
03CFFB
0E817B
3F007B
1F53DC
07EC8E
ENDCHAR
STARTCHAR Abreve
ENCODING 258
SWIDTH 576 0
DWIDTH 8 0
BBX 8 13 0 0
BITMAP
00D42E10
005DE600
00000000
000AB000
000EF100
005CB600
00976B00
00E21E10
04D00C50
09FFFFA0
0D4113E0
3E0000E5
8B0000A9
ENDCHAR
STARTCHAR abreve
ENCODING 259
SWIDTH 479 0
DWIDTH 7 0
BBX 6 11 0 0
BITMAP
07A1A7
01BEB1
000000
03CEB1
0E71B9
02007B
03CFFB
0E817B
3F007B
1F53DC
07EC8E
ENDCHAR
STARTCHAR Aogonek
ENCODING 260
SWIDTH 576 0
DWIDTH 8 0
BBX 8 13 0 -3
BITMAP
000AB000
000EF100
005CB600
00976B00
00E21E10
04D00C50
09FFFFA0
0D4113E0
3E0000E5
8B0000A9
000001C2
000006A1
000003E8
ENDCHAR
STARTCHAR aogonek
ENCODING 261
SWIDTH 479 0
DWIDTH 7 0
BBX 6 11 0 -3
BITMAP
03CEB1
0E71B9
02007B
03CFFB
0E817B
3F007B
1F53DC
07EC8E
0000B4
0003D1
0001DB
ENDCHAR
STARTCHAR Cacute
ENCODING 262
SWIDTH 566 0
DWIDTH 8 0
BBX 8 13 0 0
BITMAP
0000BB00
0005B100
00000000
008EEB20
07D42AC0
0E6002F2
1F300051
2F200000
2F200000
1F200041
0E5001F2
07D329C0
008EEA20
ENDCHAR
STARTCHAR cacute
ENCODING 263
SWIDTH 461 0
DWIDTH 6 0
BBX 6 11 0 0
BITMAP
000AC1
003C10
000000
03CEB2
0D719A
3E003B
5D0000
5D0000
3E0028
0D719A
03CEB1
ENDCHAR
STARTCHAR Ccircumflex
ENCODING 264
SWIDTH 566 0
DWIDTH 8 0
BBX 8 13 0 0
BITMAP
001BC100
00687700
00000000
008EEB20
07D42AC0
0E6002F2
1F300051
2F200000
2F200000
1F200041
0E5001F2
07D329C0
008EEA20
ENDCHAR
STARTCHAR ccircumflex
ENCODING 265
SWIDTH 461 0
DWIDTH 6 0
BBX 6 11 0 0
BITMAP
00AD20
05A590
000000
03CEB2
0D719A
3E003B
5D0000
5D0000
3E0028
0D719A
03CEB1
ENDCHAR
STARTCHAR Cdotaccent
ENCODING 266
SWIDTH 566 0
DWIDTH 8 0
BBX 8 13 0 0
BITMAP
00033000
00089000
00000000
008EEB20
07D42AC0
0E6002F2
1F300051
2F200000
2F200000
1F200041
0E5001F2
07D329C0
008EEA20
ENDCHAR
STARTCHAR cdotaccent
ENCODING 267
SWIDTH 461 0
DWIDTH 6 0
BBX 6 11 0 0
BITMAP
002400
006B00
000000
03CEB2
0D719A
3E003B
5D0000
5D0000
3E0028
0D719A
03CEB1
ENDCHAR
STARTCHAR Ccaron
ENCODING 268
SWIDTH 566 0
DWIDTH 8 0
BBX 8 13 0 0
BITMAP
00787800
000BB000
00000000
008EEB20
07D42AC0
0E6002F2
1F300051
2F200000
2F200000
1F200041
0E5001F2
07D329C0
008EEA20
ENDCHAR
STARTCHAR ccaron
ENCODING 269
SWIDTH 461 0
DWIDTH 6 0
BBX 6 11 0 0
BITMAP
05A5A0
009C10
000000
03CEB2
0D719A
3E003B
5D0000
5D0000
3E0028
0D719A
03CEB1
ENDCHAR
STARTCHAR Dcaron
ENCODING 270
SWIDTH 570 0
DWIDTH 8 0
BBX 7 13 1 0
BITMAP
1C3C3000
02E60000
00000000
EFFD6000
E625E500
E5006D00
E5003F00
E5002F20
E5002F20
E5003F00
E5006D00
E625E500
EFFD6000
ENDCHAR
STARTCHAR dcaron
ENCODING 271
SWIDTH 569 0
DWIDTH 8 0
BBX 8 11 0 0
BITMAP
00003F4D
00003F6B
00003F75
04DE9F00
0E82AF00
3E003F00
5D003F00
5D003F00
3E003F00
0E72AF00
04DE8F00
ENDCHAR
STARTCHAR Dcroat
ENCODING 272
SWIDTH 585 0
DWIDTH 8 0
BBX 8 10 0 0
BITMAP
0BFFE800
0B914C90
0B8003F1
0B8000F3
DFFC00E5
0B8000E5
0B8000F4
0B8003F1
0B914D90
0BFFD800
ENDCHAR
STARTCHAR dcroat
ENCODING 273
SWIDTH 529 0
DWIDTH 7 0
BBX 8 11 0 0
BITMAP
00003F00
0009FFF1
00004F00
03DE9F00
0D92AF00
3F103F00
4E003F00
5D003F00
3F103F00
0D92AF00
03DEAF00
ENDCHAR
STARTCHAR Emacron
ENCODING 274
SWIDTH 496 0
DWIDTH 7 0
BBX 6 12 1 0
BITMAP
4FFFB0
000000
EFFFF5
E61110
E50000
E50000
EFFFD0
E61110
E50000
E50000
E61110
EFFFF6
ENDCHAR
STARTCHAR emacron
ENCODING 275
SWIDTH 468 0
DWIDTH 7 0
BBX 6 10 0 0
BITMAP
09FFF6
000000
02CEB2
0D71AA
3E004E
5FFFFF
5E1111
3F1000
0D8149
03CFD5
ENDCHAR
STARTCHAR Ebreve
ENCODING 276
SWIDTH 496 0
DWIDTH 7 0
BBX 6 13 1 0
BITMAP
4D17A0
09EC20
000000
EFFFF5
E61110
E50000
E50000
EFFFD0
E61110
E50000
E50000
E61110
EFFFF6
ENDCHAR
STARTCHAR ebreve
ENCODING 277
SWIDTH 468 0
DWIDTH 7 0
BBX 6 11 0 0
BITMAP
0991C5
02CEA0
000000
02CEB2
0D71AA
3E004E
5FFFFF
5E1111
3F1000
0D8149
03CFD5
ENDCHAR
STARTCHAR Edotaccent
ENCODING 278
SWIDTH 496 0
DWIDTH 7 0
BBX 6 13 1 0
BITMAP
005100
00D500
000000
EFFFF5
E61110
E50000
E50000
EFFFD0
E61110
E50000
E50000
E61110
EFFFF6
ENDCHAR
STARTCHAR edotaccent
ENCODING 279
SWIDTH 468 0
DWIDTH 7 0
BBX 6 11 0 0
BITMAP
001500
003E10
000000
02CEB2
0D71AA
3E004E
5FFFFF
5E1111
3F1000
0D8149
03CFD5
ENDCHAR
STARTCHAR Eogonek
ENCODING 280
SWIDTH 496 0
DWIDTH 7 0
BBX 6 13 1 -3
BITMAP
EFFFF5
E61110
E50000
E50000
EFFFD0
E61110
E50000
E50000
E61110
EFFFF6
000880
000E30
000BE1
ENDCHAR
STARTCHAR eogonek
ENCODING 281
SWIDTH 468 0
DWIDTH 7 0
BBX 6 11 0 -3
BITMAP
02CEB2
0D71AA
3E004E
5FFFFF
5E1111
3F1000
0D8149
03CFD5
000D20
003D10
001DB0
ENDCHAR
STARTCHAR Ecaron
ENCODING 282
SWIDTH 496 0
DWIDTH 7 0
BBX 6 13 1 0
BITMAP
0C4C30
02E700
000000
EFFFF5
E61110
E50000
E50000
EFFFD0
E61110
E50000
E50000
E61110
EFFFF6
ENDCHAR
STARTCHAR ecaron
ENCODING 283
SWIDTH 468 0
DWIDTH 7 0
BBX 6 11 0 0
BITMAP
03C3C1
006E30
000000
02CEB2
0D71AA
3E004E
5FFFFF
5E1111
3F1000
0D8149
03CFD5
ENDCHAR
STARTCHAR Gcircumflex
ENCODING 284
SWIDTH 590 0
DWIDTH 8 0
BBX 8 13 0 0
BITMAP
001CB100
00778600
00000000
019EEB20
09D32AD0
0E5001F3
2F200010
2F200000
2F20CFF4
1F3011E4
0E6000E4
07D425F4
008EFD60
ENDCHAR
STARTCHAR gcircumflex
ENCODING 285
SWIDTH 492 0
DWIDTH 7 0
BBX 6 14 0 -3
BITMAP
008E30
03B4B0
000000
04DE7F
0E82AF
3F003F
5D003F
5D003F
3F003F
0E72AF
04DE9F
00004E
0841AA
05DEB2
ENDCHAR
STARTCHAR Gbreve
ENCODING 286
SWIDTH 590 0
DWIDTH 8 0
BBX 8 13 0 0
BITMAP
00F33E00
006EE500
00000000
019EEB20
09D32AD0
0E5001F3
2F200010
2F200000
2F20CFF4
1F3011E4
0E6000E4
07D425F4
008EFD60
ENDCHAR
STARTCHAR gbreve
ENCODING 287
SWIDTH 492 0
DWIDTH 7 0
BBX 6 14 0 -3
BITMAP
0A81C4
02CE90
000000
04DE7F
0E82AF
3F003F
5D003F
5D003F
3F003F
0E72AF
04DE9F
00004E
0841AA
05DEB2
ENDCHAR
STARTCHAR Gdotaccent
ENCODING 288
SWIDTH 590 0
DWIDTH 8 0
BBX 8 13 0 0
BITMAP
00033000
00098000
00000000
019EEB20
09D32AD0
0E5001F3
2F200010
2F200000
2F20CFF4
1F3011E4
0E6000E4
07D425F4
008EFD60
ENDCHAR
STARTCHAR gdotaccent
ENCODING 289
SWIDTH 492 0
DWIDTH 7 0
BBX 6 14 0 -3
BITMAP
001500
004D00
000000
04DE7F
0E82AF
3F003F
5D003F
5D003F
3F003F
0E72AF
04DE9F
00004E
0841AA
05DEB2
ENDCHAR
STARTCHAR uni0122
ENCODING 290
SWIDTH 590 0
DWIDTH 8 0
BBX 8 14 0 -4
BITMAP
019EEB20
09D32AD0
0E5001F3
2F200010
2F200000
2F20CFF4
1F3011E4
0E6000E4
07D425F4
008EFD60
00000000
0004D000
0006B000
00075000
ENDCHAR
STARTCHAR uni0123
ENCODING 291
SWIDTH 492 0
DWIDTH 7 0
BBX 6 15 0 -3
BITMAP
000A10
003E00
005D00
000000
04DE7F
0E82AF
3F003F
5D003F
5D003F
3F003F
0E72AF
04DE9F
00004E
0841AA
05DEB2
ENDCHAR
STARTCHAR Hcircumflex
ENCODING 292
SWIDTH 620 0
DWIDTH 9 0
BBX 7 13 1 0
BITMAP
009D2000
04A5A000
00000000
E5000A90
E5000A90
E5000A90
E5000A90
EFFFFF90
E6111A90
E5000A90
E5000A90
E5000A90
E5000A90
ENDCHAR
STARTCHAR hcircumflex
ENCODING 293
SWIDTH 482 0
DWIDTH 7 0
BBX 6 14 0 0
BITMAP
01CC10
078770
000000
1F2000
1F2000
1F2000
1F8ED3
1FA2AA
1F206C
1F205D
1F205D
1F205D
1F205D
1F205D
ENDCHAR
STARTCHAR Hbar
ENCODING 294
SWIDTH 611 0
DWIDTH 9 0
BBX 9 10 0 0
BITMAP
0E5000A900
0E5000A900
AFFFFFFF50
0E5000A900
0EFFFFF900
0E6111A900
0E5000A900
0E5000A900
0E5000A900
0E5000A900
ENDCHAR
STARTCHAR hbar
ENCODING 295
SWIDTH 497 0
DWIDTH 7 0
BBX 8 11 -1 0
BITMAP
00D50000
2FFF9000
00D50000
00D8DE50
00DC28D0
00D502F1
00D502F1
00D502F1
00D502F1
00D502F1
00D502F1
ENDCHAR
STARTCHAR Itilde
ENCODING 296
SWIDTH 250 0
DWIDTH 4 0
BBX 5 14 -1 0
BITMAP
000010
0CA3B0
495E50
000000
00D600
00D600
00D600
00D600
00D600
00D600
00D600
00D600
00D600
00D600
ENDCHAR
STARTCHAR itilde
ENCODING 297
SWIDTH 234 0
DWIDTH 3 0
BBX 5 12 -1 0
BITMAP
000010
1D94A0
576E40
000000
00F300
00F300
00F300
00F300
00F300
00F300
00F300
00F300
ENDCHAR
STARTCHAR Imacron
ENCODING 298
SWIDTH 250 0
DWIDTH 4 0
BBX 5 12 -1 0
BITMAP
3FFFC0
000000
00D600
00D600
00D600
00D600
00D600
00D600
00D600
00D600
00D600
00D600
ENDCHAR
STARTCHAR imacron
ENCODING 299
SWIDTH 234 0
DWIDTH 3 0
BBX 5 10 -1 0
BITMAP
5FFFA0
000000
00F300
00F300
00F300
00F300
00F300
00F300
00F300
00F300
ENDCHAR
STARTCHAR Ibreve
ENCODING 300
SWIDTH 250 0
DWIDTH 4 0
BBX 5 13 -1 0
BITMAP
3E16B0
08ED30
000000
00D600
00D600
00D600
00D600
00D600
00D600
00D600
00D600
00D600
00D600
ENDCHAR
STARTCHAR ibreve
ENCODING 301
SWIDTH 234 0
DWIDTH 3 0
BBX 5 11 -1 0
BITMAP
5C1890
0AEC20
000000
00F300
00F300
00F300
00F300
00F300
00F300
00F300
00F300
ENDCHAR
STARTCHAR Iogonek
ENCODING 302
SWIDTH 250 0
DWIDTH 4 0
BBX 3 13 0 -3
BITMAP
0D60
0D60
0D60
0D60
0D60
0D60
0D60
0D60
0D60
0F60
5B00
B610
7E40
ENDCHAR
STARTCHAR iogonek
ENCODING 303
SWIDTH 229 0
DWIDTH 3 0
BBX 3 14 0 -3
BITMAP
0510
0D30
0000
0F30
0F30
0F30
0F30
0F30
0F30
0F30
0F30
7900
D400
9E20
ENDCHAR
STARTCHAR Idotaccent
ENCODING 304
SWIDTH 250 0
DWIDTH 4 0
BBX 2 13 1 0
BITMAP
51
C5
00
D6
D6
D6
D6
D6
D6
D6
D6
D6
D6
ENDCHAR
STARTCHAR dotlessi
ENCODING 305
SWIDTH 234 0
DWIDTH 3 0
BBX 2 8 1 0
BITMAP
F3
F3
F3
F3
F3
F3
F3
F3
ENDCHAR
STARTCHAR IJ
ENCODING 306
SWIDTH 733 0
DWIDTH 10 0
BBX 9 10 1 0
BITMAP
D600000F40
D600000F40
D600000F40
D600000F40
D600000F40
D600000F40
D600000F40
D60D301F30
D60CA28D00
D602BEC300
ENDCHAR
STARTCHAR ij
ENCODING 307
SWIDTH 452 0
DWIDTH 6 0
BBX 5 14 1 -3
BITMAP
510510
D30C40
000000
F30D50
F30D50
F30D50
F30D50
F30D50
F30D50
F30D50
F30D50
000D50
002E40
00EB00
ENDCHAR
STARTCHAR Jcircumflex
ENCODING 308
SWIDTH 483 0
DWIDTH 7 0
BBX 7 13 0 0
BITMAP
0001CB10
00077860
00000000
00008C00
00008C00
00008C00
00008C00
00008C00
00008C00
00008B00
7A009A00
4E43E600
07EE9000
ENDCHAR
STARTCHAR jcircumflex
ENCODING 309
SWIDTH 237 0
DWIDTH 3 0
BBX 5 14 -1 -3
BITMAP
03E900
0B4B30
000000
00D500
00D500
00D500
00D500
00D500
00D500
00D500
00D500
00E400
02F200
2E9000
ENDCHAR
STARTCHAR uni0136
ENCODING 310
SWIDTH 544 0
DWIDTH 8 0
BBX 7 14 1 -4
BITMAP
E5008D10
E504F400
E51D7000
E5AB0000
EBF40000
EFBC0000
E71E6000
E506E100
E500CA00
E5003F40
00000000
00980000
00B50000
00B10000
ENDCHAR
STARTCHAR uni0137
ENCODING 311
SWIDTH 450 0
DWIDTH 6 0
BBX 6 15 0 -4
BITMAP
1F2000
1F2000
1F2000
1F21D8
1F28C0
1F5E20
1FDA00
1FCF30
1F2AB0
1F22F5
1F208D
000000
006B00
008900
009300
ENDCHAR
STARTCHAR kgreenlandic
ENCODING 312
SWIDTH 491 0
DWIDTH 7 0
BBX 6 8 1 0
BITMAP
F307E1
F31E60
F38C00
F5E300
FFD000
F5D800
F33F40
F307E2
ENDCHAR
STARTCHAR Lacute
ENCODING 313
SWIDTH 475 0
DWIDTH 7 0
BBX 6 13 1 0
BITMAP
3E6000
A70000
000000
E50000
E50000
E50000
E50000
E50000
E50000
E50000
E50000
E61110
EFFFF4
ENDCHAR
STARTCHAR lacute
ENCODING 314
SWIDTH 229 0
DWIDTH 3 0
BBX 3 14 1 0
BITMAP
4E50
B600
0000
F300
F300
F300
F300
F300
F300
F300
F300
F300
F300
F300
ENDCHAR
STARTCHAR uni013B
ENCODING 315
SWIDTH 475 0
DWIDTH 7 0
BBX 6 14 1 -4
BITMAP
E50000
E50000
E50000
E50000
E50000
E50000
E50000
E50000
E61110
EFFFF4
000000
00D400
00F100
02A000
ENDCHAR
STARTCHAR uni013C
ENCODING 316
SWIDTH 229 0
DWIDTH 3 0
BBX 3 15 0 -4
BITMAP
0F30
0F30
0F30
0F30
0F30
0F30
0F30
0F30
0F30
0F30
0F30
0000
0F30
1F00
3900
ENDCHAR
STARTCHAR Lcaron
ENCODING 317
SWIDTH 475 0
DWIDTH 7 0
BBX 6 10 1 0
BITMAP
E53E00
E55C00
E56600
E50000
E50000
E50000
E50000
E50000
E61110
EFFFF4
ENDCHAR
STARTCHAR lcaron
ENCODING 318
SWIDTH 302 0
DWIDTH 4 0
BBX 4 11 1 0
BITMAP
F3D4
F3F1
F5A0
F300
F300
F300
F300
F300
F300
F300
F300
ENDCHAR
STARTCHAR Ldot
ENCODING 319
SWIDTH 475 0
DWIDTH 7 0
BBX 6 10 1 0
BITMAP
E50000
E50000
E50000
E52400
E56C00
E50000
E50000
E50000
E61110
EFFFF4
ENDCHAR
STARTCHAR ldot
ENCODING 320
SWIDTH 336 0
DWIDTH 5 0
BBX 4 11 1 0
BITMAP
F300
F300
F300
F300
F350
F5E3
F300
F300
F300
F300
F300
ENDCHAR
STARTCHAR Lslash
ENCODING 321
SWIDTH 475 0
DWIDTH 7 0
BBX 7 10 0 0
BITMAP
0E500000
0E500000
0E500000
0E500000
0EBA0000
8F920000
2E500000
0E500000
0E611100
0EFFFF40
ENDCHAR
STARTCHAR lslash
ENCODING 322
SWIDTH 250 0
DWIDTH 4 0
BBX 4 11 0 0
BITMAP
0E50
0E50
0E50
0E50
0ED2
9F70
1E50
0E50
0E50
0E50
0E50
ENDCHAR
STARTCHAR Nacute
ENCODING 323
SWIDTH 619 0
DWIDTH 9 0
BBX 7 13 1 0
BITMAP
0008D200
002C2000
00000000
E9000A90
EF200A90
ED900A90
E6E20A90
E58A0A90
E51E3A90
E508AA90
E501ED90
E5007F90
E5001E90
ENDCHAR
STARTCHAR nacute
ENCODING 324
SWIDTH 483 0
DWIDTH 7 0
BBX 6 11 0 0
BITMAP
0006E3
001C30
000000
1F7ED3
1FA2AA
1F206C
1F205D
1F205D
1F205D
1F205D
1F205D
ENDCHAR
STARTCHAR uni0145
ENCODING 325
SWIDTH 619 0
DWIDTH 9 0
BBX 7 14 1 -4
BITMAP
E9000A90
EF200A90
ED900A90
E6E20A90
E58A0A90
E51E3A90
E508AA90
E501ED90
E5007F90
E5001E90
00000000
005C0000
007A0000
00840000
ENDCHAR
STARTCHAR uni0146
ENCODING 326
SWIDTH 483 0
DWIDTH 7 0
BBX 6 12 0 -4
BITMAP
1F7ED3
1FA2AA
1F206C
1F205D
1F205D
1F205D
1F205D
1F205D
000000
004E00
005B00
007600
ENDCHAR
STARTCHAR Ncaron
ENCODING 327
SWIDTH 619 0
DWIDTH 9 0
BBX 7 13 1 0
BITMAP
03C4C000
007D2000
00000000
E9000A90
EF200A90
ED900A90
E6E20A90
E58A0A90
E51E3A90
E508AA90
E501ED90
E5007F90
E5001E90
ENDCHAR
STARTCHAR ncaron
ENCODING 328
SWIDTH 483 0
DWIDTH 7 0
BBX 6 11 0 0
BITMAP
02C3C1
005E30
000000
1F7ED3
1FA2AA
1F206C
1F205D
1F205D
1F205D
1F205D
1F205D
ENDCHAR
STARTCHAR napostrophe
ENCODING 329
SWIDTH 483 0
DWIDTH 7 0
BBX 7 10 -1 0
BITMAP
0D400000
0E200000
2CF7ED30
01FA2AA0
01F206C0
01F205D0
01F205D0
01F205D0
01F205D0
01F205D0
ENDCHAR
STARTCHAR Eng
ENCODING 330
SWIDTH 599 0
DWIDTH 8 0
BBX 7 13 1 -3
BITMAP
F8000D60
FE100D60
FE900D60
F7F20D60
F4A90D60
F43F2D60
F40A9D60
F402FE60
F4009F60
F4002F60
00000D60
00002E40
0002EA00
ENDCHAR
STARTCHAR eng
ENCODING 331
SWIDTH 498 0
DWIDTH 7 0
BBX 6 11 0 -3
BITMAP
1F6ED3
1F82AB
1F204E
1F203F
1F203F
1F203F
1F203F
1F203F
00003F
00017D
0007E5
ENDCHAR
STARTCHAR Omacron
ENCODING 332
SWIDTH 600 0
DWIDTH 8 0
BBX 8 12 0 0
BITMAP
00BFFF40
00000000
008EFB20
07E53AD0
0D6000E5
1F2000C7
2F1000B8
2F1000B8
1F2000B7
0E6000E5
07D439D0
008EFB20
ENDCHAR
STARTCHAR omacron
ENCODING 333
SWIDTH 501 0
DWIDTH 7 0
BBX 7 10 0 0
BITMAP
08FFF700
00000000
02BEB200
0C929D00
3F101F30
5D000D50
5D000D50
3F100E30
0D817D00
02BEC200
ENDCHAR
STARTCHAR Obreve
ENCODING 334
SWIDTH 600 0
DWIDTH 8 0
BBX 8 13 0 0
BITMAP
00B71D30
003DE800
00000000
008EFB20
07E53AD0
0D6000E5
1F2000C7
2F1000B8
2F1000B8
1F2000B7
0E6000E5
07D439D0
008EFB20
ENDCHAR
STARTCHAR obreve
ENCODING 335
SWIDTH 501 0
DWIDTH 7 0
BBX 7 11 0 0
BITMAP
08A1B600
01BEB100
00000000
02BEB200
0C929D00
3F101F30
5D000D50
5D000D50
3F100E30
0D817D00
02BEC200
ENDCHAR
STARTCHAR Ohungarumlaut
ENCODING 336
SWIDTH 600 0
DWIDTH 8 0
BBX 8 13 0 0
BITMAP
000A9B90
001C5B00
00000000
008EFB20
07E53AD0
0D6000E5
1F2000C7
2F1000B8
2F1000B8
1F2000B7
0E6000E5
07D439D0
008EFB20
ENDCHAR
STARTCHAR ohungarumlaut
ENCODING 337
SWIDTH 501 0
DWIDTH 7 0
BBX 7 11 0 0
BITMAP
007C8C00
00B5C200
00000000
02BEB200
0C929D00
3F101F30
5D000D50
5D000D50
3F100E30
0D817D00
02BEC200
ENDCHAR
STARTCHAR OE
ENCODING 338
SWIDTH 826 0
DWIDTH 12 0
BBX 11 10 0 0
BITMAP
009EFFFFFF60
09B21D611100
1F300D600000
4F000D600000
4E000DFFFD00
4E000D611100
4F000D600000
1F300D600000
09B21D611110
009EFFFFFF70
ENDCHAR
STARTCHAR oe
ENCODING 339
SWIDTH 777 0
DWIDTH 11 0
BBX 11 8 0 0
BITMAP
02BFB27ED400
0B92ADD35E10
2F202F700E40
4E000FFFFF50
4E000F611100
2F102F800000
0B92ADE32800
02CFB27EE900
ENDCHAR
STARTCHAR Racute
ENCODING 340
SWIDTH 530 0
DWIDTH 7 0
BBX 7 13 1 0
BITMAP
003E5000
00A60000
00000000
EFFE9000
E613D700
E5008B00
E5007C00
E503D700
EFFFA000
E61B9000
E504F100
E500C800
E5006E10
ENDCHAR
STARTCHAR racute
ENCODING 341
SWIDTH 304 0
DWIDTH 4 0
BBX 5 11 0 0
BITMAP
005E30
01C400
000000
1F9D00
1FA400
1F2000
1F2000
1F2000
1F2000
1F2000
1F2000
ENDCHAR
STARTCHAR uni0156
ENCODING 342
SWIDTH 530 0
DWIDTH 7 0
BBX 7 14 1 -4
BITMAP
EFFE9000
E613D700
E5008B00
E5007C00
E503D700
EFFFA000
E61B9000
E504F100
E500C800
E5006E10
00000000
00E30000
01F10000
03900000
ENDCHAR
STARTCHAR uni0157
ENCODING 343
SWIDTH 304 0
DWIDTH 4 0
BBX 4 12 0 -4
BITMAP
1F9D
1FA4
1F20
1F20
1F20
1F20
1F20
1F20
0000
0F20
2F00
3900
ENDCHAR
STARTCHAR Rcaron
ENCODING 344
SWIDTH 530 0
DWIDTH 7 0
BBX 7 13 1 0
BITMAP
1C3C3000
02E60000
00000000
EFFE9000
E613D700
E5008B00
E5007C00
E503D700
EFFFA000
E61B9000
E504F100
E500C800
E5006E10
ENDCHAR
STARTCHAR rcaron
ENCODING 345
SWIDTH 304 0
DWIDTH 4 0
BBX 5 11 0 0
BITMAP
2D3D10
04E400
000000
1F9D00
1FA400
1F2000
1F2000
1F2000
1F2000
1F2000
1F2000
ENDCHAR
STARTCHAR Sacute
ENCODING 346
SWIDTH 518 0
DWIDTH 7 0
BBX 7 13 0 0
BITMAP
0003E600
000A7000
00000000
02BED600
0D925E40
2F200A90
1E700000
05EC5000
0028EC10
00001D80
5E0009A0
1E824E60
03BFD800
ENDCHAR
STARTCHAR sacute
ENCODING 347
SWIDTH 455 0
DWIDTH 6 0
BBX 6 11 0 0
BITMAP
0006E3
001C30
000000
04DEA0
0E62D7
1F4033
08E810
003BE3
2600AA
2F51B8
05DEB1
ENDCHAR
STARTCHAR Scircumflex
ENCODING 348
SWIDTH 518 0
DWIDTH 7 0
BBX 7 13 0 0
BITMAP
003E8000
00B4B300
00000000
02BED600
0D925E40
2F200A90
1E700000
05EC5000
0028EC10
00001D80
5E0009A0
1E824E60
03BFD800
ENDCHAR
STARTCHAR scircumflex
ENCODING 349
SWIDTH 455 0
DWIDTH 6 0
BBX 6 11 0 0
BITMAP
007E40
02C3C1
000000
04DEA0
0E62D7
1F4033
08E810
003BE3
2600AA
2F51B8
05DEB1
ENDCHAR
STARTCHAR Scedilla
ENCODING 350
SWIDTH 518 0
DWIDTH 7 0
BBX 7 13 0 -3
BITMAP
02BED600
0D925E40
2F200A90
1E700000
05EC5000
0028EC10
00001D80
5E0009A0
1E824E60
03BFD800
000A3000
0002B000
000C9000
ENDCHAR
STARTCHAR scedilla
ENCODING 351
SWIDTH 455 0
DWIDTH 6 0
BBX 6 11 0 -3
BITMAP
04DEA0
0E62D7
1F4033
08E810
003BE3
2600AA
2F51B8
05DEB1
001C00
000670
002E50
ENDCHAR
STARTCHAR Scaron
ENCODING 352
SWIDTH 518 0
DWIDTH 7 0
BBX 7 13 0 0
BITMAP
00C4C300
002E7000
00000000
02BED600
0D925E40
2F200A90
1E700000
05EC5000
0028EC10
00001D80
5E0009A0
1E824E60
03BFD800
ENDCHAR
STARTCHAR scaron
ENCODING 353
SWIDTH 455 0
DWIDTH 6 0
BBX 6 11 0 0
BITMAP
02C3C1
005E30
000000
04DEA0
0E62D7
1F4033
08E810
003BE3
2600AA
2F51B8
05DEB1
ENDCHAR
STARTCHAR uni0162
ENCODING 354
SWIDTH 520 0
DWIDTH 7 0
BBX 7 13 0 -3
BITMAP
9FFFFFD0
111F5110
000F4000
000F4000
000F4000
000F4000
000F4000
000F4000
000F4000
000F4000
000B1000
0003A000
000D8000
ENDCHAR
STARTCHAR uni0163
ENCODING 355
SWIDTH 295 0
DWIDTH 4 0
BBX 4 13 0 -3
BITMAP
0B70
0B70
DFF9
0B70
0B70
0B70
0B70
0B70
0AA1
04E8
00A3
001C
00BA
ENDCHAR
STARTCHAR Tcaron
ENCODING 356
SWIDTH 520 0
DWIDTH 7 0
BBX 7 13 0 0
BITMAP
01C3C300
002E6000
00000000
9FFFFFD0
111F5110
000F4000
000F4000
000F4000
000F4000
000F4000
000F4000
000F4000
000F4000
ENDCHAR
STARTCHAR tcaron
ENCODING 357
SWIDTH 314 0
DWIDTH 4 0
BBX 5 11 0 0
BITMAP
000890
0B7A70
0B7A20
DFF900
0B7000
0B7000
0B7000
0B7000
0B7000
0AA100
04E800
ENDCHAR
STARTCHAR Tbar
ENCODING 358
SWIDTH 520 0
DWIDTH 7 0
BBX 7 10 0 0
BITMAP
9FFFFFD0
111F5110
000F4000
02FFF900
000F4000
000F4000
000F4000
000F4000
000F4000
000F4000
ENDCHAR
STARTCHAR tbar
ENCODING 359
SWIDTH 295 0
DWIDTH 4 0
BBX 4 10 0 0
BITMAP
0B70
0B70
DFF9
0B70
FFFB
0B80
0B70
0B70
09A1
03E8
ENDCHAR
STARTCHAR Utilde
ENCODING 360
SWIDTH 561 0
DWIDTH 8 0
BBX 7 14 0 0
BITMAP
00000100
00AC2D00
01B3D800
00000000
2F2004F0
2F2004F0
2F2004F0
2F2004F0
2F2004F0
2F2004F0
2F2004F0
1F3005E0
0BA22C90
02AEE910
ENDCHAR
STARTCHAR utilde
ENCODING 361
SWIDTH 483 0
DWIDTH 7 0
BBX 6 11 0 0
BITMAP
04E676
0949D1
000000
2F105D
2F105D
2F105D
2F105D
2F105D
1F205D
0E72CD
05ED9D
ENDCHAR
STARTCHAR Umacron
ENCODING 362
SWIDTH 561 0
DWIDTH 8 0
BBX 7 12 0 0
BITMAP
00FFFE00
00000000
2F2004F0
2F2004F0
2F2004F0
2F2004F0
2F2004F0
2F2004F0
2F2004F0
1F3005E0
0BA22C90
02AEE910
ENDCHAR
STARTCHAR umacron
ENCODING 363
SWIDTH 483 0
DWIDTH 7 0
BBX 6 10 0 0
BITMAP
09FFF6
000000
2F105D
2F105D
2F105D
2F105D
2F105D
1F205D
0E72CD
05ED9D
ENDCHAR
STARTCHAR Ubreve
ENCODING 364
SWIDTH 561 0
DWIDTH 8 0
BBX 7 13 0 0
BITMAP
01F24D00
006ED500
00000000
2F2004F0
2F2004F0
2F2004F0
2F2004F0
2F2004F0
2F2004F0
2F2004F0
1F3005E0
0BA22C90
02AEE910
ENDCHAR
STARTCHAR ubreve
ENCODING 365
SWIDTH 483 0
DWIDTH 7 0
BBX 6 11 0 0
BITMAP
0991C5
02CEA0
000000
2F105D
2F105D
2F105D
2F105D
2F105D
1F205D
0E72CD
05ED9D
ENDCHAR
STARTCHAR Uring
ENCODING 366
SWIDTH 561 0
DWIDTH 8 0
BBX 7 14 0 0
BITMAP
002AA100
00735500
003BB100
00000000
2F2004F0
2F2004F0
2F2004F0
2F2004F0
2F2004F0
2F2004F0
2F2004F0
1F3005E0
0BA22C90
02AEE910
ENDCHAR
STARTCHAR uring
ENCODING 367
SWIDTH 483 0
DWIDTH 7 0
BBX 6 12 0 0
BITMAP
009A60
01A0B0
009A60
000000
2F105D
2F105D
2F105D
2F105D
2F105D
1F205D
0E72CD
05ED9D
ENDCHAR
STARTCHAR Uhungarumlaut
ENCODING 368
SWIDTH 561 0
DWIDTH 8 0
BBX 7 13 0 0
BITMAP
001E7E50
004A8800
00000000
2F2004F0
2F2004F0
2F2004F0
2F2004F0
2F2004F0
2F2004F0
2F2004F0
1F3005E0
0BA22C90
02AEE910
ENDCHAR
STARTCHAR uhungarumlaut
ENCODING 369
SWIDTH 483 0
DWIDTH 7 0
BBX 6 11 0 0
BITMAP
008B9B
00B5C1
000000
2F105D
2F105D
2F105D
2F105D
2F105D
1F205D
0E72CD
05ED9D
ENDCHAR
STARTCHAR Uogonek
ENCODING 370
SWIDTH 561 0
DWIDTH 8 0
BBX 7 13 0 -3
BITMAP
2F2004F0
2F2004F0
2F2004F0
2F2004F0
2F2004F0
2F2004F0
2F2004F0
1F3005E0
0BA22CA0
02AEFA10
0004D000
0007A100
0003E800
ENDCHAR
STARTCHAR uogonek
ENCODING 371
SWIDTH 483 0
DWIDTH 7 0
BBX 6 11 0 -3
BITMAP
2F105D
2F105D
2F105D
2F105D
2F105D
1F205D
0E72CD
05ED9D
0000B5
0002D1
0001DB
ENDCHAR
STARTCHAR Wcircumflex
ENCODING 372
SWIDTH 761 0
DWIDTH 11 0
BBX 11 13 0 0
BITMAP
00006E500000
0002C3C10000
000000000000
6C003F101F30
3F007F403F00
1F30AD706C00
0C50E6B09900
0982D1E0B600
06B6A0D2E300
03E96097F000
01FD306DC000
00CE002F9000
009B000E6000
ENDCHAR
STARTCHAR wcircumflex
ENCODING 373
SWIDTH 649 0
DWIDTH 9 0
BBX 9 11 0 0
BITMAP
0005E60000
001C3C1000
0000000000
8A01F20890
5D05F60B60
1F19D90E30
0D4C6D2E00
0A8E0E7B00
06EB0AD700
03F706F400
00E302F100
ENDCHAR
STARTCHAR Ycircumflex
ENCODING 374
SWIDTH 524 0
DWIDTH 7 0
BBX 7 13 0 0
BITMAP
003E8000
00B4B300
00000000
9C0008D0
2F400D60
0AA05E10
03F1B800
00C9F100
005F9000
000F4000
000F4000
000F4000
000F4000
ENDCHAR
STARTCHAR ycircumflex
ENCODING 375
SWIDTH 416 0
DWIDTH 6 0
BBX 6 14 0 -3
BITMAP
01BC10
068770
000000
9A00D6
5E01F2
1F25D0
0C6890
08AC50
04EF10
00EC00
00A800
00C400
15E000
5E4000
ENDCHAR
STARTCHAR Ydieresis
ENCODING 376
SWIDTH 524 0
DWIDTH 7 0
BBX 7 13 0 0
BITMAP
01402400
06C06B00
00000000
9C0008D0
2F400D60
0AA05E10
03F1B800
00C9F100
005F9000
000F4000
000F4000
000F4000
000F4000
ENDCHAR
STARTCHAR Zacute
ENCODING 377
SWIDTH 522 0
DWIDTH 7 0
BBX 7 13 0 0
BITMAP
0003E600
000A7000
00000000
5FFFFF80
01113F40
0000AA00
0003F200
000C8000
006E1000
01D60000
08C00000
2E511110
6FFFFFB0
ENDCHAR
STARTCHAR zacute
ENCODING 378
SWIDTH 438 0
DWIDTH 6 0
BBX 6 11 0 0
BITMAP
000BB0
004C10
000000
5FFFF7
0114F2
000C80
005E10
00D600
07D000
1E5000
5FFFF9
ENDCHAR
STARTCHAR Zdotaccent
ENCODING 379
SWIDTH 522 0
DWIDTH 7 0
BBX 7 13 0 0
BITMAP
00051000
000D4000
00000000
5FFFFF80
01113F40
0000AA00
0003F200
000C8000
006E1000
01D60000
08C00000
2E511110
6FFFFFB0
ENDCHAR
STARTCHAR zdotaccent
ENCODING 380
SWIDTH 438 0
DWIDTH 6 0
BBX 6 11 0 0
BITMAP
002400
008A00
000000
5FFFF7
0114F2
000C80
005E10
00D600
07D000
1E5000
5FFFF9
ENDCHAR
STARTCHAR Zcaron
ENCODING 381
SWIDTH 522 0
DWIDTH 7 0
BBX 7 13 0 0
BITMAP
00C4C300
002E6000
00000000
5FFFFF80
01113F40
0000AA00
0003F200
000C8000
006E1000
01D60000
08C00000
2E511110
6FFFFFB0
ENDCHAR
STARTCHAR zcaron
ENCODING 382
SWIDTH 438 0
DWIDTH 6 0
BBX 6 11 0 0
BITMAP
069690
00AC00
000000
5FFFF7
0114F2
000C80
005E10
00D600
07D000
1E5000
5FFFF9
ENDCHAR
STARTCHAR longs
ENCODING 383
SWIDTH 234 0
DWIDTH 3 0
BBX 3 11 1 0
BITMAP
4DC0
C810
E400
E400
E400
E400
E400
E400
E400
E400
E400
ENDCHAR
STARTCHAR uni018F
ENCODING 399
SWIDTH 597 0
DWIDTH 8 0
BBX 8 10 0 0
BITMAP
04CEE800
04524DA0
000003F3
000000D7
000000B8
6FFFFFF8
5D0000C7
2F1002F2
0BB33BA0
01AEE900
ENDCHAR
STARTCHAR florin
ENCODING 402
SWIDTH 309 0
DWIDTH 4 0
BBX 5 14 0 -3
BITMAP
01CE20
08C200
0A9000
9FFA00
0A9000
0A9000
0A9000
0A9000
0A9000
0A9000
0A9000
0A8000
1C6000
DB1000
ENDCHAR
STARTCHAR Ohorn
ENCODING 416
SWIDTH 592 0
DWIDTH 8 0
BBX 9 11 0 0
BITMAP
0000000940
008EE92E20
08D44CF800
0E5003F100
3F0000D500
5E0000C600
5E0000C600
4F0000D500
1E5003F200
08D43CA000
008EE91000
ENDCHAR
STARTCHAR ohorn
ENCODING 417
SWIDTH 502 0
DWIDTH 7 0
BBX 8 9 0 0
BITMAP
00000081
02BEB3E0
0B929F80
2F101F20
4E000E50
4D000E50
2F101F30
0B929C00
02BFC200
ENDCHAR
STARTCHAR Uhorn
ENCODING 431
SWIDTH 608 0
DWIDTH 9 0
BBX 10 11 0 0
BITMAP
00000000D3
2F2004F3E1
2F2004FD50
2F2004F000
2F2004F000
2F2004F000
2F2004F000
2F2004F000
0F4006D000
0AC23D7000
019ED80000
ENDCHAR
STARTCHAR uhorn
ENCODING 432
SWIDTH 549 0
DWIDTH 8 0
BBX 8 9 0 0
BITMAP
00000025
2F105D68
2F105FD2
2F105D00
2F105D00
2F105D00
1F205D00
0E72CD00
05ED9D00
ENDCHAR
STARTCHAR uni01F0
ENCODING 496
SWIDTH 237 0
DWIDTH 3 0
BBX 5 14 -1 -3
BITMAP
0B4B40
02D700
000000
00D500
00D500
00D500
00D500
00D500
00D500
00D500
00D500
00E400
02F200
2E9000
ENDCHAR
STARTCHAR Aringacute
ENCODING 506
SWIDTH 576 0
DWIDTH 8 0
BBX 8 13 0 0
BITMAP
00009800
0001B000
000AD000
000FF000
000EF100
005CB600
00976B00
00E21E10
04D00C50
09FFFFA0
0D4113E0
3E0000E5
8B0000A9
ENDCHAR
STARTCHAR aringacute
ENCODING 507
SWIDTH 479 0
DWIDTH 7 0
BBX 6 11 0 0
BITMAP
0003D1
000840
005E40
03FFF1
0E71B9
02007B
03CFFB
0E817B
3F007B
1F53DC
07EC8E
ENDCHAR
STARTCHAR AEacute
ENCODING 508
SWIDTH 812 0
DWIDTH 11 0
BBX 12 13 0 0
BITMAP
000005E30000
00000C400000
000000000000
00003FFFFFA0
0000BEB11100
0003E7C00000
000B76C00000
004E15FFFF40
00B605D00000
04FFFFE00000
0B8336E00000
4F1003F00000
BA0003FFFFF1
ENDCHAR
STARTCHAR aeacute
ENCODING 509
SWIDTH 728 0
DWIDTH 10 0
BBX 10 11 0 0
BITMAP
00000BB000
00004B1000
0000000000
06DE94DE80
2F52DF42D5
0200AA0099
07DFFFFFFA
3F40990000
6C009C0000
4E24EF6154
09ED54DEB3
ENDCHAR
STARTCHAR Oslashacute
ENCODING 510
SWIDTH 600 0
DWIDTH 8 0
BBX 8 14 0 -1
BITMAP
00009D10
0003C200
00000013
006DEAA5
05E53BE0
0D700AF4
1F303BB7
3F10B3A9
3F14A0A9
2F2C20B7
0DB901F4
06F63BC0
06BDEB20
06100000
ENDCHAR
STARTCHAR oslashacute
ENCODING 511
SWIDTH 498 0
DWIDTH 7 0
BBX 7 12 0 -1
BITMAP
0009D100
003C2000
00001800
02BFD600
0B92EC00
2F139F30
4E092D50
5E1B0E50
2F851F20
0CE29B00
05DEC200
07200000
ENDCHAR
STARTCHAR uni0218
ENCODING 536
SWIDTH 518 0
DWIDTH 7 0
BBX 7 14 0 -4
BITMAP
02BED600
0D925E40
2F200A90
1E700000
05EC5000
0028EC10
00001D80
5E0009A0
1E824E60
03BFD800
00000000
000D4000
000E2000
002A0000
ENDCHAR
STARTCHAR uni0219
ENCODING 537
SWIDTH 455 0
DWIDTH 6 0
BBX 6 12 0 -4
BITMAP
04DEA0
0E62D7
1F4033
08E810
003BE3
2600AA
2F51B8
05DEB1
000000
002F00
004C00
005700
ENDCHAR
STARTCHAR uni021A
ENCODING 538
SWIDTH 520 0
DWIDTH 7 0
BBX 7 14 0 -4
BITMAP
9FFFFFD0
111F5110
000F4000
000F4000
000F4000
000F4000
000F4000
000F4000
000F4000
000F4000
00000000
000E3000
001F1000
002A0000
ENDCHAR
STARTCHAR uni021B
ENCODING 539
SWIDTH 295 0
DWIDTH 4 0
BBX 4 14 0 -4
BITMAP
0B70
0B70
DFF9
0B70
0B70
0B70
0B70
0B70
0AA1
04E8
0000
00C5
00E3
01B0
ENDCHAR
STARTCHAR uni0237
ENCODING 567
SWIDTH 237 0
DWIDTH 3 0
BBX 4 11 -1 -3
BITMAP
00D5
00D5
00D5
00D5
00D5
00D5
00D5
00D5
00E4
02F2
2E90
ENDCHAR
STARTCHAR uni0259
ENCODING 601
SWIDTH 465 0
DWIDTH 7 0
BBX 6 8 0 0
BITMAP
07DE80
0933E5
00008B
00005D
4FFFFE
3E007B
0E62D5
04DE80
ENDCHAR
STARTCHAR uni02BC
ENCODING 700
SWIDTH 194 0
DWIDTH 3 0
BBX 3 4 0 7
BITMAP
1F20
2F10
4D00
6600
ENDCHAR
STARTCHAR circumflex
ENCODING 710
SWIDTH 428 0
DWIDTH 6 0
BBX 4 2 1 9
BITMAP
1CB0
8796
ENDCHAR
STARTCHAR caron
ENCODING 711
SWIDTH 403 0
DWIDTH 6 0
BBX 4 2 1 9
BITMAP
B5B4
1D80
ENDCHAR
STARTCHAR uni02C9
ENCODING 713
SWIDTH 414 0
DWIDTH 6 0
BBX 4 1 1 9
BITMAP
FFFE
ENDCHAR
STARTCHAR breve
ENCODING 728
SWIDTH 426 0
DWIDTH 6 0
BBX 5 2 0 8
BITMAP
1F24D0
06ED50
ENDCHAR
STARTCHAR dotaccent
ENCODING 729
SWIDTH 242 0
DWIDTH 3 0
BBX 2 2 1 9
BITMAP
51
D5
ENDCHAR
STARTCHAR ring
ENCODING 730
SWIDTH 334 0
DWIDTH 5 0
BBX 4 3 0 8
BITMAP
09A5
290A
0AA5
ENDCHAR
STARTCHAR ogonek
ENCODING 731
SWIDTH 253 0
DWIDTH 4 0
BBX 3 4 0 -3
BITMAP
0210
3C10
8810
5E60
ENDCHAR
STARTCHAR tilde
ENCODING 732
SWIDTH 427 0
DWIDTH 6 0
BBX 5 3 0 9
BITMAP
000010
0AC2D0
1C3D80
ENDCHAR
STARTCHAR hungarumlaut
ENCODING 733
SWIDTH 331 0
DWIDTH 5 0
BBX 5 2 0 8
BITMAP
0C8C70
2C6A00
ENDCHAR
STARTCHAR uni02F3
ENCODING 755
SWIDTH 263 0
DWIDTH 4 0
BBX 3 3 0 -4
BITMAP
0C80
3790
0D80
ENDCHAR
STARTCHAR gravecomb
ENCODING 768
SWIDTH 0 0
DWIDTH 0 0
BBX 3 2 -5 8
BITMAP
8D10
0B50
ENDCHAR
STARTCHAR acutecomb
ENCODING 769
SWIDTH 0 0
DWIDTH 0 0
BBX 3 2 -4 8
BITMAP
1D70
6900
ENDCHAR
STARTCHAR tildecomb
ENCODING 771
SWIDTH 0 0
DWIDTH 0 0
BBX 5 3 -5 9
BITMAP
000100
8D2C10
C2D900
ENDCHAR
STARTCHAR hookabovecomb
ENCODING 777
SWIDTH 0 0
DWIDTH 0 0
BBX 2 3 -4 8
BITMAP
B9
2E
A6
ENDCHAR
STARTCHAR uni030F
ENCODING 783
SWIDTH 0 0
DWIDTH 0 0
BBX 5 2 -6 9
BITMAP
2E7E20
04D890
ENDCHAR
STARTCHAR dotbelowcomb
ENCODING 803
SWIDTH 0 0
DWIDTH 0 0
BBX 2 2 -5 -3
BITMAP
B7
42
ENDCHAR
STARTCHAR tonos
ENCODING 900
SWIDTH 256 0
DWIDTH 4 0
BBX 2 2 1 9
BITMAP
89
83
ENDCHAR
STARTCHAR dieresistonos
ENCODING 901
SWIDTH 452 0
DWIDTH 6 0
BBX 6 3 0 9
BITMAP
003E00
153841
3D00B5
ENDCHAR
STARTCHAR Alphatonos
ENCODING 902
SWIDTH 576 0
DWIDTH 8 0
BBX 8 11 0 0
BITMAP
0A700000
0A1AB000
000EF100
005CB600
00976B00
00E21E10
04D00C50
09FFFFA0
0D4113E0
3E0000E5
8B0000A9
ENDCHAR
STARTCHAR anoteleia
ENCODING 903
SWIDTH 243 0
DWIDTH 3 0
BBX 2 2 1 4
BITMAP
D4
61
ENDCHAR
STARTCHAR Epsilontonos
ENCODING 904
SWIDTH 496 0
DWIDTH 7 0
BBX 9 11 -2 0
BITMAP
1E20000000
290EFFFF50
000E611100
000E500000
000E500000
000EFFFD00
000E611100
000E500000
000E500000
000E611100
000EFFFF60
ENDCHAR
STARTCHAR Etatonos
ENCODING 905
SWIDTH 620 0
DWIDTH 9 0
BBX 10 11 -2 0
BITMAP
0E30000000
1A0E5000A9
000E5000A9
000E5000A9
000E5000A9
000EFFFFF9
000E6111A9
000E5000A9
000E5000A9
000E5000A9
000E5000A9
ENDCHAR
STARTCHAR Iotatonos
ENCODING 906
SWIDTH 250 0
DWIDTH 4 0
BBX 5 11 -2 0
BITMAP
0E3000
1A0D60
000D60
000D60
000D60
000D60
000D60
000D60
000D60
000D60
000D60
ENDCHAR
STARTCHAR Omicrontonos
ENCODING 908
SWIDTH 610 0
DWIDTH 9 0
BBX 9 11 -1 0
BITMAP
0E30000000
1A06DFC300
005E638E10
00B8000C70
00E5000990
00F40008A0
00F40008A0
00E4000990
00B8000C70
005E528E10
0007DFC400
ENDCHAR
STARTCHAR Upsilontonos
ENCODING 910
SWIDTH 573 0
DWIDTH 8 0
BBX 10 11 -2 0
BITMAP
2E10000000
380D8000C9
0007E003F2
0001E509A0
00008B1E30
00002F9B00
000009F500
000004F000
000004F000
000004F000
000004F000
ENDCHAR
STARTCHAR Omegatonos
ENCODING 911
SWIDTH 591 0
DWIDTH 8 0
BBX 9 11 -1 0
BITMAP
0E30000000
1A07DE9100
006E43C900
00C7003F10
00F4000F50
01F3000D60
01F3000E50
00E4000F30
0098004D00
003E42C700
01FFD8FF50
ENDCHAR
STARTCHAR iotadieresistonos
ENCODING 912
SWIDTH 299 0
DWIDTH 4 0
BBX 6 12 -1 0
BITMAP
005C00
145751
5B00D3
000000
00B700
00B700
00B700
00B700
00B700
00B700
00AA10
004E80
ENDCHAR
STARTCHAR Alpha
ENCODING 913
SWIDTH 576 0
DWIDTH 8 0
BBX 8 10 0 0
BITMAP
000AB000
000EF100
005CB600
00976B00
00E21E10
04D00C50
09FFFFA0
0D4113E0
3E0000E5
8B0000A9
ENDCHAR
STARTCHAR Beta
ENCODING 914
SWIDTH 545 0
DWIDTH 8 0
BBX 6 10 1 0
BITMAP
EFFE90
E613D7
E500A9
E502E5
EFFFB0
E512D7
E5007C
E5007B
E613D7
EFFE90
ENDCHAR
STARTCHAR Gamma
ENCODING 915
SWIDTH 487 0
DWIDTH 7 0
BBX 6 10 1 0
BITMAP
DFFFF5
D71110
D60000
D60000
D60000
D60000
D60000
D60000
D60000
D60000
ENDCHAR
STARTCHAR Delta.dup1
ENCODING 916
SWIDTH 614 0
DWIDTH 9 0
BBX 9 10 0 0
BITMAP
0005F10000
000BF60000
001F9B0000
006C2F1000
00C70C6000
02F208B000
07B003F100
0D6000D600
3F31119A00
8FFFFFFF10
ENDCHAR
STARTCHAR Epsilon
ENCODING 917
SWIDTH 496 0
DWIDTH 7 0
BBX 6 10 1 0
BITMAP
EFFFF5
E61110
E50000
E50000
EFFFD0
E61110
E50000
E50000
E61110
EFFFF6
ENDCHAR
STARTCHAR Zeta
ENCODING 918
SWIDTH 522 0
DWIDTH 7 0
BBX 7 10 0 0
BITMAP
5FFFFF80
01113F40
0000AA00
0003F200
000C8000
006E1000
01D60000
08C00000
2E511110
6FFFFFB0
ENDCHAR
STARTCHAR Eta
ENCODING 919
SWIDTH 620 0
DWIDTH 9 0
BBX 7 10 1 0
BITMAP
E5000A90
E5000A90
E5000A90
E5000A90
EFFFFF90
E6111A90
E5000A90
E5000A90
E5000A90
E5000A90
ENDCHAR
STARTCHAR Theta
ENCODING 920
SWIDTH 593 0
DWIDTH 8 0
BBX 8 10 0 0
BITMAP
007EE910
07E43CA0
0E5002F2
3F1000D6
4E4FFAC7
4E0110C7
3F1000D6
0E5002F2
07E43CB0
007EEA10
ENDCHAR
STARTCHAR Iota
ENCODING 921
SWIDTH 250 0
DWIDTH 4 0
BBX 2 10 1 0
BITMAP
D6
D6
D6
D6
D6
D6
D6
D6
D6
D6
ENDCHAR
STARTCHAR Kappa
ENCODING 922
SWIDTH 544 0
DWIDTH 8 0
BBX 7 10 1 0
BITMAP
E5008D10
E504F400
E51D7000
E5AB0000
EBF40000
EFBC0000
E71E6000
E506E100
E500CA00
E5003F40
ENDCHAR
STARTCHAR Lambda
ENCODING 923
SWIDTH 572 0
DWIDTH 8 0
BBX 8 10 0 0
BITMAP
000BA000
001FE000
005DE400
00A9A900
00E56D00
04F11F30
08B00C80
0D7008C0
2F2003F2
7D0000E6
ENDCHAR
STARTCHAR Mu
ENCODING 924
SWIDTH 755 0
DWIDTH 11 0
BBX 9 10 1 0
BITMAP
ED00004F80
EF20009F80
EE7000EE80
E9C004EA80
E5F2089B80
E5B70D4B80
E56B3E0B80
E51E990B80
E50BF40B80
E506E00B80
ENDCHAR
STARTCHAR Nu
ENCODING 925
SWIDTH 619 0
DWIDTH 9 0
BBX 7 10 1 0
BITMAP
E9000A90
EF200A90
ED900A90
E6E20A90
E58A0A90
E51E3A90
E508AA90
E501ED90
E5007F90
E5001E90
ENDCHAR
STARTCHAR Xi
ENCODING 926
SWIDTH 502 0
DWIDTH 7 0
BBX 7 10 0 0
BITMAP
2FFFFF30
01111100
00000000
00000000
0AFFFB00
01111100
00000000
00000000
01111100
3FFFFF40
ENDCHAR
STARTCHAR Omicron
ENCODING 927
SWIDTH 600 0
DWIDTH 8 0
BBX 8 10 0 0
BITMAP
008EFB20
07E53AD0
0D6000E5
1F2000C7
2F1000B8
2F1000B8
1F2000B7
0E6000E5
07D439D0
008EFB20
ENDCHAR
STARTCHAR Pi
ENCODING 928
SWIDTH 620 0
DWIDTH 9 0
BBX 7 10 1 0
BITMAP
DFFFFF80
D7111B80
D6000B80
D6000B80
D6000B80
D6000B80
D6000B80
D6000B80
D6000B80
D6000B80
ENDCHAR
STARTCHAR Rho
ENCODING 929
SWIDTH 554 0
DWIDTH 8 0
BBX 7 10 1 0
BITMAP
EFFEB200
E612AC00
E5002F20
E5001F20
E5019D00
EFFFC300
E6110000
E5000000
E5000000
E5000000
ENDCHAR
STARTCHAR Sigma
ENCODING 931
SWIDTH 502 0
DWIDTH 7 0
BBX 7 10 0 0
BITMAP
7FFFFF30
2E611100
07E10000
00BA0000
002E5000
002E4000
00C90000
07D10000
2E611110
7FFFFF70
ENDCHAR
STARTCHAR Tau
ENCODING 932
SWIDTH 520 0
DWIDTH 7 0
BBX 7 10 0 0
BITMAP
9FFFFFD0
111F5110
000F4000
000F4000
000F4000
000F4000
000F4000
000F4000
000F4000
000F4000
ENDCHAR
STARTCHAR Upsilon
ENCODING 933
SWIDTH 524 0
DWIDTH 7 0
BBX 7 10 0 0
BITMAP
9C0008D0
2F400D60
0AA05E10
03F1B800
00C9F100
005F9000
000F4000
000F4000
000F4000
000F4000
ENDCHAR
STARTCHAR Phi
ENCODING 934
SWIDTH 621 0
DWIDTH 9 0
BBX 9 10 0 0
BITMAP
0004F00000
01AEFE8000
0BA6F4D700
3F14F05E00
6D04F02F20
6D04F01F20
3F14F04E00
0C95F2C800
02CFFF9000
0004F10000
ENDCHAR
STARTCHAR Chi
ENCODING 935
SWIDTH 550 0
DWIDTH 8 0
BBX 8 10 0 0
BITMAP
3F3007E1
0AB01E60
03F37D00
00ABE600
002FD000
003FD000
00ABD700
03F37E10
0BA01E70
4F3007E1
ENDCHAR
STARTCHAR Psi
ENCODING 936
SWIDTH 600 0
DWIDTH 8 0
BBX 8 10 0 0
BITMAP
6C08B08B
6C08B08B
6C08B08B
6D08B09B
4F18B0B9
0D99B6F3
02CFFE50
0008B000
0008B000
0008B000
ENDCHAR
STARTCHAR Omega.dup2
ENCODING 937
SWIDTH 581 0
DWIDTH 8 0
BBX 8 10 0 0
BITMAP
008EE800
08D33D70
0E5005E0
2F2002F2
3F1001F3
3F1001F3
1F2002F1
0B6006B0
05D33D50
3FFBAFF3
ENDCHAR
STARTCHAR Iotadieresis
ENCODING 938
SWIDTH 250 0
DWIDTH 4 0
BBX 5 13 -1 0
BITMAP
150140
5D06C0
000000
00D600
00D600
00D600
00D600
00D600
00D600
00D600
00D600
00D600
00D600
ENDCHAR
STARTCHAR Upsilondieresis
ENCODING 939
SWIDTH 524 0
DWIDTH 7 0
BBX 7 13 0 0
BITMAP
01402400
06C06B00
00000000
9C0008D0
2F400D60
0AA05E10
03F1B800
00C9F100
005F9000
000F4000
000F4000
000F4000
000F4000
ENDCHAR
STARTCHAR alphatonos
ENCODING 940
SWIDTH 494 0
DWIDTH 7 0
BBX 7 11 0 0
BITMAP
00089000
00083000
00000000
03DE7F00
0C92AF00
2F204F00
4E004F00
4E004F00
3F104F00
0D81AF20
03DE6C80
ENDCHAR
STARTCHAR epsilontonos
ENCODING 941
SWIDTH 470 0
DWIDTH 7 0
BBX 6 11 0 0
BITMAP
000E30
001A00
000000
04DEA1
1E62C8
2F0058
1E5000
07FF70
3F3024
3F31AB
07DEB2
ENDCHAR
STARTCHAR etatonos
ENCODING 942
SWIDTH 498 0
DWIDTH 7 0
BBX 6 14 0 -3
BITMAP
000C50
000B00
000000
1F7ED4
1F919C
1F204E
1F203F
1F203F
1F203F
1F203F
1F203F
00003F
00003F
00003F
ENDCHAR
STARTCHAR iotatonos
ENCODING 943
SWIDTH 299 0
DWIDTH 4 0
BBX 3 11 1 0
BITMAP
4C00
5600
0000
B700
B700
B700
B700
B700
B700
AA10
4E80
ENDCHAR
STARTCHAR upsilondieresistonos
ENCODING 944
SWIDTH 480 0
DWIDTH 7 0
BBX 6 12 0 0
BITMAP
001F20
052A32
1D2097
000000
1F20B8
1F207C
1F204E
1F203F
1F203F
0F307C
0C82D7
03CE90
ENDCHAR
STARTCHAR alpha
ENCODING 945
SWIDTH 494 0
DWIDTH 7 0
BBX 7 8 0 0
BITMAP
03DE7F00
0C92AF00
2F204F00
4E004F00
4E004F00
3F104F00
0D81AF20
03DE6C80
ENDCHAR
STARTCHAR beta
ENCODING 946
SWIDTH 517 0
DWIDTH 7 0
BBX 6 13 1 -3
BITMAP
1AEC30
AB28D0
E402F1
F406D0
F4DF50
F414E2
F400C6
F400C6
F815F2
FBED60
F40000
F40000
F40000
ENDCHAR
STARTCHAR gamma
ENCODING 947
SWIDTH 444 0
DWIDTH 6 0
BBX 6 11 0 -3
BITMAP
7C007B
2F10B7
0D50F3
0994D0
04D890
01ED50
00BF10
007C00
007B00
007B00
007B00
ENDCHAR
STARTCHAR delta
ENCODING 948
SWIDTH 498 0
DWIDTH 7 0
BBX 7 11 0 0
BITMAP
01BED100
07D24100
08C00000
02EB3000
02CFF400
0D81AD00
3F102F30
4E000F40
2F101F20
0C819C00
02BEB200
ENDCHAR
STARTCHAR epsilon
ENCODING 949
SWIDTH 470 0
DWIDTH 7 0
BBX 6 8 0 0
BITMAP
04DEA1
1E62C8
2F0058
1E5000
07FF70
3F3024
3F31AB
07DEB2
ENDCHAR
STARTCHAR zeta
ENCODING 950
SWIDTH 462 0
DWIDTH 6 0
BBX 6 13 0 -3
BITMAP
2FFFFB
0111D5
0009A0
004E10
00D600
05D000
098000
0B7000
09B000
02CE91
0003D6
0000C5
0001A0
ENDCHAR
STARTCHAR eta
ENCODING 951
SWIDTH 498 0
DWIDTH 7 0
BBX 6 11 0 -3
BITMAP
1F7ED4
1F919C
1F204E
1F203F
1F203F
1F203F
1F203F
1F203F
00003F
00003F
00003F
ENDCHAR
STARTCHAR theta
ENCODING 952
SWIDTH 496 0
DWIDTH 7 0
BBX 7 10 0 0
BITMAP
02CFB100
0A92A900
0F203E00
2F001F10
3FFFFF20
3F112F20
2F102F10
0E405E00
0AB2B900
01BFB100
ENDCHAR
STARTCHAR iota
ENCODING 953
SWIDTH 299 0
DWIDTH 4 0
BBX 3 8 1 0
BITMAP
B700
B700
B700
B700
B700
B700
AA10
4E80
ENDCHAR
STARTCHAR kappa
ENCODING 954
SWIDTH 491 0
DWIDTH 7 0
BBX 6 8 1 0
BITMAP
F307E1
F31E60
F38C00
F5E300
FFD000
F5D800
F33F40
F307E2
ENDCHAR
STARTCHAR lambda
ENCODING 955
SWIDTH 485 0
DWIDTH 7 0
BBX 7 10 0 0
BITMAP
0EA00000
03F30000
00C90000
008E0000
00DF4000
03EB9000
08A5E000
0D60E500
3F209B00
8C003E50
ENDCHAR
STARTCHAR uni03BC
ENCODING 956
SWIDTH 498 0
DWIDTH 7 0
BBX 5 11 1 -3
BITMAP
F304F0
F304F0
F304F0
F304F0
F304F0
F404F0
F92AF0
FCE9F0
F30000
F30000
F30000
ENDCHAR
STARTCHAR nu
ENCODING 957
SWIDTH 427 0
DWIDTH 6 0
BBX 6 8 0 0
BITMAP
8A00B8
4E00E3
0E23E0
0B66A0
07AA60
02DD20
00DD00
009900
ENDCHAR
STARTCHAR xi
ENCODING 958
SWIDTH 431 0
DWIDTH 6 0
BBX 6 13 0 -3
BITMAP
02BEE3
0BA221
0E4000
0AA100
01DFD0
0C9210
3F0000
4E0000
2F5000
06EA50
0016E6
0000B6
0001B1
ENDCHAR
STARTCHAR omicron
ENCODING 959
SWIDTH 501 0
DWIDTH 7 0
BBX 7 8 0 0
BITMAP
02BEB200
0C929D00
3F101F30
5D000D50
5D000D50
3F100E30
0D817D00
02BEC200
ENDCHAR
STARTCHAR pi
ENCODING 960
SWIDTH 520 0
DWIDTH 7 0
BBX 7 8 0 0
BITMAP
AFFFFFA0
0B816D00
0B805D00
0B805D00
0B805D00
0B805D00
0B804E20
0B801CE0
ENDCHAR
STARTCHAR rho
ENCODING 961
SWIDTH 498 0
DWIDTH 7 0
BBX 7 11 0 -3
BITMAP
01AEC200
09C2AB00
0E502F10
1F300F30
1F200F30
1F202F20
1F919C00
1F9ED300
1F200000
1F200000
1F200000
ENDCHAR
STARTCHAR sigma1
ENCODING 962
SWIDTH 472 0
DWIDTH 7 0
BBX 6 11 0 -3
BITMAP
02BEB1
0B92A9
2F2038
4E0000
4E0000
2F3000
0AD300
019EB1
0001C6
0000C5
0001A0
ENDCHAR
STARTCHAR sigma
ENCODING 963
SWIDTH 498 0
DWIDTH 7 0
BBX 7 8 0 0
BITMAP
02BFFFB0
0B92A810
2F102F10
4E000F30
4E000F40
2F202F20
0B92AB00
02CFB100
ENDCHAR
STARTCHAR tau
ENCODING 964
SWIDTH 460 0
DWIDTH 6 0
BBX 6 8 0 0
BITMAP
6FFFFC
007C00
007C00
007C00
007C00
007C00
006D20
001DD0
ENDCHAR
STARTCHAR upsilon
ENCODING 965
SWIDTH 480 0
DWIDTH 7 0
BBX 6 8 0 0
BITMAP
1F20B8
1F207C
1F204E
1F203F
1F203F
0F307C
0C82D7
03CE90
ENDCHAR
STARTCHAR phi
ENCODING 966
SWIDTH 617 0
DWIDTH 9 0
BBX 8 11 0 -3
BITMAP
0661CE80
1E64E3D6
4F05D06D
6D05D03F
5D05D03F
2F25D07C
0BC7D5E5
019EFC50
0005D000
0005D000
0005D000
ENDCHAR
STARTCHAR chi
ENCODING 967
SWIDTH 438 0
DWIDTH 6 0
BBX 7 11 0 -3
BITMAP
9D208A00
1A90D500
03E5E000
00DD8000
008F3000
006F0000
00CF5000
03F9A000
08B3E100
0E50C710
5E004E30
ENDCHAR
STARTCHAR psi
ENCODING 968
SWIDTH 612 0
DWIDTH 9 0
BBX 8 11 0 -3
BITMAP
6D06C0C7
6D06C08B
6D06C05D
5D06C04F
4E06C04E
2F26C09B
0AB8C6F4
019EFC50
0006C000
0006C000
0006C000
ENDCHAR
STARTCHAR omega
ENCODING 969
SWIDTH 711 0
DWIDTH 10 0
BBX 10 8 0 0
BITMAP
09A0000B80
0D600007C0
1F307604F0
2F10A902F1
2F10A902F1
1F20BB04E0
0B83DE7CA0
03DE56ED20
ENDCHAR
STARTCHAR iotadieresis
ENCODING 970
SWIDTH 299 0
DWIDTH 4 0
BBX 6 11 -1 0
BITMAP
050150
2E23E1
000000
00B700
00B700
00B700
00B700
00B700
00B700
00AA10
004E80
ENDCHAR
STARTCHAR upsilondieresis
ENCODING 971
SWIDTH 480 0
DWIDTH 7 0
BBX 6 11 0 0
BITMAP
042041
0B60C6
000000
1F20B8
1F207C
1F204E
1F203F
1F203F
0F307C
0C82D7
03CE90
ENDCHAR
STARTCHAR omicrontonos
ENCODING 972
SWIDTH 501 0
DWIDTH 7 0
BBX 7 11 0 0
BITMAP
000C5000
000B0000
00000000
02BEB200
0C929D00
3F101F30
5D000D50
5D000D50
3F100E30
0D817D00
02BEC200
ENDCHAR
STARTCHAR upsilontonos
ENCODING 973
SWIDTH 480 0
DWIDTH 7 0
BBX 6 11 0 0
BITMAP
000E20
001A00
000000
1F20B8
1F207C
1F204E
1F203F
1F203F
0F307C
0C82D7
03CE90
ENDCHAR
STARTCHAR omegatonos
ENCODING 974
SWIDTH 711 0
DWIDTH 10 0
BBX 10 11 0 0
BITMAP
00004D0000
0000570000
0000000000
09A0000B80
0D600007C0
1F307604F0
2F10A902F1
2F10A902F1
1F20BB04E0
0B83DE7CA0
03DE56ED20
ENDCHAR
STARTCHAR theta1
ENCODING 977
SWIDTH 507 0
DWIDTH 7 0
BBX 7 10 0 0
BITMAP
004DD300
00D78C00
00F34E00
00D64E00
146E7E10
3F07EFA0
3F004E00
2F104D00
0D82BA00
03CEB200
ENDCHAR
STARTCHAR Upsilon1
ENCODING 978
SWIDTH 465 0
DWIDTH 7 0
BBX 7 10 0 0
BITMAP
E9002D70
4F208B10
0B70E500
06D5D000
01ED8000
009F2000
005D0000
005D0000
005D0000
005D0000
ENDCHAR
STARTCHAR omega1
ENCODING 982
SWIDTH 678 0
DWIDTH 10 0
BBX 10 8 0 0
BITMAP
6FFFFFFFF1
0D71111D70
1F30000A90
2F20C608A0
1F20C60890
0F30E70A80
0B85CC2E40
03DD38EA00
ENDCHAR
STARTCHAR uni0400
ENCODING 1024
SWIDTH 496 0
DWIDTH 7 0
BBX 6 13 1 0
BITMAP
2D8000
03D200
000000
EFFFF5
E61110
E50000
E50000
EFFFD0
E61110
E50000
E50000
E61110
EFFFF6
ENDCHAR
STARTCHAR uni0401
ENCODING 1025
SWIDTH 496 0
DWIDTH 7 0
BBX 6 13 1 0
BITMAP
140240
6C06B0
000000
EFFFF5
E61110
E50000
E50000
EFFFD0
E61110
E50000
E50000
E61110
EFFFF6
ENDCHAR
STARTCHAR uni0402
ENCODING 1026
SWIDTH 650 0
DWIDTH 9 0
BBX 9 10 0 0
BITMAP
AFFFFFD000
115E111000
005E000000
005E000000
005FDFD500
005F437F30
005E000C70
005E000C70
005E004F30
005E05D600
ENDCHAR
STARTCHAR uni0403
ENCODING 1027
SWIDTH 487 0
DWIDTH 7 0
BBX 6 13 1 0
BITMAP
002E70
009800
000000
DFFFF5
D71110
D60000
D60000
D60000
D60000
D60000
D60000
D60000
D60000
ENDCHAR
STARTCHAR uni0404
ENCODING 1028
SWIDTH 589 0
DWIDTH 8 0
BBX 8 10 0 0
BITMAP
006DEB20
06D42AC0
0D5002F2
1F200041
2FFFF400
2F311000
1F300041
0D7002F3
06E42AC0
007EEA20
ENDCHAR
STARTCHAR uni0405
ENCODING 1029
SWIDTH 518 0
DWIDTH 7 0
BBX 7 10 0 0
BITMAP
02BED600
0D925E40
2F200A90
1E700000
05EC5000
0028EC10
00001D80
5E0009A0
1E824E60
03BFD800
ENDCHAR
STARTCHAR uni0406
ENCODING 1030
SWIDTH 250 0
DWIDTH 4 0
BBX 2 10 1 0
BITMAP
D6
D6
D6
D6
D6
D6
D6
D6
D6
D6
ENDCHAR
STARTCHAR uni0407
ENCODING 1031
SWIDTH 250 0
DWIDTH 4 0
BBX 5 13 -1 0
BITMAP
150140
5D06C0
000000
00D600
00D600
00D600
00D600
00D600
00D600
00D600
00D600
00D600
00D600
ENDCHAR
STARTCHAR uni0408
ENCODING 1032
SWIDTH 483 0
DWIDTH 7 0
BBX 6 10 0 0
BITMAP
00008C
00008C
00008C
00008C
00008C
00008C
00008B
7A009A
4E43E6
07EE90
ENDCHAR
STARTCHAR uni0409
ENCODING 1033
SWIDTH 923 0
DWIDTH 13 0
BBX 13 10 0 0
BITMAP
00CFFFF8000000
00D711C8000000
00D600B8000000
00D500B8000000
00E500BFFFC400
00F400B8128E10
01F300B8000E50
03F100B8000E40
19B000B8128E10
9D3000BFFFC300
ENDCHAR
STARTCHAR uni040A
ENCODING 1034
SWIDTH 927 0
DWIDTH 13 0
BBX 12 10 1 0
BITMAP
D6000B800000
D6000B800000
D6000B800000
D6000B800000
DFFFFFFFFC40
D7111B9117E1
D6000B8000E5
D6000B8000E5
D6000B9228E1
D6000BFFFC40
ENDCHAR
STARTCHAR uni040B
ENCODING 1035
SWIDTH 705 0
DWIDTH 10 0
BBX 9 10 0 0
BITMAP
7FFFFFF000
114F211000
003F100000
003F100000
003FDEE900
003F423D70
003F1009A0
003F1008B0
003F1008B0
003F1008B0
ENDCHAR
STARTCHAR uni040C
ENCODING 1036
SWIDTH 544 0
DWIDTH 8 0
BBX 7 13 1 0
BITMAP
003E5000
00B60000
00000000
E5008D10
E504F400
E51D7000
E5AB0000
EBF40000
EFBC0000
E71E6000
E506E100
E500CA00
E5003F40
ENDCHAR
STARTCHAR uni040D
ENCODING 1037
SWIDTH 619 0
DWIDTH 9 0
BBX 7 13 1 0
BITMAP
05E30000
007A0000
00000000
D6001E80
D6007F80
D601ED80
D607AB80
D61E2B80
D68A0B80
D7E20B80
DDA00B80
DF200B80
DA000B80
ENDCHAR
STARTCHAR uni040E
ENCODING 1038
SWIDTH 547 0
DWIDTH 8 0
BBX 8 13 0 0
BITMAP
02E25C00
007ED400
00000000
3F3006E1
0C800BA0
07D01F40
01F46E00
00A9B900
005EF400
000EE000
000B8000
003F3000
04E80000
ENDCHAR
STARTCHAR uni040F
ENCODING 1039
SWIDTH 621 0
DWIDTH 9 0
BBX 7 12 1 -2
BITMAP
D6000B80
D6000B80
D6000B80
D6000B80
D6000B80
D6000B80
D6000B80
D6000B80
D7111B80
DFFFFF80
004F0000
004F0000
ENDCHAR
STARTCHAR uni0410
ENCODING 1040
SWIDTH 576 0
DWIDTH 8 0
BBX 8 10 0 0
BITMAP
000AB000
000EF100
005CB600
00976B00
00E21E10
04D00C50
09FFFFA0
0D4113E0
3E0000E5
8B0000A9
ENDCHAR
STARTCHAR uni0411
ENCODING 1041
SWIDTH 549 0
DWIDTH 8 0
BBX 7 10 1 0
BITMAP
FFFFF300
F5111000
F4000000
F4000000
FFFEB200
F512AC00
F4002F10
F4003F10
F512AC00
FFFEB200
ENDCHAR
STARTCHAR uni0412
ENCODING 1042
SWIDTH 545 0
DWIDTH 8 0
BBX 6 10 1 0
BITMAP
EFFE90
E613D7
E500A9
E502E5
EFFFB0
E512D7
E5007C
E5007B
E613D7
EFFE90
ENDCHAR
STARTCHAR uni0413
ENCODING 1043
SWIDTH 487 0
DWIDTH 7 0
BBX 6 10 1 0
BITMAP
DFFFF5
D71110
D60000
D60000
D60000
D60000
D60000
D60000
D60000
D60000
ENDCHAR
STARTCHAR uni0414
ENCODING 1044
SWIDTH 660 0
DWIDTH 9 0
BBX 9 12 0 -2
BITMAP
008FFFF900
009A11A900
00A900A900
00A900A900
00B800A900
00D600A900
00F400A900
04F100A900
1AA111AA10
9FFFFFFFC0
9A000007C0
9A000007C0
ENDCHAR
STARTCHAR uni0415
ENCODING 1045
SWIDTH 496 0
DWIDTH 7 0
BBX 6 10 1 0
BITMAP
EFFFF5
E61110
E50000
E50000
EFFFD0
E61110
E50000
E50000
E61110
EFFFF6
ENDCHAR
STARTCHAR uni0416
ENCODING 1046
SWIDTH 791 0
DWIDTH 11 0
BBX 11 10 0 0
BITMAP
3F400F402F50
09C00F409C00
01E40F42F300
007C0F499000
001FFFFF4000
008D2F5BA000
01E60F44F300
07E10F40CA00
1E800F405F20
7F200F400D90
ENDCHAR
STARTCHAR uni0417
ENCODING 1047
SWIDTH 517 0
DWIDTH 7 0
BBX 7 10 0 0
BITMAP
03CED600
1E825F40
2A000C70
00003E40
004FF800
00015E40
00000A90
4B000B80
2E725F30
04CED500
ENDCHAR
STARTCHAR uni0418
ENCODING 1048
SWIDTH 619 0
DWIDTH 9 0
BBX 7 10 1 0
BITMAP
D6001E80
D6007F80
D601ED80
D607AB80
D61E2B80
D68A0B80
D7E20B80
DDA00B80
DF200B80
DA000B80
ENDCHAR
STARTCHAR uni0419
ENCODING 1049
SWIDTH 619 0
DWIDTH 9 0
BBX 7 13 1 0
BITMAP
0981C500
02CEA000
00000000
D6001E80
D6007F80
D601ED80
D607AB80
D61E2B80
D68A0B80
D7E20B80
DDA00B80
DF200B80
DA000B80
ENDCHAR
STARTCHAR uni041A
ENCODING 1050
SWIDTH 560 0
DWIDTH 8 0
BBX 7 10 1 0
BITMAP
D6006F30
D602E700
D60CB000
D67E1000
DFF80000
D77E1000
D60C9000
D604F300
D600AC00
D6002E70
ENDCHAR
STARTCHAR uni041B
ENCODING 1051
SWIDTH 615 0
DWIDTH 9 0
BBX 8 10 0 0
BITMAP
00CFFFF7
00C711C7
00D600C7
00D500C7
00E500C7
00E400C7
00F300C7
03F100C7
19C000C7
9D3000C7
ENDCHAR
STARTCHAR uni041C
ENCODING 1052
SWIDTH 755 0
DWIDTH 11 0
BBX 9 10 1 0
BITMAP
ED00004F80
EF20009F80
EE7000EE80
E9C004EA80
E5F2089B80
E5B70D4B80
E56B3E0B80
E51E990B80
E50BF40B80
E506E00B80
ENDCHAR
STARTCHAR uni041D
ENCODING 1053
SWIDTH 620 0
DWIDTH 9 0
BBX 7 10 1 0
BITMAP
E5000A90
E5000A90
E5000A90
E5000A90
EFFFFF90
E6111A90
E5000A90
E5000A90
E5000A90
E5000A90
ENDCHAR
STARTCHAR uni041E
ENCODING 1054
SWIDTH 600 0
DWIDTH 8 0
BBX 8 10 0 0
BITMAP
008EFB20
07E53AD0
0D6000E5
1F2000C7
2F1000B8
2F1000B8
1F2000B7
0E6000E5
07D439D0
008EFB20
ENDCHAR
STARTCHAR uni041F
ENCODING 1055
SWIDTH 620 0
DWIDTH 9 0
BBX 7 10 1 0
BITMAP
DFFFFF80
D7111B80
D6000B80
D6000B80
D6000B80
D6000B80
D6000B80
D6000B80
D6000B80
D6000B80
ENDCHAR
STARTCHAR uni0420
ENCODING 1056
SWIDTH 554 0
DWIDTH 8 0
BBX 7 10 1 0
BITMAP
EFFEB200
E612AC00
E5002F20
E5001F20
E5019D00
EFFFC300
E6110000
E5000000
E5000000
E5000000
ENDCHAR
STARTCHAR uni0421
ENCODING 1057
SWIDTH 566 0
DWIDTH 8 0
BBX 8 10 0 0
BITMAP
008EEB20
07D42AC0
0E6002F2
1F300051
2F200000
2F200000
1F200041
0E5001F2
07D329C0
008EEA20
ENDCHAR
STARTCHAR uni0422
ENCODING 1058
SWIDTH 520 0
DWIDTH 7 0
BBX 7 10 0 0
BITMAP
9FFFFFD0
111F5110
000F4000
000F4000
000F4000
000F4000
000F4000
000F4000
000F4000
000F4000
ENDCHAR
STARTCHAR uni0423
ENCODING 1059
SWIDTH 547 0
DWIDTH 8 0
BBX 8 10 0 0
BITMAP
3F3006E1
0C800BA0
07D01F40
01F46E00
00A9B900
005EF400
000EE000
000B8000
003F3000
04E80000
ENDCHAR
STARTCHAR uni0424
ENCODING 1060
SWIDTH 676 0
DWIDTH 9 0
BBX 9 10 0 0
BITMAP
0000C60000
009EFFC400
0AB2D65E30
2F20C608A0
5D00C605D0
5D00C605D0
2F20C608A0
0AB2D65E30
009EFFC400
0000C60000
ENDCHAR
STARTCHAR uni0425
ENCODING 1061
SWIDTH 550 0
DWIDTH 8 0
BBX 8 10 0 0
BITMAP
3F3007E1
0AB01E60
03F37D00
00ABE600
002FD000
003FD000
00ABD700
03F37E10
0BA01E70
4F3007E1
ENDCHAR
STARTCHAR uni0426
ENCODING 1062
SWIDTH 639 0
DWIDTH 9 0
BBX 8 12 1 -2
BITMAP
D6000B80
D6000B80
D6000B80
D6000B80
D6000B80
D6000B80
D6000B80
D6000B80
D7111B91
DFFFFFF6
000000C6
000000C5
ENDCHAR
STARTCHAR uni0427
ENCODING 1063
SWIDTH 600 0
DWIDTH 8 0
BBX 8 10 0 0
BITMAP
1F3000F4
1F3000F4
1F3000F4
0F4000F4
0C9114F4
03CFFDF4
000100F4
000000F4
000000F4
000000F4
ENDCHAR
STARTCHAR uni0428
ENCODING 1064
SWIDTH 814 0
DWIDTH 11 0
BBX 10 10 1 0
BITMAP
D600E500F4
D600E500F4
D600E500F4
D600E500F4
D600E500F4
D600E500F4
D600E500F4
D600E500F4
D711E611F4
DFFFFFFFF4
ENDCHAR
STARTCHAR uni0429
ENCODING 1065
SWIDTH 841 0
DWIDTH 12 0
BBX 11 12 1 -2
BITMAP
D600E500F400
D600E500F400
D600E500F400
D600E500F400
D600E500F400
D600E500F400
D600E500F400
D600E500F400
D711E611F500
DFFFFFFFFF20
000000001F10
000000001F10
ENDCHAR
STARTCHAR uni042A
ENCODING 1066
SWIDTH 651 0
DWIDTH 9 0
BBX 9 10 0 0
BITMAP
BFFB000000
018B000000
008B000000
008B000000
008FFFD600
008B115F40
008B000B80
008B000B80
008B115F30
008FFFD600
ENDCHAR
STARTCHAR uni042B
ENCODING 1067
SWIDTH 755 0
DWIDTH 11 0
BBX 9 10 1 0
BITMAP
D600000D60
D600000D60
D600000D60
D600000D60
DFFFC30D60
D7129D0D60
D6001F3D60
D6001F3D60
D7129D0D60
DFFFB30D60
ENDCHAR
STARTCHAR uni042C
ENCODING 1068
SWIDTH 551 0
DWIDTH 8 0
BBX 7 10 1 0
BITMAP
E4000000
E4000000
E4000000
E4000000
EFFEB200
E512AC00
E4002F10
E4003F10
E512AC00
EFFEB200
ENDCHAR
STARTCHAR uni042D
ENCODING 1069
SWIDTH 589 0
DWIDTH 8 0
BBX 7 10 1 0
BITMAP
08DEA100
7D33BA00
D6001E30
41000C60
00FFFF70
00111C80
31000D60
D6002F30
7D33CB00
08DEA100
ENDCHAR
STARTCHAR uni042E
ENCODING 1070
SWIDTH 765 0
DWIDTH 11 0
BBX 10 10 1 0
BITMAP
D603BEE900
D61EA34D80
D65E1005E0
D67C0002F2
DFFB0001F3
D67B0001F3
D65C0002F2
D63E1005E0
D60BA34D80
D601AEE900
ENDCHAR
STARTCHAR uni042F
ENCODING 1071
SWIDTH 562 0
DWIDTH 8 0
BBX 7 10 0 0
BITMAP
01AEFFA0
0AC319A0
0E4009A0
0F4009A0
0AB109A0
01BFFFA0
00C819A0
03F109A0
0A9009A0
2F3009A0
ENDCHAR
STARTCHAR uni0430
ENCODING 1072
SWIDTH 479 0
DWIDTH 7 0
BBX 6 8 0 0
BITMAP
03CEB1
0E71B9
02007B
03CFFB
0E817B
3F007B
1F53DC
07EC8E
ENDCHAR
STARTCHAR uni0431
ENCODING 1073
SWIDTH 484 0
DWIDTH 7 0
BBX 7 11 0 0
BITMAP
00005C00
005CF600
04E83000
0C400000
1D9EC300
3F829D00
4F101F20
4E000F40
2F101F20
0C819C00
02BEB200
ENDCHAR
STARTCHAR uni0432
ENCODING 1074
SWIDTH 503 0
DWIDTH 7 0
BBX 6 8 1 0
BITMAP
FFFD50
F416F0
F305E0
FFFF70
F304F2
F300E4
F304F2
FFFE60
ENDCHAR
STARTCHAR uni0433
ENCODING 1075
SWIDTH 371 0
DWIDTH 5 0
BBX 4 8 1 0
BITMAP
FFFF
F411
F300
F300
F300
F300
F300
F300
ENDCHAR
STARTCHAR uni0434
ENCODING 1076
SWIDTH 536 0
DWIDTH 8 0
BBX 7 10 0 -2
BITMAP
00FFFF20
00F53F20
01F21F20
01F21F20
03F01F20
06C01F20
0C701F30
9FFFFFF0
990003F0
990003F0
ENDCHAR
STARTCHAR uni0435
ENCODING 1077
SWIDTH 468 0
DWIDTH 7 0
BBX 6 8 0 0
BITMAP
02CEB2
0D71AA
3E004E
5FFFFF
5E1111
3F1000
0D8149
03CFD5
ENDCHAR
STARTCHAR uni0436
ENCODING 1078
SWIDTH 662 0
DWIDTH 9 0
BBX 9 8 0 0
BITMAP
5F10F30C90
0D60F33F20
07C0F38B00
01F2F3E400
00BFFFE000
04F3F5D700
0C90F35E20
7E10F30CA0
ENDCHAR
STARTCHAR uni0437
ENCODING 1079
SWIDTH 446 0
DWIDTH 6 0
BBX 6 8 0 0
BITMAP
06DEA0
2F42E5
1401E4
00EFC0
0012D5
2500A8
3F42E5
06DE90
ENDCHAR
STARTCHAR uni0438
ENCODING 1080
SWIDTH 509 0
DWIDTH 7 0
BBX 6 8 1 0
BITMAP
F305F2
F30CF2
F34DF2
F3B6F2
F6C1F2
FD61F2
FD01F2
F701F2
ENDCHAR
STARTCHAR uni0439
ENCODING 1081
SWIDTH 509 0
DWIDTH 7 0
BBX 6 11 1 0
BITMAP
6B1980
1AEB10
000000
F305F2
F30CF2
F34DF2
F3B6F2
F6C1F2
FD61F2
FD01F2
F701F2
ENDCHAR
STARTCHAR uni043A
ENCODING 1082
SWIDTH 479 0
DWIDTH 7 0
BBX 6 8 1 0
BITMAP
F406E1
F40D70
F46D00
F4D500
FFE100
F5CA00
F42E60
F406E2
ENDCHAR
STARTCHAR uni043B
ENCODING 1083
SWIDTH 509 0
DWIDTH 7 0
BBX 7 8 0 0
BITMAP
03FFFF20
04E12F20
04D01F20
05D01F20
06C01F20
07A01F20
2C701F20
9B101F20
ENDCHAR
STARTCHAR uni043C
ENCODING 1084
SWIDTH 645 0
DWIDTH 9 0
BBX 7 8 1 0
BITMAP
FB000AF0
FF100EF0
FE504EF0
F9A09AF0
F4E1E5F0
F3B8C3F0
F36F73F0
F31F23F0
ENDCHAR
STARTCHAR uni043D
ENCODING 1085
SWIDTH 508 0
DWIDTH 7 0
BBX 6 8 1 0
BITMAP
F402F1
F402F1
F402F1
F402F1
FFFFF1
F402F1
F402F1
F402F1
ENDCHAR
STARTCHAR uni043E
ENCODING 1086
SWIDTH 501 0
DWIDTH 7 0
BBX 7 8 0 0
BITMAP
02BEB200
0C929D00
3F101F30
5D000D50
5D000D50
3F100E30
0D817D00
02BEC200
ENDCHAR
STARTCHAR uni043F
ENCODING 1087
SWIDTH 509 0
DWIDTH 7 0
BBX 6 8 1 0
BITMAP
FFFFF2
F412F2
F401F2
F401F2
F401F2
F401F2
F401F2
F401F2
ENDCHAR
STARTCHAR uni0440
ENCODING 1088
SWIDTH 493 0
DWIDTH 7 0
BBX 7 11 0 -3
BITMAP
1F7ED400
1F829D00
1F201F20
1F200F40
1F200F30
1F201F20
1F819D00
1F9ED300
1F200000
1F200000
1F200000
ENDCHAR
STARTCHAR uni0441
ENCODING 1089
SWIDTH 461 0
DWIDTH 6 0
BBX 6 8 0 0
BITMAP
03CEB2
0D719A
3E0029
5D0000
5D0000
3E0026
0D719B
03CEB2
ENDCHAR
STARTCHAR uni0442
ENCODING 1090
SWIDTH 424 0
DWIDTH 6 0
BBX 6 8 0 0
BITMAP
9FFFF9
00A900
00A800
00A800
00A800
00A800
00A800
00A800
ENDCHAR
STARTCHAR uni0443
ENCODING 1091
SWIDTH 416 0
DWIDTH 6 0
BBX 6 11 0 -3
BITMAP
9A00D6
5E01F2
1F25D0
0C6890
08AC50
04EF10
00EC00
00A800
00C400
15E000
5E4000
ENDCHAR
STARTCHAR uni0444
ENCODING 1092
SWIDTH 628 0
DWIDTH 9 0
BBX 9 14 0 -3
BITMAP
0004E00000
0004E00000
0004E00000
04EEFEC200
0D85E2B900
2F14E04E00
4E04E02F10
4E04E02F10
3F04E04F00
0D75E1AA00
04DEFEC200
0004E00000
0004E00000
0004E00000
ENDCHAR
STARTCHAR uni0445
ENCODING 1093
SWIDTH 438 0
DWIDTH 6 0
BBX 6 8 0 0
BITMAP
5E10D7
0C75E1
05DC70
00CE00
00DE10
06DB70
0D64E1
6E10D7
ENDCHAR
STARTCHAR uni0446
ENCODING 1094
SWIDTH 524 0
DWIDTH 7 0
BBX 6 10 1 -2
BITMAP
F401F2
F401F2
F401F2
F401F2
F401F2
F401F2
F402F2
FFFFFD
00005C
00005C
ENDCHAR
STARTCHAR uni0447
ENCODING 1095
SWIDTH 479 0
DWIDTH 7 0
BBX 6 8 0 0
BITMAP
4E008B
4E008B
4E008B
1F419B
06EFEB
00008B
00008B
00008B
ENDCHAR
STARTCHAR uni0448
ENCODING 1096
SWIDTH 703 0
DWIDTH 10 0
BBX 8 8 1 0
BITMAP
F40A806C
F40A806C
F40A806C
F40A806C
F40A806C
F40A806C
F40A806C
FFFFFFFC
ENDCHAR
STARTCHAR uni0449
ENCODING 1097
SWIDTH 722 0
DWIDTH 10 0
BBX 10 10 0 -2
BITMAP
1F20C707B0
1F20C707B0
1F20C707B0
1F20C707B0
1F20C707B0
1F20C707B0
1F30C707B0
1FFFFFFFFA
0000000089
0000000089
ENDCHAR
STARTCHAR uni044A
ENCODING 1098
SWIDTH 538 0
DWIDTH 8 0
BBX 8 8 0 0
BITMAP
BFF40000
01E40000
00E40000
00EFFD40
00E507E0
00E402F1
00E516E0
00EFFD40
ENDCHAR
STARTCHAR uni044B
ENCODING 1099
SWIDTH 679 0
DWIDTH 10 0
BBX 8 8 1 0
BITMAP
F30000D5
F30000D5
F30000D5
FFFD30D5
F418D0D5
F303F0D5
F417D0D5
FFFD30D5
ENDCHAR
STARTCHAR uni044C
ENCODING 1100
SWIDTH 478 0
DWIDTH 7 0
BBX 5 8 1 0
BITMAP
F30000
F30000
F30000
FFFD30
F418D0
F303F0
F417D0
FFFD30
ENDCHAR
STARTCHAR uni044D
ENCODING 1101
SWIDTH 472 0
DWIDTH 7 0
BBX 6 8 0 0
BITMAP
04DE70
2E42D4
14007A
008FFC
00017C
3A009A
1E53E5
04DE70
ENDCHAR
STARTCHAR uni044E
ENCODING 1102
SWIDTH 706 0
DWIDTH 10 0
BBX 9 8 1 0
BITMAP
F302BFB100
F30B82AA00
F32E102F10
F35D000F40
FFFC000F30
F45E002F10
F31E82AA00
F303CFB100
ENDCHAR
STARTCHAR uni044F
ENCODING 1103
SWIDTH 482 0
DWIDTH 7 0
BBX 6 8 0 0
BITMAP
06DFFB
2F407B
4E007B
2F307B
08FFFB
07D17B
1E507B
7D007B
ENDCHAR
STARTCHAR uni0450
ENCODING 1104
SWIDTH 468 0
DWIDTH 7 0
BBX 6 11 0 0
BITMAP
05E400
006B00
000000
02CEB2
0D71AA
3E004E
5FFFFF
5E1111
3F1000
0D8149
03CFD5
ENDCHAR
STARTCHAR uni0451
ENCODING 1105
SWIDTH 468 0
DWIDTH 7 0
BBX 6 11 0 0
BITMAP
032042
0A80B7
000000
02CEB2
0D71AA
3E004E
5FFFFF
5E1111
3F1000
0D8149
03CFD5
ENDCHAR
STARTCHAR uni0452
ENCODING 1106
SWIDTH 482 0
DWIDTH 7 0
BBX 6 14 0 -3
BITMAP
1F2000
FFFB00
2F2000
1F8ED3
1FA2AA
1F206C
1F205D
1F205D
1F205D
1F205D
1F205D
00005D
00018B
0009D3
ENDCHAR
STARTCHAR uni0453
ENCODING 1107
SWIDTH 371 0
DWIDTH 5 0
BBX 4 11 1 0
BITMAP
03E5
0B60
0000
FFFF
F411
F300
F300
F300
F300
F300
F300
ENDCHAR
STARTCHAR uni0454
ENCODING 1108
SWIDTH 472 0
DWIDTH 7 0
BBX 6 8 0 0
BITMAP
02BEB2
0B82AA
2F002B
4FFF10
3F1100
2F2028
0BA19B
02CFB1
ENDCHAR
STARTCHAR uni0455
ENCODING 1109
SWIDTH 455 0
DWIDTH 6 0
BBX 6 8 0 0
BITMAP
04DEA0
0E62D7
1F4033
08E810
003BE3
2600AA
2F51B8
05DEB1
ENDCHAR
STARTCHAR uni0456
ENCODING 1110
SWIDTH 229 0
DWIDTH 3 0
BBX 2 11 1 0
BITMAP
51
D3
00
F3
F3
F3
F3
F3
F3
F3
F3
ENDCHAR
STARTCHAR uni0457
ENCODING 1111
SWIDTH 234 0
DWIDTH 3 0
BBX 5 11 -1 0
BITMAP
240240
6C07B0
000000
00F300
00F300
00F300
00F300
00F300
00F300
00F300
00F300
ENDCHAR
STARTCHAR uni0458
ENCODING 1112
SWIDTH 223 0
DWIDTH 3 0
BBX 4 14 -1 -3
BITMAP
0050
01E1
0000
01F2
01F2
01F2
01F2
01F2
01F2
01F2
01F2
01F2
04F1
2E90
ENDCHAR
STARTCHAR uni0459
ENCODING 1113
SWIDTH 729 0
DWIDTH 10 0
BBX 10 8 0 0
BITMAP
04FFFD0000
04E16D0000
05D05D0000
05C05FFEA1
06C05D11C8
07A05D008A
2C705D01C8
9B105FFFA1
ENDCHAR
STARTCHAR uni045A
ENCODING 1114
SWIDTH 743 0
DWIDTH 10 0
BBX 9 8 1 0
BITMAP
F402F10000
F402F10000
F402F10000
FFFFFFEB20
F402F219B0
F402F104D0
F402F209B0
F402FFFC20
ENDCHAR
STARTCHAR uni045B
ENCODING 1115
SWIDTH 499 0
DWIDTH 7 0
BBX 6 11 0 0
BITMAP
1F2000
DFFD00
2F2000
1F8ED3
1FA2AA
1F206C
1F205D
1F205D
1F205D
1F205D
1F205D
ENDCHAR
STARTCHAR uni045C
ENCODING 1116
SWIDTH 479 0
DWIDTH 7 0
BBX 6 11 1 0
BITMAP
009D10
03C200
000000
F406E1
F40D70
F46D00
F4D500
FFE100
F5CA00
F42E60
F406E2
ENDCHAR
STARTCHAR uni045D
ENCODING 1117
SWIDTH 509 0
DWIDTH 7 0
BBX 6 11 1 0
BITMAP
3E6000
04C100
000000
F305F2
F30CF2
F34DF2
F3B6F2
F6C1F2
FD61F2
FD01F2
F701F2
ENDCHAR
STARTCHAR uni045E
ENCODING 1118
SWIDTH 416 0
DWIDTH 6 0
BBX 6 14 0 -3
BITMAP
0E42E0
05EE60
000000
9A00D6
5E01F2
1F25D0
0C6890
08AC50
04EF10
00EC00
00A800
00C400
15E000
5E4000
ENDCHAR
STARTCHAR uni045F
ENCODING 1119
SWIDTH 509 0
DWIDTH 7 0
BBX 6 10 1 -2
BITMAP
F401F2
F401F2
F401F2
F401F2
F401F2
F401F2
F402F2
FFFFF2
00F300
00F300
ENDCHAR
STARTCHAR uni0460
ENCODING 1120
SWIDTH 754 0
DWIDTH 11 0
BBX 9 10 1 0
BITMAP
F405F009A0
F405F009A0
F405F009A0
F405F009A0
F405F009A0
F405F009A0
F405F009A0
E406F00A90
BA2BF63E50
2CFA4DE900
ENDCHAR
STARTCHAR uni0461
ENCODING 1121
SWIDTH 650 0
DWIDTH 9 0
BBX 9 8 0 0
BITMAP
3F00F30D50
3F00F30D50
3F00F30D50
3F00F30D50
3F00F30D50
2F11F30D50
0E56F83F20
05ED4CE700
ENDCHAR
STARTCHAR uni0462
ENCODING 1122
SWIDTH 551 0
DWIDTH 8 0
BBX 9 10 -1 0
BITMAP
00E4000000
3FFF800000
00E5000000
00E4000000
00EFFEB200
00E512AC00
00E4002F10
00E4003F10
00E512AC00
00EFFEB200
ENDCHAR
STARTCHAR uni0463
ENCODING 1123
SWIDTH 477 0
DWIDTH 7 0
BBX 7 11 -1 0
BITMAP
00F30000
00F30000
1FFFF100
00F30000
00F30000
00F30000
00FFFD30
00F418D0
00F303F0
00F317D0
00FFFD30
ENDCHAR
STARTCHAR uni0464
ENCODING 1124
SWIDTH 772 0
DWIDTH 11 0
BBX 9 10 1 0
BITMAP
D602BED700
D60DA24E60
D65E1008B0
D68B000140
DFFFFFC000
D69A000000
D67C000130
D64F1007B0
D60BA24E60
D601BFD700
ENDCHAR
STARTCHAR uni0465
ENCODING 1125
SWIDTH 646 0
DWIDTH 9 0
BBX 8 8 1 0
BITMAP
F308ED60
F36D34E2
F3B70095
FFFFFC00
F3C70000
F3990064
F34E33E3
F307EE50
ENDCHAR
STARTCHAR uni0466
ENCODING 1126
SWIDTH 526 0
DWIDTH 7 0
BBX 8 10 0 0
BITMAP
000C9000
001FE000
006DF300
00A8B700
00E47C00
04E03F10
09FFFF50
0D7C8AA0
3F2B75E0
7C0B71F4
ENDCHAR
STARTCHAR uni0467
ENCODING 1127
SWIDTH 470 0
DWIDTH 7 0
BBX 7 8 0 0
BITMAP
007E0000
00BF3000
01FB8000
06C6D000
0A81F300
1FFFF700
5E6D7C00
A95D2F20
ENDCHAR
STARTCHAR uni0468
ENCODING 1128
SWIDTH 759 0
DWIDTH 11 0
BBX 10 10 1 0
BITMAP
C8000BA000
C8001FE000
C8005DE300
C80099A800
C800E46C00
C803F12F20
CFFFFFFF60
C82D7B89B0
C82F2B84E0
C87D0B80E4
ENDCHAR
STARTCHAR uni0469
ENCODING 1129
SWIDTH 654 0
DWIDTH 9 0
BBX 8 8 1 0
BITMAP
C600D700
C602FC00
C607BF20
C60B6C60
C61F28B0
CFFFFFF1
C7B8C7D6
C7F3C68B
ENDCHAR
STARTCHAR uni046A
ENCODING 1130
SWIDTH 747 0
DWIDTH 10 0
BBX 10 10 0 0
BITMAP
01EFFFFF80
006E217E10
000C81D600
0004E9C000
02BEFFFD60
0BB26E15F3
0E406D00C7
1F306D00B8
1F306D00B8
1F306D00B8
ENDCHAR
STARTCHAR uni046B
ENCODING 1131
SWIDTH 645 0
DWIDTH 9 0
BBX 8 8 1 0
BITMAP
1EFFFF20
09C1AB00
03F2E500
00CBE000
3CFFFC30
C92F38C0
F31F23F0
F31F22F1
ENDCHAR
STARTCHAR uni046C
ENCODING 1132
SWIDTH 980 0
DWIDTH 14 0
BBX 12 10 1 0
BITMAP
D600AFFFFFC0
D6002F413F40
D60008C0AA00
D60001E8F200
DFFFFFFFFE90
D618E43F43D7
D60B801F208B
D60C701F207C
D60C701F207C
D60C701F207C
ENDCHAR
STARTCHAR uni046D
ENCODING 1133
SWIDTH 856 0
DWIDTH 12 0
BBX 10 8 1 0
BITMAP
F301FFFFF2
F300AB1BA0
F3004F2F40
F3000DBD00
FFFFFFFFC3
F41D83F29B
F31F32F14F
F31F22F13F
ENDCHAR
STARTCHAR uni046E
ENCODING 1134
SWIDTH 454 0
DWIDTH 6 0
BBX 6 16 0 -3
BITMAP
05B5B0
008D10
000000
2FFC40
0116E1
0000E4
0005E1
06FF50
0016E2
0000D6
0000D5
0005E2
1CFD50
6C0000
5D1000
095000
ENDCHAR
STARTCHAR uni046F
ENCODING 1135
SWIDTH 423 0
DWIDTH 6 0
BBX 6 14 0 -3
BITMAP
0A5B50
01D800
000000
2FFD50
0116F0
0005E1
05FF50
0016E1
0000F3
0005E1
1CFD50
6C1000
4E1000
095000
ENDCHAR
STARTCHAR uni0470
ENCODING 1136
SWIDTH 600 0
DWIDTH 8 0
BBX 8 10 0 0
BITMAP
6C08B08B
6C08B08B
6C08B08B
6D08B09B
4F18B0B9
0D99B6F3
02CFFE50
0008B000
0008B000
0008B000
ENDCHAR
STARTCHAR uni0471
ENCODING 1137
SWIDTH 612 0
DWIDTH 9 0
BBX 8 11 0 -3
BITMAP
6D06C0C7
6D06C08B
6D06C05D
5D06C04F
4E06C04E
2F26C09B
0AB8C6F4
019EFC50
0006C000
0006C000
0006C000
ENDCHAR
STARTCHAR uni0472
ENCODING 1138
SWIDTH 593 0
DWIDTH 8 0
BBX 8 10 0 0
BITMAP
007EE910
07D43BA0
0E4001F2
3F0000C6
4FFFFFF7
4F1000C7
3F2000E6
0E6003F2
07E43CB0
007EEA10
ENDCHAR
STARTCHAR uni0473
ENCODING 1139
SWIDTH 497 0
DWIDTH 7 0
BBX 7 8 0 0
BITMAP
02BFB200
0B828B00
2F000E20
4FFFFF50
4E111E50
2F202F20
0BA2AB00
02BFC200
ENDCHAR
STARTCHAR uni0474
ENCODING 1140
SWIDTH 553 0
DWIDTH 8 0
BBX 8 10 0 0
BITMAP
9B0001D5
5F0008C1
1F400C60
0B801F20
06C05C00
02F19800
00D4C400
0089E000
004FA000
000E6000
ENDCHAR
STARTCHAR uni0475
ENCODING 1141
SWIDTH 443 0
DWIDTH 6 0
BBX 7 8 0 0
BITMAP
7B006E10
3E00E600
0E33F100
0A76B000
05A97000
01EC3000
00CD0000
008A0000
ENDCHAR
STARTCHAR uni0476
ENCODING 1142
SWIDTH 553 0
DWIDTH 8 0
BBX 8 13 0 0
BITMAP
1C8D4000
02D7C000
00000000
9B0001D5
5F0008C1
1F400C60
0B801F20
06C05C00
02F19800
00D4C400
0089E000
004FA000
000E6000
ENDCHAR
STARTCHAR uni0477
ENCODING 1143
SWIDTH 443 0
DWIDTH 6 0
BBX 7 11 0 0
BITMAP
7D9A0000
099C3000
00000000
7B006E10
3E00E600
0E33F100
0A76B000
05A97000
01EC3000
00CD0000
008A0000
ENDCHAR
STARTCHAR uni0478
ENCODING 1144
SWIDTH 1017 0
DWIDTH 14 0
BBX 14 13 0 -3
BITMAP
008EFB20000000
07E53AD0000000
0D6000E53F107D
1F2000C70E50A8
2F1000B80A80E4
2F1000B806C2F1
1F2000B702F7B0
0E6000E500DD70
07D439D0008F30
008EFB20004E00
00000000006A00
0000000002C500
000000000EA000
ENDCHAR
STARTCHAR uni0479
ENCODING 1145
SWIDTH 918 0
DWIDTH 13 0
BBX 13 11 0 -3
BITMAP
02BEB209B00C70
0C929D05E01F30
3F101F31F34E00
5D000D50B68A00
5D000D507AC600
3F100E303EF200
0D817D000EC000
02BEC2000A8000
000000000B4000
000000015E0000
00000005E50000
ENDCHAR
STARTCHAR uni047A
ENCODING 1146
SWIDTH 593 0
DWIDTH 8 0
BBX 8 12 0 -1
BITMAP
00069000
008EFA10
07D8ABA0
0E5002F2
3F1000D6
4E0000C7
4E0000C7
3F1000D6
0E5002F2
07D8ABB0
008EFA10
0006A000
ENDCHAR
STARTCHAR uni047B
ENCODING 1147
SWIDTH 498 0
DWIDTH 7 0
BBX 7 10 0 -1
BITMAP
001C1000
02CFC200
0C9B9C00
2F101F30
4D000D50
4D000E50
2F101F30
0C9C9C00
02CFC200
001B1000
ENDCHAR
STARTCHAR uni047C
ENCODING 1148
SWIDTH 752 0
DWIDTH 11 0
BBX 9 13 1 0
BITMAP
003EC40000
00864BC000
0000F00000
2C5390A800
BA10003E40
E500000B80
F400000A90
F404A00A90
F405E00A90
F405E00A90
E506F00B80
AA2CF73E40
2CEA4DE800
ENDCHAR
STARTCHAR uni047D
ENCODING 1149
SWIDTH 654 0
DWIDTH 9 0
BBX 9 11 0 0
BITMAP
000AE81000
001C28E500
0000880000
05C093A700
0E50003F20
2F10000D50
3F00610C60
3F00F30C60
2F10F30D50
0E56F83F20
05ED4CE700
ENDCHAR
STARTCHAR uni047E
ENCODING 1150
SWIDTH 754 0
DWIDTH 11 0
BBX 9 13 1 0
BITMAP
01FFFFB000
0004D00000
0000000000
F405F009A0
F405F009A0
F405F009A0
F405F009A0
F405F009A0
F405F009A0
F405F009A0
E406F00A90
BA2BF63E50
2CFA4DE900
ENDCHAR
STARTCHAR uni047F
ENCODING 1151
SWIDTH 650 0
DWIDTH 9 0
BBX 9 11 0 0
BITMAP
00CFFFF000
0000F20000
0000000000
3F00F30D50
3F00F30D50
3F00F30D50
3F00F30D50
3F00F30D50
2F11F30D50
0E56F83F20
05ED4CE700
ENDCHAR
STARTCHAR uni0480
ENCODING 1152
SWIDTH 570 0
DWIDTH 8 0
BBX 7 13 0 -3
BITMAP
008EE910
07D33CA0
0E5004F0
2F200150
3F000000
3F000000
2F100000
0E500000
08D30000
008EB000
0008B000
0008B000
0008B000
ENDCHAR
STARTCHAR uni0481
ENCODING 1153
SWIDTH 472 0
DWIDTH 7 0
BBX 6 11 0 -3
BITMAP
02BEA1
0B92B9
2F1038
4E0000
4E0000
2F1000
0C9000
02CF10
002F10
002F10
002F10
ENDCHAR
STARTCHAR uni0482
ENCODING 1154
SWIDTH 547 0
DWIDTH 8 0
BBX 7 9 0 0
BITMAP
00000B40
00663C00
001BE600
0003DD50
060A5260
1ACD0000
00CE6000
02D2B200
0A600000
ENDCHAR
STARTCHAR uni0483
ENCODING 1155
SWIDTH 0 0
DWIDTH 0 0
BBX 5 3 -6 8
BITMAP
0001B0
4FFFE0
4A0000
ENDCHAR
STARTCHAR uni0484
ENCODING 1156
SWIDTH 0 0
DWIDTH 0 0
BBX 6 2 -6 9
BITMAP
016DC1
2E92A4
ENDCHAR
STARTCHAR uni0485
ENCODING 1157
SWIDTH 0 0
DWIDTH 0 0
BBX 2 2 -4 9
BITMAP
A6
38
ENDCHAR
STARTCHAR uni0486
ENCODING 1158
SWIDTH 0 0
DWIDTH 0 0
BBX 3 2 -4 9
BITMAP
0F20
3800
ENDCHAR
STARTCHAR uni0488
ENCODING 1160
SWIDTH 0 0
DWIDTH 0 0
BBX 14 13 -11 -3
BITMAP
000000AE300000
00000183700000
009E4000009E30
00827000018370
00000000000000
0BD200000006E7
36450000000819
00000000000000
00000000000000
00AE300000AE30
01837000027360
0000009E300000
00000183700000
ENDCHAR
STARTCHAR uni0489
ENCODING 1161
SWIDTH 0 0
DWIDTH 0 0
BBX 14 13 -11 -3
BITMAP
0000000B000000
00270059000000
000C3033016A00
00042000039100
00000000000000
00000000000000
2CA10000000C82
00510000000253
00000000000000
00067000016000
0089201500C200
00000049003600
00000074000000
ENDCHAR
STARTCHAR uni048A
ENCODING 1162
SWIDTH 666 0
DWIDTH 9 0
BBX 8 15 1 -2
BITMAP
04D18A00
009EC200
00000000
D6001E80
D6007F80
D601ED80
D607AB80
D61E2B80
D68A0B80
D7E20B80
DDA00B80
DF200BB6
DA000BEC
00000099
000000B2
ENDCHAR
STARTCHAR uni048B
ENCODING 1163
SWIDTH 550 0
DWIDTH 8 0
BBX 7 13 1 -2
BITMAP
1F24D000
07ED4000
00000000
F305F200
F30CF200
F34DF200
F3B6F200
F6C1F200
FD61F200
FD01F830
F701FE60
00001F30
00004900
ENDCHAR
STARTCHAR uni048C
ENCODING 1164
SWIDTH 551 0
DWIDTH 8 0
BBX 9 10 -1 0
BITMAP
00E4000000
3FFF800000
00E5000000
00E4000000
00EFFEB200
00E512AC00
00E4002F10
00E4003F10
00E512AC00
00EFFEB200
ENDCHAR
STARTCHAR uni048D
ENCODING 1165
SWIDTH 477 0
DWIDTH 7 0
BBX 7 12 -1 0
BITMAP
00510000
00F30000
1FFFF100
01F41000
00F30000
00F30000
00F30000
00FFFD30
00F418D0
00F303F0
00F317D0
00FFFD30
ENDCHAR
STARTCHAR uni048E
ENCODING 1166
SWIDTH 557 0
DWIDTH 8 0
BBX 7 10 1 0
BITMAP
EFFEB200
E612AC00
E5002F20
E5027F20
E503FD00
EFFFDD10
E6110620
E5000000
E5000000
E5000000
ENDCHAR
STARTCHAR uni048F
ENCODING 1167
SWIDTH 496 0
DWIDTH 7 0
BBX 7 11 0 -3
BITMAP
1F8ED300
1F92AB00
1F202F10
1F200F30
1F200F30
1F22AF10
1F82EC00
1F9EDE20
1F200300
1F200000
1F200000
ENDCHAR
STARTCHAR uni0490
ENCODING 1168
SWIDTH 479 0
DWIDTH 7 0
BBX 6 13 1 0
BITMAP
000041
0000F3
0000F3
FFFFF3
F51110
F40000
F40000
F40000
F40000
F40000
F40000
F40000
F40000
ENDCHAR
STARTCHAR uni0491
ENCODING 1169
SWIDTH 395 0
DWIDTH 6 0
BBX 5 11 0 0
BITMAP
000120
0004E0
0004E0
1FFFE0
1F3110
1F2000
1F2000
1F2000
1F2000
1F2000
1F2000
ENDCHAR
STARTCHAR uni0492
ENCODING 1170
SWIDTH 487 0
DWIDTH 7 0
BBX 7 10 0 0
BITMAP
0DFFFF50
0D711100
0D600000
0D600000
EFFC0000
0D600000
0D600000
0D600000
0D600000
0D600000
ENDCHAR
STARTCHAR uni0493
ENCODING 1171
SWIDTH 371 0
DWIDTH 5 0
BBX 5 8 0 0
BITMAP
0FFFF0
0F4110
0F3000
DFFC00
0F4000
0F3000
0F3000
0F3000
ENDCHAR
STARTCHAR uni0494
ENCODING 1172
SWIDTH 539 0
DWIDTH 8 0
BBX 6 12 1 -2
BITMAP
DFFFF5
D71110
D60000
D60000
DFFC40
D727F2
D600A9
D6007B
D6006C
D6008A
0002D5
000D80
ENDCHAR
STARTCHAR uni0495
ENCODING 1173
SWIDTH 443 0
DWIDTH 6 0
BBX 6 10 0 -2
BITMAP
1FFFE0
1F3110
1F2000
1FFD50
1F46F2
1F20B8
1F208A
1F20A8
0004E2
000A60
ENDCHAR
STARTCHAR uni0496
ENCODING 1174
SWIDTH 833 0
DWIDTH 12 0
BBX 12 13 0 -3
BITMAP
3F400F402F50
09C00F409C00
01E40F42F300
007C0F499000
001FFFFF4000
008D2F5BA000
01E60F44F300
07E10F40CA00
1E800F405F20
7F200F400DF6
0000000000C6
0000000000C6
0000000000C6
ENDCHAR
STARTCHAR uni0497
ENCODING 1175
SWIDTH 696 0
DWIDTH 10 0
BBX 10 11 0 -3
BITMAP
5F10F30C90
0D60F33F20
07C0F38B00
01F2F3E400
00BFFFE000
04F3F5D700
0C90F35E20
7E10F30CF6
00000000C6
00000000C6
00000000C6
ENDCHAR
STARTCHAR uni0498
ENCODING 1176
SWIDTH 517 0
DWIDTH 7 0
BBX 7 13 0 -3
BITMAP
03CED600
1E825F40
2A000C70
00003E40
004FF800
00015E40
00000A90
4B000B80
2E725F30
04CFF500
000F3000
000F3000
000F3000
ENDCHAR
STARTCHAR uni0499
ENCODING 1177
SWIDTH 446 0
DWIDTH 6 0
BBX 6 11 0 -3
BITMAP
06DEA0
2F42E5
1401E4
00EFC0
0012D5
2500A8
3F42E5
06FF90
007B00
007B00
007B00
ENDCHAR
STARTCHAR uni049A
ENCODING 1178
SWIDTH 617 0
DWIDTH 9 0
BBX 7 13 1 -3
BITMAP
D6006F30
D602E700
D60CB000
D67E1000
DFF80000
D77E1000
D60C9000
D604F300
D600AC00
D6002FF0
000003F0
000003F0
000003F0
ENDCHAR
STARTCHAR uni049B
ENCODING 1179
SWIDTH 524 0
DWIDTH 7 0
BBX 6 11 1 -3
BITMAP
F406E1
F40D70
F46D00
F4D500
FFE100
F5CA00
F42E60
F406FF
00004E
00004E
00004E
ENDCHAR
STARTCHAR uni049C
ENCODING 1180
SWIDTH 553 0
DWIDTH 8 0
BBX 7 10 1 0
BITMAP
E4005F20
E400B800
E793E100
E8C97000
EFFF3000
E8CA9000
E795E100
E400E700
E4008D00
E4003F50
ENDCHAR
STARTCHAR uni049D
ENCODING 1181
SWIDTH 498 0
DWIDTH 7 0
BBX 6 8 1 0
BITMAP
F300E7
F304E1
F55A90
F8BE20
FFFD00
F8BD60
F546E1
F300D9
ENDCHAR
STARTCHAR uni049E
ENCODING 1182
SWIDTH 570 0
DWIDTH 8 0
BBX 8 10 0 0
BITMAP
0B8004F4
0B801D90
EFFCAC00
0B86F300
0BFFA000
0B85F200
0B80BB00
0B802F50
0B8008E1
0B8001E9
ENDCHAR
STARTCHAR uni049F
ENCODING 1183
SWIDTH 462 0
DWIDTH 6 0
BBX 8 11 -1 0
BITMAP
00E40000
5FFF5000
00E50000
00E409B0
00E43F20
00E4B800
00EFF200
00E5B800
00E44E10
00E40C90
00E404F2
ENDCHAR
STARTCHAR uni04A0
ENCODING 1184
SWIDTH 710 0
DWIDTH 10 0
BBX 10 10 0 0
BITMAP
8FFF7005F4
011C702E80
000C70BC00
000C76E200
000CFF9000
000C86E200
000C70CA00
000C703F40
000C7009D0
000C7001E8
ENDCHAR
STARTCHAR uni04A1
ENCODING 1185
SWIDTH 607 0
DWIDTH 9 0
BBX 9 8 0 0
BITMAP
7FFF208D00
012F21E500
001F28C000
001F3E3000
001FFD0000
001F4D8000
001F23F400
001F208E10
ENDCHAR
STARTCHAR uni04A2
ENCODING 1186
SWIDTH 662 0
DWIDTH 9 0
BBX 8 13 1 -3
BITMAP
E5000A90
E5000A90
E5000A90
E5000A90
EFFFFF90
E6111A90
E5000A90
E5000A90
E5000A90
E5000AFA
0000009A
0000009A
0000009A
ENDCHAR
STARTCHAR uni04A3
ENCODING 1187
SWIDTH 541 0
DWIDTH 8 0
BBX 7 11 1 -3
BITMAP
F402F100
F402F100
F402F100
F402F100
FFFFF100
F402F100
F402F100
F402FF20
00001F20
00001F20
00001F20
ENDCHAR
STARTCHAR uni04A4
ENCODING 1188
SWIDTH 829 0
DWIDTH 12 0
BBX 11 10 1 0
BITMAP
E5000AFFFF10
E5000A911100
E5000A900000
E5000A900000
EFFFFF900000
E6111A900000
E5000A900000
E5000A900000
E5000A900000
E5000A900000
ENDCHAR
STARTCHAR uni04A5
ENCODING 1189
SWIDTH 614 0
DWIDTH 9 0
BBX 8 8 0 0
BITMAP
1F203FFF
1F203F11
1F203F00
1F203F00
1FFFFF00
1F303F00
1F203F00
1F203F00
ENDCHAR
STARTCHAR uni04A6
ENCODING 1190
SWIDTH 880 0
DWIDTH 12 0
BBX 11 12 1 -2
BITMAP
DFFFFF800000
D7111B800000
D6000B800000
D6000B800000
D6000BFEB200
D6000B939D00
D6000B800D50
D6000B800A80
D6000B800A80
D6000B800B70
000000004F20
00000002E600
ENDCHAR
STARTCHAR uni04A7
ENCODING 1191
SWIDTH 755 0
DWIDTH 11 0
BBX 10 10 0 -2
BITMAP
1FFFFF0000
1F313F0000
1F203F0000
1F203FFD80
1F203F24D8
1F203F005E
1F203F003F
1F203F004E
00000001B7
00000005A0
ENDCHAR
STARTCHAR uni04A8
ENCODING 1192
SWIDTH 641 0
DWIDTH 9 0
BBX 9 10 0 0
BITMAP
01B64DD400
0AB2E78D00
1F44E01F30
3F16D00E50
3F06C00D60
3F16D00E50
2F24E00F30
0D70D44D00
05E66DC710
005DFFFF70
ENDCHAR
STARTCHAR uni04A9
ENCODING 1193
SWIDTH 528 0
DWIDTH 7 0
BBX 7 8 0 0
BITMAP
04B4EB00
0D5C7C60
2F0F3990
4E0F38A0
3F0E4890
1F3B6A70
09B5DE30
01AFFFF0
ENDCHAR
STARTCHAR uni04AA
ENCODING 1194
SWIDTH 566 0
DWIDTH 8 0
BBX 8 13 0 -3
BITMAP
008EEB20
07D42AC0
0E6002F2
1F300051
2F200000
2F200000
1F200041
0E5001F2
07D329C0
008FFA20
0008A000
0008A000
0008A000
ENDCHAR
STARTCHAR uni04AB
ENCODING 1195
SWIDTH 461 0
DWIDTH 6 0
BBX 6 11 0 -3
BITMAP
03CEB2
0D719A
3E003B
5D0000
5D0000
3E0028
0D719A
03FFB1
006C00
006C00
006C00
ENDCHAR
STARTCHAR uni04AC
ENCODING 1196
SWIDTH 520 0
DWIDTH 7 0
BBX 7 13 0 -3
BITMAP
9FFFFFD0
111F5110
000F4000
000F4000
000F4000
000F4000
000F4000
000F4000
000F4000
000FF400
0000E400
0000E400
0000E400
ENDCHAR
STARTCHAR uni04AD
ENCODING 1197
SWIDTH 424 0
DWIDTH 6 0
BBX 6 11 0 -3
BITMAP
9FFFF9
00A900
00A800
00A800
00A800
00A800
00A800
00AF90
000990
000990
000990
ENDCHAR
STARTCHAR uni04AE
ENCODING 1198
SWIDTH 524 0
DWIDTH 7 0
BBX 7 10 0 0
BITMAP
9C0008D0
2F400D60
0AA05E10
03F1B800
00C9F100
005F9000
000F4000
000F4000
000F4000
000F4000
ENDCHAR
STARTCHAR uni04AF
ENCODING 1199
SWIDTH 444 0
DWIDTH 6 0
BBX 6 11 0 -3
BITMAP
7C007B
2F10B7
0D50F3
0994D0
04D890
01ED50
00BF10
007C00
007B00
007B00
007B00
ENDCHAR
STARTCHAR uni04B0
ENCODING 1200
SWIDTH 524 0
DWIDTH 7 0
BBX 7 10 0 0
BITMAP
8C0008D0
1F400D60
09A05D00
02E1B600
0099D000
02FFF800
000F5000
000F4000
000F4000
000F4000
ENDCHAR
STARTCHAR uni04B1
ENCODING 1201
SWIDTH 444 0
DWIDTH 6 0
BBX 6 11 0 -3
BITMAP
7C007B
2F10B7
0D50F3
0994D0
05D890
01FD50
00BF10
0AFFF1
007B00
007B00
007B00
ENDCHAR
STARTCHAR uni04B2
ENCODING 1202
SWIDTH 559 0
DWIDTH 8 0
BBX 8 13 0 -3
BITMAP
3F3007E1
0AB01E60
03F37D00
00ABE600
002FD000
003FD000
00ABD700
03F37E10
0BA01E70
4F3007F9
000000A8
000000A8
000000A8
ENDCHAR
STARTCHAR uni04B3
ENCODING 1203
SWIDTH 465 0
DWIDTH 7 0
BBX 7 11 0 -3
BITMAP
5E10D700
0C75E100
05DC7000
00CE0000
00DE1000
06DB7000
0D64E100
6E10EF20
00001F20
00001F20
00001F20
ENDCHAR
STARTCHAR uni04B4
ENCODING 1204
SWIDTH 781 0
DWIDTH 11 0
BBX 10 12 0 -2
BITMAP
8FFFFE04F0
007D0004F0
006C0004F0
006C0004F0
006C0004F0
006C0004F0
006C0004F0
006C0004F0
006D1115F1
006FFFFFFD
000000005C
000000005C
ENDCHAR
STARTCHAR uni04B5
ENCODING 1205
SWIDTH 587 0
DWIDTH 8 0
BBX 8 10 0 -2
BITMAP
AFFF64E0
03F104E0
02F104E0
02F104E0
02F104E0
02F104E0
02F105E0
02FFFFFA
0000007A
00000079
ENDCHAR
STARTCHAR uni04B6
ENCODING 1206
SWIDTH 638 0
DWIDTH 9 0
BBX 9 13 0 -3
BITMAP
1F3000F400
1F3000F400
1F3000F400
0F4000F400
0C9114F400
03CFFDF400
000100F400
000000F400
000000F400
000000FF40
0000000E40
0000000E40
0000000E40
ENDCHAR
STARTCHAR uni04B7
ENCODING 1207
SWIDTH 512 0
DWIDTH 7 0
BBX 7 11 0 -3
BITMAP
4E008B00
4E008B00
4E008B00
1F419B00
06EFEB00
00008B00
00008B00
00008FB0
000007B0
000007B0
000007B0
ENDCHAR
STARTCHAR uni04B8
ENCODING 1208
SWIDTH 595 0
DWIDTH 8 0
BBX 8 10 0 0
BITMAP
1F3000F4
1F3000F4
1F3010F4
0F43C0F4
0C93C3F4
03DFFEF4
0004C0F4
000290F4
000000F4
000000F4
ENDCHAR
STARTCHAR uni04B9
ENCODING 1209
SWIDTH 483 0
DWIDTH 7 0
BBX 6 8 0 0
BITMAP
2F106C
2F106C
2F2B6C
0E7D7C
05EFFC
002D6C
00006C
00006C
ENDCHAR
STARTCHAR uni04BA
ENCODING 1210
SWIDTH 595 0
DWIDTH 8 0
BBX 8 10 0 0
BITMAP
2F200000
2F200000
2F200000
2F200000
2FCEEC30
2F6229D0
2F2002F2
2F2001F3
2F2001F3
2F2001F3
ENDCHAR
STARTCHAR uni04BB
ENCODING 1211
SWIDTH 482 0
DWIDTH 7 0
BBX 6 11 0 0
BITMAP
1F2000
1F2000
1F2000
1F8ED3
1FA2AA
1F206C
1F205D
1F205D
1F205D
1F205D
1F205D
ENDCHAR
STARTCHAR uni04BC
ENCODING 1212
SWIDTH 674 0
DWIDTH 9 0
BBX 9 10 0 0
BITMAP
0002BFD400
001D926E10
466E000C60
3D9B000990
08EFFFFFA0
009A000000
007B000000
004E100000
000CB32600
0001AEEB10
ENDCHAR
STARTCHAR uni04BD
ENCODING 1213
SWIDTH 518 0
DWIDTH 7 0
BBX 8 8 -1 0
BITMAP
0005DE70
163E43E3
0EA900A8
05EFFFF9
00991110
007B0000
002F51A5
0005DE90
ENDCHAR
STARTCHAR uni04BE
ENCODING 1214
SWIDTH 674 0
DWIDTH 9 0
BBX 9 13 0 -3
BITMAP
0002BFD400
001D926E10
466E000C60
3D9B000990
08EFFFFFA0
009A000000
007B000000
004E100000
000CB32600
0001AFFB10
00000C6000
00000C6000
00000C6000
ENDCHAR
STARTCHAR uni04BF
ENCODING 1215
SWIDTH 518 0
DWIDTH 7 0
BBX 8 11 -1 -3
BITMAP
0005DE70
163E43E3
0EA900A8
05EFFFF9
00991110
007B0000
002F51A5
0005FF90
00006D00
00006D00
00006D00
ENDCHAR
STARTCHAR uni04C0
ENCODING 1216
SWIDTH 250 0
DWIDTH 4 0
BBX 2 10 1 0
BITMAP
D6
D6
D6
D6
D6
D6
D6
D6
D6
D6
ENDCHAR
STARTCHAR uni04C1
ENCODING 1217
SWIDTH 791 0
DWIDTH 11 0
BBX 11 13 0 0
BITMAP
0006B1980000
0001BEB10000
000000000000
3F400F402F50
09C00F409C00
01E40F42F300
007C0F499000
001FFFFF4000
008D2F5BA000
01E60F44F300
07E10F40CA00
1E800F405F20
7F200F400D90
ENDCHAR
STARTCHAR uni04C2
ENCODING 1218
SWIDTH 662 0
DWIDTH 9 0
BBX 9 11 0 0
BITMAP
005C189000
000AEC2000
0000000000
5F10F30C90
0D60F33F20
07C0F38B00
01F2F3E400
00BFFFE000
04F3F5D700
0C90F35E20
7E10F30CA0
ENDCHAR
STARTCHAR uni04C3
ENCODING 1219
SWIDTH 553 0
DWIDTH 8 0
BBX 7 12 1 -2
BITMAP
E4008D10
E404F300
E41D7000
E4AA0000
EFFD7000
E625D800
E4005E10
E4001F20
E4001F30
E4003F10
0001AB00
0008C200
ENDCHAR
STARTCHAR uni04C4
ENCODING 1220
SWIDTH 481 0
DWIDTH 7 0
BBX 6 10 1 -2
BITMAP
F307E1
F31E60
F38C00
F5E300
FFFB20
F52AC0
F301F2
F301F2
0008C0
003C20
ENDCHAR
STARTCHAR uni04C5
ENCODING 1221
SWIDTH 662 0
DWIDTH 9 0
BBX 9 12 0 -2
BITMAP
00CFFFF700
00C711C700
00D600C700
00D500C700
00E500C700
00E400C700
00F300C700
03F100C700
19C000CB60
9D3000CFB0
0000000A80
0000000C10
ENDCHAR
STARTCHAR uni04C6
ENCODING 1222
SWIDTH 551 0
DWIDTH 8 0
BBX 8 10 0 -2
BITMAP
03FFFF20
04E12F20
04D01F20
05D01F20
06C01F20
07A01F20
2C701F83
9B101FE6
000001E3
000004A0
ENDCHAR
STARTCHAR uni04C7
ENCODING 1223
SWIDTH 620 0
DWIDTH 9 0
BBX 7 13 1 -3
BITMAP
D6000B80
D6000B80
D6000B80
D6000B80
DFFFFF80
D7111B80
D6000B80
D6000B80
D6000B80
D6000B80
00000B80
00002E60
0000EB10
ENDCHAR
STARTCHAR uni04C8
ENCODING 1224
SWIDTH 498 0
DWIDTH 7 0
BBX 6 11 0 -3
BITMAP
1F203F
1F203F
1F203F
1FFFFF
1F303F
1F203F
1F203F
1F203F
00003F
00016D
0007E5
ENDCHAR
STARTCHAR uni04C9
ENCODING 1225
SWIDTH 671 0
DWIDTH 9 0
BBX 8 12 1 -2
BITMAP
E5000A90
E5000A90
E5000A90
E5000A90
EFFFFF90
E6111A90
E5000A90
E5000A90
E5000AC7
E5000AFD
0000008A
000000B2
ENDCHAR
STARTCHAR uni04CA
ENCODING 1226
SWIDTH 550 0
DWIDTH 8 0
BBX 7 10 1 -2
BITMAP
F402F100
F402F100
F402F100
F402F100
FFFFF100
F402F100
F402F830
F402FE60
00001F30
00004900
ENDCHAR
STARTCHAR uni04CB
ENCODING 1227
SWIDTH 600 0
DWIDTH 8 0
BBX 8 13 0 -3
BITMAP
1F3000F4
1F3000F4
1F3000F4
0F4000F4
0C9114F4
03CFFDF4
000100F4
000000F4
000000F4
00000FF4
00000F30
00000F30
00000F30
ENDCHAR
STARTCHAR uni04CC
ENCODING 1228
SWIDTH 479 0
DWIDTH 7 0
BBX 6 11 0 -3
BITMAP
4E008B
4E008B
4E008B
1F419B
06EFEB
00008B
00008B
0009FB
000990
000990
000990
ENDCHAR
STARTCHAR uni04CD
ENCODING 1229
SWIDTH 801 0
DWIDTH 11 0
BBX 10 12 1 -2
BITMAP
ED00004F80
EF20009F80
EE7000EE80
E9C004EA80
E5F2089B80
E5B70D4B80
E56B3E0B80
E51E990B80
E50BF40BC5
E506E00BFA
00000000B7
00000001C1
ENDCHAR
STARTCHAR uni04CE
ENCODING 1230
SWIDTH 687 0
DWIDTH 10 0
BBX 9 10 1 -2
BITMAP
FB000AF000
FF100EF000
FE504EF000
F9A09AF000
F4E1E5F000
F3B8C3F000
F36F73F720
F31F23FE50
0000002F20
0000005800
ENDCHAR
STARTCHAR uni04CF
ENCODING 1231
SWIDTH 250 0
DWIDTH 4 0
BBX 2 10 1 0
BITMAP
D6
D6
D6
D6
D6
D6
D6
D6
D6
D6
ENDCHAR
STARTCHAR uni04D0
ENCODING 1232
SWIDTH 576 0
DWIDTH 8 0
BBX 8 13 0 0
BITMAP
00D42E10
005DE600
00000000
000AB000
000EF100
005CB600
00976B00
00E21E10
04D00C50
09FFFFA0
0D4113E0
3E0000E5
8B0000A9
ENDCHAR
STARTCHAR uni04D1
ENCODING 1233
SWIDTH 479 0
DWIDTH 7 0
BBX 6 11 0 0
BITMAP
07A1A7
01BEB1
000000
03CEB1
0E71B9
02007B
03CFFB
0E817B
3F007B
1F53DC
07EC8E
ENDCHAR
STARTCHAR uni04D2
ENCODING 1234
SWIDTH 576 0
DWIDTH 8 0
BBX 8 13 0 0
BITMAP
00510500
01E31E30
00000000
000AB000
000EF100
005CB600
00976B00
00E21E10
04D00C50
09FFFFA0
0D4113E0
3E0000E5
8B0000A9
ENDCHAR
STARTCHAR uni04D3
ENCODING 1235
SWIDTH 479 0
DWIDTH 7 0
BBX 6 11 0 0
BITMAP
033033
089098
000000
03CEB1
0E71B9
02007B
03CFFB
0E817B
3F007B
1F53DC
07EC8E
ENDCHAR
STARTCHAR uni04D4
ENCODING 1236
SWIDTH 812 0
DWIDTH 11 0
BBX 12 10 0 0
BITMAP
00003FFFFFA0
0000BEB11100
0003E7C00000
000B76C00000
004E15FFFF40
00B605D00000
04FFFFE00000
0B8336E00000
4F1003F00000
BA0003FFFFF1
ENDCHAR
STARTCHAR uni04D5
ENCODING 1237
SWIDTH 728 0
DWIDTH 10 0
BBX 10 8 0 0
BITMAP
06DE94DE80
2F52DF42D5
0200AA0099
07DFFFFFFA
3F40990000
6C009C0000
4E24EF6154
09ED54DEB3
ENDCHAR
STARTCHAR uni04D6
ENCODING 1238
SWIDTH 496 0
DWIDTH 7 0
BBX 6 13 1 0
BITMAP
4D17A0
09EC20
000000
EFFFF5
E61110
E50000
E50000
EFFFD0
E61110
E50000
E50000
E61110
EFFFF6
ENDCHAR
STARTCHAR uni04D7
ENCODING 1239
SWIDTH 468 0
DWIDTH 7 0
BBX 6 11 0 0
BITMAP
0991C5
02CEA0
000000
02CEB2
0D71AA
3E004E
5FFFFF
5E1111
3F1000
0D8149
03CFD5
ENDCHAR
STARTCHAR uni04D8
ENCODING 1240
SWIDTH 597 0
DWIDTH 8 0
BBX 8 10 0 0
BITMAP
04CEE800
04524DA0
000003F3
000000D7
000000B8
6FFFFFF8
5D0000C7
2F1002F2
0BB33BA0
01AEE900
ENDCHAR
STARTCHAR uni04D9
ENCODING 1241
SWIDTH 465 0
DWIDTH 7 0
BBX 6 8 0 0
BITMAP
07DE80
0933E5
00008B
00005D
4FFFFE
3E007B
0E62D5
04DE80
ENDCHAR
STARTCHAR uni04DA
ENCODING 1242
SWIDTH 597 0
DWIDTH 8 0
BBX 8 13 0 0
BITMAP
01402400
05D06C00
00000000
04CEE800
04524DA0
000003F3
000000D7
000000B8
6FFFFFF8
5D0000C7
2F1002F2
0BB33BA0
01AEE900
ENDCHAR
STARTCHAR uni04DB
ENCODING 1243
SWIDTH 465 0
DWIDTH 7 0
BBX 6 11 0 0
BITMAP
042042
0B70C6
000000
07DE80
0933E5
00008B
00005D
4FFFFE
3E007B
0E62D5
04DE80
ENDCHAR
STARTCHAR uni04DC
ENCODING 1244
SWIDTH 791 0
DWIDTH 11 0
BBX 11 13 0 0
BITMAP
000240330000
0007A08A0000
000000000000
3F400F402F50
09C00F409C00
01E40F42F300
007C0F499000
001FFFFF4000
008D2F5BA000
01E60F44F300
07E10F40CA00
1E800F405F20
7F200F400D90
ENDCHAR
STARTCHAR uni04DD
ENCODING 1245
SWIDTH 662 0
DWIDTH 9 0
BBX 9 11 0 0
BITMAP
0024023000
007B08A000
0000000000
5F10F30C90
0D60F33F20
07C0F38B00
01F2F3E400
00BFFFE000
04F3F5D700
0C90F35E20
7E10F30CA0
ENDCHAR
STARTCHAR uni04DE
ENCODING 1246
SWIDTH 517 0
DWIDTH 7 0
BBX 7 13 0 0
BITMAP
02402300
07B08A00
00000000
03CED600
1E825F40
2A000C70
00003E40
004FF800
00015E40
00000A90
4B000B80
2E725F30
04CED500
ENDCHAR
STARTCHAR uni04DF
ENCODING 1247
SWIDTH 446 0
DWIDTH 6 0
BBX 6 11 0 0
BITMAP
051051
0D41E3
000000
06DEA0
2F42E5
1401E4
00EFC0
0012D5
2500A8
3F42E5
06DE90
ENDCHAR
STARTCHAR uni04E0
ENCODING 1248
SWIDTH 510 0
DWIDTH 7 0
BBX 7 10 0 0
BITMAP
0FFFFF00
0111C800
0007C000
004E2000
009FC300
00018E10
00000F40
3D100F40
1E828E10
03CEC300
ENDCHAR
STARTCHAR uni04E1
ENCODING 1249
SWIDTH 510 0
DWIDTH 7 0
BBX 7 11 0 -3
BITMAP
0FFFFF00
0111C900
0005F200
000C8000
005E1000
009FB300
00017D10
12000E30
3F100E40
0D818E10
03CEC300
ENDCHAR
STARTCHAR uni04E2
ENCODING 1250
SWIDTH 619 0
DWIDTH 9 0
BBX 7 12 1 0
BITMAP
09FFF500
00000000
D6001E80
D6007F80
D601ED80
D607AB80
D61E2B80
D68A0B80
D7E20B80
DDA00B80
DF200B80
DA000B80
ENDCHAR
STARTCHAR uni04E3
ENCODING 1251
SWIDTH 509 0
DWIDTH 7 0
BBX 6 10 1 0
BITMAP
6FFF90
000000
F305F2
F30CF2
F34DF2
F3B6F2
F6C1F2
FD61F2
FD01F2
F701F2
ENDCHAR
STARTCHAR uni04E4
ENCODING 1252
SWIDTH 619 0
DWIDTH 9 0
BBX 7 13 1 0
BITMAP
04204200
0A70B600
00000000
D6001E80
D6007F80
D601ED80
D607AB80
D61E2B80
D68A0B80
D7E20B80
DDA00B80
DF200B80
DA000B80
ENDCHAR
STARTCHAR uni04E5
ENCODING 1253
SWIDTH 509 0
DWIDTH 7 0
BBX 6 11 1 0
BITMAP
240330
7A08A0
000000
F305F2
F30CF2
F34DF2
F3B6F2
F6C1F2
FD61F2
FD01F2
F701F2
ENDCHAR
STARTCHAR uni04E6
ENCODING 1254
SWIDTH 600 0
DWIDTH 8 0
BBX 8 13 0 0
BITMAP
00410510
00C60D50
00000000
008EFB20
07E53AD0
0D6000E5
1F2000C7
2F1000B8
2F1000B8
1F2000B7
0E6000E5
07D439D0
008EFB20
ENDCHAR
STARTCHAR uni04E7
ENCODING 1255
SWIDTH 501 0
DWIDTH 7 0
BBX 7 11 0 0
BITMAP
03303200
0990A800
00000000
02BEB200
0C929D00
3F101F30
5D000D50
5D000D50
3F100E30
0D817D00
02BEC200
ENDCHAR
STARTCHAR uni04E8
ENCODING 1256
SWIDTH 593 0
DWIDTH 8 0
BBX 8 10 0 0
BITMAP
007EE910
07D43BA0
0E4001F2
3F0000C6
4FFFFFF7
4F1000C7
3F2000E6
0E6003F2
07E43CB0
007EEA10
ENDCHAR
STARTCHAR uni04E9
ENCODING 1257
SWIDTH 497 0
DWIDTH 7 0
BBX 7 8 0 0
BITMAP
02BFB200
0B828B00
2F000E20
4FFFFF50
4E111E50
2F202F20
0BA2AB00
02BFC200
ENDCHAR
STARTCHAR uni04EA
ENCODING 1258
SWIDTH 593 0
DWIDTH 8 0
BBX 8 13 0 0
BITMAP
00420410
00C60C50
00000000
007EE910
07D43BA0
0E4001F2
3F0000C6
4FFFFFF7
4F1000C7
3F2000E6
0E6003F2
07E43CB0
007EEA10
ENDCHAR
STARTCHAR uni04EB
ENCODING 1259
SWIDTH 497 0
DWIDTH 7 0
BBX 7 11 0 0
BITMAP
04204200
0A70B600
00000000
02BFB200
0B828B00
2F000E20
4FFFFF50
4E111E50
2F202F20
0BA2AB00
02BFC200
ENDCHAR
STARTCHAR uni04EC
ENCODING 1260
SWIDTH 589 0
DWIDTH 8 0
BBX 7 13 1 0
BITMAP
05105100
0D41E300
00000000
08DEA100
7D33BA00
D6001E30
41000C60
00FFFF70
00111C80
31000D60
D6002F30
7D33CB00
08DEA100
ENDCHAR
STARTCHAR uni04ED
ENCODING 1261
SWIDTH 472 0
DWIDTH 7 0
BBX 6 11 0 0
BITMAP
042041
0B60C6
000000
04DE70
2E42D4
14007A
008FFC
00017C
3A009A
1E53E5
04DE70
ENDCHAR
STARTCHAR uni04EE
ENCODING 1262
SWIDTH 547 0
DWIDTH 8 0
BBX 8 12 0 0
BITMAP
01FFFD00
00000000
3F3006E1
0C800BA0
07D01F40
01F46E00
00A9B900
005EF400
000EE000
000B8000
003F3000
04E80000
ENDCHAR
STARTCHAR uni04EF
ENCODING 1263
SWIDTH 416 0
DWIDTH 6 0
BBX 6 13 0 -3
BITMAP
0EFFF1
000000
9A00D6
5E01F2
1F25D0
0C6890
08AC50
04EF10
00EC00
00A800
00C400
15E000
5E4000
ENDCHAR
STARTCHAR uni04F0
ENCODING 1264
SWIDTH 547 0
DWIDTH 8 0
BBX 8 13 0 0
BITMAP
01501500
03E14D00
00000000
3F3006E1
0C800BA0
07D01F40
01F46E00
00A9B900
005EF400
000EE000
000B8000
003F3000
04E80000
ENDCHAR
STARTCHAR uni04F1
ENCODING 1265
SWIDTH 416 0
DWIDTH 6 0
BBX 6 14 0 -3
BITMAP
051050
1E32E2
000000
9A00D6
5E01F2
1F25D0
0C6890
08AC50
04EF10
00EC00
00A800
00C400
15E000
5E4000
ENDCHAR
STARTCHAR uni04F2
ENCODING 1266
SWIDTH 547 0
DWIDTH 8 0
BBX 8 13 0 0
BITMAP
001E6E40
00599700
00000000
3F3006E1
0C800BA0
07D01F40
01F46E00
00A9B900
005EF400
000EE000
000B8000
003F3000
04E80000
ENDCHAR
STARTCHAR uni04F3
ENCODING 1267
SWIDTH 416 0
DWIDTH 6 0
BBX 6 14 0 -3
BITMAP
00C7D6
03B790
000000
9A00D6
5E01F2
1F25D0
0C6890
08AC50
04EF10
00EC00
00A800
00C400
15E000
5E4000
ENDCHAR
STARTCHAR uni04F4
ENCODING 1268
SWIDTH 600 0
DWIDTH 8 0
BBX 8 13 0 0
BITMAP
00510510
00D41E30
00000000
1F3000F4
1F3000F4
1F3000F4
0F4000F4
0C9114F4
03CFFDF4
000100F4
000000F4
000000F4
000000F4
ENDCHAR
STARTCHAR uni04F5
ENCODING 1269
SWIDTH 479 0
DWIDTH 7 0
BBX 6 11 0 0
BITMAP
051051
0D50D4
000000
4E008B
4E008B
4E008B
1F419B
06EFEB
00008B
00008B
00008B
ENDCHAR
STARTCHAR uni04F6
ENCODING 1270
SWIDTH 487 0
DWIDTH 7 0
BBX 6 13 1 -3
BITMAP
DFFFF5
D71110
D60000
D60000
D60000
D60000
D60000
D60000
D60000
DF6000
0C6000
0C6000
0C6000
ENDCHAR
STARTCHAR uni04F7
ENCODING 1271
SWIDTH 371 0
DWIDTH 5 0
BBX 4 11 1 -3
BITMAP
FFFF
F411
F300
F300
F300
F300
F300
FF40
0E40
0E40
0E40
ENDCHAR
STARTCHAR uni04F8
ENCODING 1272
SWIDTH 755 0
DWIDTH 11 0
BBX 9 13 1 0
BITMAP
0042041000
00C60C5000
0000000000
D600000D60
D600000D60
D600000D60
D600000D60
DFFFC30D60
D7129D0D60
D6001F3D60
D6001F3D60
D7129D0D60
DFFFC30D60
ENDCHAR
STARTCHAR uni04F9
ENCODING 1273
SWIDTH 679 0
DWIDTH 10 0
BBX 8 11 1 0
BITMAP
02402400
06C07B00
00000000
F30000D5
F30000D5
F30000D5
FFFD30D5
F418D0D5
F303F0D5
F417D0D5
FFFD30D5
ENDCHAR
STARTCHAR uni04FA
ENCODING 1274
SWIDTH 520 0
DWIDTH 7 0
BBX 7 13 0 -3
BITMAP
06FFFFC0
06D11110
06D00000
06D00000
06D00000
7FFF4000
06D00000
06D00000
06D10000
06FE0000
004E0000
018C0000
08E40000
ENDCHAR
STARTCHAR uni04FB
ENCODING 1275
SWIDTH 410 0
DWIDTH 6 0
BBX 6 11 0 -3
BITMAP
07FFF8
07C110
07C000
07C000
7FFF40
07C000
07C100
07FC00
006C00
019A00
09D300
ENDCHAR
STARTCHAR uni04FC
ENCODING 1276
SWIDTH 570 0
DWIDTH 8 0
BBX 8 13 0 -3
BITMAP
3F3007E1
0AB01E60
03F37D00
00ABE600
002FD000
003FD000
00ABD700
03F37E10
0BA01E80
4F3007FC
0000008A
000002B9
00000BC2
ENDCHAR
STARTCHAR uni04FD
ENCODING 1277
SWIDTH 476 0
DWIDTH 7 0
BBX 7 11 0 -3
BITMAP
5E10D700
0C75E100
05DC7000
00CE0000
00DE1000
06DB7000
0D64E100
6E10DF40
00000E40
00003F20
0003E900
ENDCHAR
STARTCHAR uni04FE
ENCODING 1278
SWIDTH 550 0
DWIDTH 8 0
BBX 8 10 0 0
BITMAP
3F3007D1
09B01E50
01E37C00
007BE300
00FFFB00
005FF200
00CBD800
05F37E10
0CA01E80
4F3007E1
ENDCHAR
STARTCHAR uni04FF
ENCODING 1279
SWIDTH 438 0
DWIDTH 6 0
BBX 6 8 0 0
BITMAP
5E10D6
0B75D0
03DC40
0CFFE0
02FF30
08DB90
1E64F1
6E10D8
ENDCHAR
STARTCHAR uni0500
ENCODING 1280
SWIDTH 555 0
DWIDTH 8 0
BBX 7 10 0 0
BITMAP
000007C0
000007C0
000007C0
000007C0
03CFFFC0
1E8218C0
4F0007C0
4F0007C0
1E8218C0
03CFFFC0
ENDCHAR
STARTCHAR uni0501
ENCODING 1281
SWIDTH 496 0
DWIDTH 7 0
BBX 6 11 0 0
BITMAP
00003F
00003F
00003F
04DE9F
0E82AF
3E003F
5D003F
5D003F
3E003F
0E72AF
04DE8F
ENDCHAR
STARTCHAR uni0502
ENCODING 1282
SWIDTH 723 0
DWIDTH 10 0
BBX 10 10 0 0
BITMAP
000007C000
000007C000
000007C000
000007C000
03CFFFC021
1E8218C0B8
4F0007C08A
4F0007C09A
1E8218C2D6
03CFFFFE90
ENDCHAR
STARTCHAR uni0503
ENCODING 1283
SWIDTH 743 0
DWIDTH 10 0
BBX 10 11 0 0
BITMAP
00004E0000
00004E0000
00004E0000
03DEAE0000
0C92AE0072
2F204E00B7
4E004E0099
4E004E0099
3F104E00B7
0D82AF35F2
03DE68ED50
ENDCHAR
STARTCHAR uni0504
ENCODING 1284
SWIDTH 685 0
DWIDTH 10 0
BBX 9 10 0 0
BITMAP
8FFC400000
1117E10000
0000E40000
0000E50630
0006E10A80
06FF6009A0
0016F209A0
0000E50B80
0000C94F30
00005EE700
ENDCHAR
STARTCHAR uni0505
ENCODING 1285
SWIDTH 562 0
DWIDTH 8 0
BBX 8 8 0 0
BITMAP
8FE70000
003E4000
000C6130
002E41F3
1FFC00D5
002D60E4
000B85E1
0005ED50
ENDCHAR
STARTCHAR uni0506
ENCODING 1286
SWIDTH 470 0
DWIDTH 7 0
BBX 6 12 0 -2
BITMAP
6FEA10
002BA0
0005D0
0004E0
001B90
0EFE20
001BB0
0004E0
0004F7
0002FF
00005D
000084
ENDCHAR
STARTCHAR uni0507
ENCODING 1287
SWIDTH 443 0
DWIDTH 6 0
BBX 6 10 0 -2
BITMAP
2FFC20
001AB0
0005D0
0009A0
0CFF30
0018C0
0004E5
0003FE
00006B
000093
ENDCHAR
STARTCHAR uni0508
ENCODING 1288
SWIDTH 834 0
DWIDTH 12 0
BBX 12 10 0 0
BITMAP
00AFFFF60000
00B811D60000
00B700D60000
00C700D60360
00C600D604E0
00D600D603F1
00E400D602F1
01F200D605E0
18D000BA2C90
7D40003DEA10
ENDCHAR
STARTCHAR uni0509
ENCODING 1289
SWIDTH 698 0
DWIDTH 10 0
BBX 10 8 0 0
BITMAP
01FFFF0000
02F24F0010
02F03F01F1
03F03F00E4
03E03F00D5
05C03F00E4
1B901F56E0
7D2006ED40
ENDCHAR
STARTCHAR uni050A
ENCODING 1290
SWIDTH 864 0
DWIDTH 12 0
BBX 11 10 1 0
BITMAP
E5000C800000
E5000C800000
E5000C800000
E5000C802700
EFFFFF803F10
E6111C801F30
E5000C801F30
E5000B803F10
E50008B2BA00
E50001CEB100
ENDCHAR
STARTCHAR uni050B
ENCODING 1291
SWIDTH 716 0
DWIDTH 10 0
BBX 10 8 0 0
BITMAP
1F201F2000
1F201F2010
1F201F20E3
1FFFFF20C6
1F302F20B7
1F201F20C6
1F200D64F2
1F2004DE50
ENDCHAR
STARTCHAR uni050C
ENCODING 1292
SWIDTH 541 0
DWIDTH 8 0
BBX 7 10 0 0
BITMAP
007DEB10
07E42500
0E500000
3F200000
3F000450
3F0006C0
3F2005E0
0E5006D0
07E42C80
007EE910
ENDCHAR
STARTCHAR uni050D
ENCODING 1293
SWIDTH 452 0
DWIDTH 6 0
BBX 6 8 0 0
BITMAP
02CFC0
0B9140
2F1000
4E0000
4E0077
2F108A
0B91B8
02BFC2
ENDCHAR
STARTCHAR uni050E
ENCODING 1294
SWIDTH 616 0
DWIDTH 9 0
BBX 8 10 0 0
BITMAP
AFFFFFE0
111F5110
000F4000
000F4045
000F406C
000F405E
000F405E
000F407C
000D83D7
0004DE80
ENDCHAR
STARTCHAR uni050F
ENCODING 1295
SWIDTH 558 0
DWIDTH 8 0
BBX 8 8 0 0
BITMAP
7FFFFB00
007B0000
007B0230
007B04E0
007B02F1
007C02F1
004E28C0
0009EC20
ENDCHAR
STARTCHAR uni0510
ENCODING 1296
SWIDTH 589 0
DWIDTH 8 0
BBX 7 10 1 0
BITMAP
19DFC400
9D428E20
C7000A40
8C200000
0CFF5000
9C310000
E5000000
D6000A60
8D427F30
08DFC500
ENDCHAR
STARTCHAR uni0511
ENCODING 1297
SWIDTH 470 0
DWIDTH 7 0
BBX 6 8 0 0
BITMAP
04DEA1
1E62C8
2F0058
1E5000
07FF70
3F3024
3F31AB
07DEB2
ENDCHAR
STARTCHAR uni0512
ENCODING 1298
SWIDTH 664 0
DWIDTH 9 0
BBX 9 13 0 -3
BITMAP
00CFFFF700
00C711C700
00D600C700
00D500C700
00E500C700
00E400C700
00F300C700
03F100C700
19C000C700
9D3000CFA0
00000008A0
0000002B80
000000CC20
ENDCHAR
STARTCHAR uni0513
ENCODING 1299
SWIDTH 553 0
DWIDTH 8 0
BBX 8 11 0 -3
BITMAP
03FFFF20
04E12F20
04D01F20
05D01F20
06C01F20
07A01F20
2C701F20
9B101FF5
000000D5
000003F3
00002E90
ENDCHAR
STARTCHAR uni1E00
ENCODING 7680
SWIDTH 576 0
DWIDTH 8 0
BBX 8 14 0 -4
BITMAP
000AB000
000EF100
005CB600
00976B00
00E21E10
04D00C50
09FFFFA0
0D4113E0
3E0000E5
8B0000A9
00000000
0009C000
000A8100
0009C000
ENDCHAR
STARTCHAR uni1E01
ENCODING 7681
SWIDTH 479 0
DWIDTH 7 0
BBX 6 12 0 -4
BITMAP
03CEB1
0E71B9
02007B
03CFFB
0E817B
3F007B
1F53DC
07EC8E
000000
00BA00
009A00
00BA00
ENDCHAR
STARTCHAR uni1E3E
ENCODING 7742
SWIDTH 755 0
DWIDTH 11 0
BBX 9 13 1 0
BITMAP
00008D1000
0002C20000
0000000000
ED00004F80
EF20009F80
EE7000EE80
E9C004EA80
E5F2089B80
E5B70D4B80
E56B3E0B80
E51E990B80
E50BF40B80
E506E00B80
ENDCHAR
STARTCHAR uni1E3F
ENCODING 7743
SWIDTH 752 0
DWIDTH 11 0
BBX 10 11 0 0
BITMAP
000007E200
00001C3000
0000000000
1F8ED4BEB1
1F82BF62D6
1F206E0099
1F205D0099
1F205D0099
1F205D0099
1F205D0099
1F205D0099
ENDCHAR
STARTCHAR Wgrave
ENCODING 7808
SWIDTH 761 0
DWIDTH 11 0
BBX 11 13 0 0
BITMAP
0004E4000000
00006B000000
000000000000
6C003F101F30
3F007F403F00
1F30AD706C00
0C50E6B09900
0982D1E0B600
06B6A0D2E300
03E96097F000
01FD306DC000
00CE002F9000
009B000E6000
ENDCHAR
STARTCHAR wgrave
ENCODING 7809
SWIDTH 649 0
DWIDTH 9 0
BBX 9 11 0 0
BITMAP
003E500000
0004C10000
0000000000
8A01F20890
5D05F60B60
1F19D90E30
0D4C6D2E00
0A8E0E7B00
06EB0AD700
03F706F400
00E302F100
ENDCHAR
STARTCHAR Wacute
ENCODING 7810
SWIDTH 761 0
DWIDTH 11 0
BBX 11 13 0 0
BITMAP
000006E30000
00001C400000
000000000000
6C003F101F30
3F007F403F00
1F30AD706C00
0C50E6B09900
0982D1E0B600
06B6A0D2E300
03E96097F000
01FD306DC000
00CE002F9000
009B000E6000
ENDCHAR
STARTCHAR wacute
ENCODING 7811
SWIDTH 649 0
DWIDTH 9 0
BBX 9 11 0 0
BITMAP
00005E4000
0000C50000
0000000000
8A01F20890
5D05F60B60
1F19D90E30
0D4C6D2E00
0A8E0E7B00
06EB0AD700
03F706F400
00E302F100
ENDCHAR
STARTCHAR Wdieresis
ENCODING 7812
SWIDTH 761 0
DWIDTH 11 0
BBX 11 13 0 0
BITMAP
000330320000
000990A80000
000000000000
6C003F101F30
3F007F403F00
1F30AD706C00
0C50E6B09900
0982D1E0B600
06B6A0D2E300
03E96097F000
01FD306DC000
00CE002F9000
009B000E6000
ENDCHAR
STARTCHAR wdieresis
ENCODING 7813
SWIDTH 649 0
DWIDTH 9 0
BBX 9 11 0 0
BITMAP
0023033000
008A099000
0000000000
8A01F20890
5D05F60B60
1F19D90E30
0D4C6D2E00
0A8E0E7B00
06EB0AD700
03F706F400
00E302F100
ENDCHAR
STARTCHAR uni1EA0
ENCODING 7840
SWIDTH 576 0
DWIDTH 8 0
BBX 8 13 0 -3
BITMAP
000AB000
000EF100
005CB600
00976B00
00E21E10
04D00C50
09FFFFA0
0D4113E0
3E0000E5
8B0000A9
00000000
0008A000
00034000
ENDCHAR
STARTCHAR uni1EA1
ENCODING 7841
SWIDTH 479 0
DWIDTH 7 0
BBX 6 11 0 -3
BITMAP
03CEB1
0E71B9
02007B
03CFFB
0E817B
3F007B
1F53DC
07EC8E
000000
009800
003300
ENDCHAR
STARTCHAR uni1EA2
ENCODING 7842
SWIDTH 576 0
DWIDTH 8 0
BBX 8 14 0 0
BITMAP
0006C100
0000B400
0005B000
00000000
000AB000
000EF100
005CB600
00976B00
00E21E10
04D00C50
09FFFFA0
0D4113E0
3E0000E5
8B0000A9
ENDCHAR
STARTCHAR uni1EA3
ENCODING 7843
SWIDTH 479 0
DWIDTH 7 0
BBX 6 12 0 0
BITMAP
000E60
0005B0
000D30
000000
03CEB1
0E71B9
02007B
03CFFB
0E817B
3F007B
1F53DC
07EC8E
ENDCHAR
STARTCHAR uni1EA4
ENCODING 7844
SWIDTH 576 0
DWIDTH 8 0
BBX 8 14 0 0
BITMAP
000000A9
002DD4C1
00A86B10
00000000
000AB000
000EF100
005CB600
00976B00
00E21E10
04D00C50
09FFFFA0
0D4113E0
3E0000E5
8B0000A9
ENDCHAR
STARTCHAR uni1EA5
ENCODING 7845
SWIDTH 479 0
DWIDTH 7 0
BBX 8 12 0 0
BITMAP
000004E1
008F8760
05C2C400
00000000
03CEB100
0E71B900
02007B00
03CFFB00
0E817B00
3F007B00
1F53DC00
07EC8E00
ENDCHAR
STARTCHAR uni1EA6
ENCODING 7846
SWIDTH 576 0
DWIDTH 8 0
BBX 8 14 0 0
BITMAP
7C000000
0B4DD300
00A86B10
00000000
000AB000
000EF100
005CB600
00976B00
00E21E10
04D00C50
09FFFFA0
0D4113E0
3E0000E5
8B0000A9
ENDCHAR
STARTCHAR uni1EA7
ENCODING 7847
SWIDTH 479 0
DWIDTH 7 0
BBX 7 12 -1 0
BITMAP
2E300000
0779F800
005C2C40
00000000
003CEB10
00E71B90
002007B0
003CFFB0
00E817B0
03F007B0
01F53DC0
007EC8E0
ENDCHAR
STARTCHAR uni1EA8
ENCODING 7848
SWIDTH 576 0
DWIDTH 8 0
BBX 8 15 0 0
BITMAP
000004A0
000001C1
003DD890
00B53C10
00000000
000AB000
000EF100
005CB600
00976B00
00E21E10
04D00C50
09FFFFA0
0D4113E0
3E0000E5
8B0000A9
ENDCHAR
STARTCHAR uni1EA9
ENCODING 7849
SWIDTH 479 0
DWIDTH 7 0
BBX 7 13 0 0
BITMAP
00000B40
00000770
00AD9C10
05B1B400
00000000
03CEB100
0E71B900
02007B00
03CFFB00
0E817B00
3F007B00
1F53DC00
07EC8E00
ENDCHAR
STARTCHAR uni1EAA
ENCODING 7850
SWIDTH 576 0
DWIDTH 8 0
BBX 8 16 0 0
BITMAP
003D3700
0063D300
00000000
002CD300
00B64C10
00000000
000AB000
000EF100
005CB600
00976B00
00E21E10
04D00C50
09FFFFA0
0D4113E0
3E0000E5
8B0000A9
ENDCHAR
STARTCHAR uni1EAB
ENCODING 7851
SWIDTH 479 0
DWIDTH 7 0
BBX 6 14 0 0
BITMAP
00B680
017990
000000
008E70
05B1B4
000000
03CEB1
0E71B9
02007B
03CFFB
0E817B
3F007B
1F53DC
07EC8E
ENDCHAR
STARTCHAR uni1EAC
ENCODING 7852
SWIDTH 576 0
DWIDTH 8 0
BBX 8 16 0 -3
BITMAP
001BC100
00687800
00000000
000AB000
000EF100
005CB600
00976B00
00E21E10
04D00C50
09FFFFA0
0D4113E0
3E0000E5
8B0000A9
00000000
0008A000
00034000
ENDCHAR
STARTCHAR uni1EAD
ENCODING 7853
SWIDTH 479 0
DWIDTH 7 0
BBX 6 14 0 -3
BITMAP
006E50
01C3C1
000000
03CEB1
0E71B9
02007B
03CFFB
0E817B
3F007B
1F53DC
07EC8E
000000
009800
003300
ENDCHAR
STARTCHAR uni1EAE
ENCODING 7854
SWIDTH 576 0
DWIDTH 8 0
BBX 8 15 0 0
BITMAP
0000D100
00028000
00A76B00
003DD400
00000000
000AB000
000EF100
005CB600
00976B00
00E21E10
04D00C50
09FFFFA0
0D4113E0
3E0000E5
8B0000A9
ENDCHAR
STARTCHAR uni1EAF
ENCODING 7855
SWIDTH 479 0
DWIDTH 7 0
BBX 6 13 0 0
BITMAP
000770
000910
03C2E2
00AE90
000000
03CEB1
0E71B9
02007B
03CFFB
0E817B
3F007B
1F53DC
07EC8E
ENDCHAR
STARTCHAR uni1EB0
ENCODING 7856
SWIDTH 576 0
DWIDTH 8 0
BBX 8 15 0 0
BITMAP
000D1000
00064000
00A76B00
003DD400
00000000
000AB000
000EF100
005CB600
00976B00
00E21E10
04D00C50
09FFFFA0
0D4113E0
3E0000E5
8B0000A9
ENDCHAR
STARTCHAR uni1EB1
ENCODING 7857
SWIDTH 479 0
DWIDTH 7 0
BBX 6 13 0 0
BITMAP
007700
001900
03C2E2
00AE90
000000
03CEB1
0E71B9
02007B
03CFFB
0E817B
3F007B
1F53DC
07EC8E
ENDCHAR
STARTCHAR uni1EB2
ENCODING 7858
SWIDTH 576 0
DWIDTH 8 0
BBX 8 16 0 0
BITMAP
0004B100
0002C300
00069000
00A67900
003DD200
00000000
000AB000
000EF100
005CB600
00976B00
00E21E10
04D00C50
09FFFFA0
0D4113E0
3E0000E5
8B0000A9
ENDCHAR
STARTCHAR uni1EB3
ENCODING 7859
SWIDTH 479 0
DWIDTH 7 0
BBX 6 14 0 0
BITMAP
000A50
000890
000D10
03C2E1
00AE70
000000
03CEB1
0E71B9
02007B
03CFFB
0E817B
3F007B
1F53DC
07EC8E
ENDCHAR
STARTCHAR uni1EB4
ENCODING 7860
SWIDTH 576 0
DWIDTH 8 0
BBX 8 16 0 0
BITMAP
003D3800
0073D500
00000000
00A66A00
003DD300
00000000
000AB000
000EF100
005CB600
00976B00
00E21E10
04D00C50
09FFFFA0
0D4113E0
3E0000E5
8B0000A9
ENDCHAR
STARTCHAR uni1EB5
ENCODING 7861
SWIDTH 479 0
DWIDTH 7 0
BBX 6 14 0 0
BITMAP
00B881
0178B0
000000
03C1E1
00AE80
000000
03CEB1
0E71B9
02007B
03CFFB
0E817B
3F007B
1F53DC
07EC8E
ENDCHAR
STARTCHAR uni1EB6
ENCODING 7862
SWIDTH 576 0
DWIDTH 8 0
BBX 8 16 0 -3
BITMAP
00D42E10
005DE600
00000000
000AB000
000EF100
005CB600
00976B00
00E21E10
04D00C50
09FFFFA0
0D4113E0
3E0000E5
8B0000A9
00000000
0008A000
00034000
ENDCHAR
STARTCHAR uni1EB7
ENCODING 7863
SWIDTH 479 0
DWIDTH 7 0
BBX 6 14 0 -3
BITMAP
07A1A7
01BEB1
000000
03CEB1
0E71B9
02007B
03CFFB
0E817B
3F007B
1F53DC
07EC8E
000000
009800
003300
ENDCHAR
STARTCHAR uni1EB8
ENCODING 7864
SWIDTH 496 0
DWIDTH 7 0
BBX 6 13 1 -3
BITMAP
EFFFF5
E61110
E50000
E50000
EFFFD0
E61110
E50000
E50000
E61110
EFFFF6
000000
00D400
005100
ENDCHAR
STARTCHAR uni1EB9
ENCODING 7865
SWIDTH 468 0
DWIDTH 7 0
BBX 6 11 0 -3
BITMAP
02CEB2
0D71AA
3E004E
5FFFFF
5E1111
3F1000
0D8149
03CFD5
000000
004D00
001500
ENDCHAR
STARTCHAR uni1EBA
ENCODING 7866
SWIDTH 496 0
DWIDTH 7 0
BBX 6 14 1 0
BITMAP
00B800
002E00
00B500
000000
EFFFF5
E61110
E50000
E50000
EFFFD0
E61110
E50000
E50000
E61110
EFFFF6
ENDCHAR
STARTCHAR uni1EBB
ENCODING 7867
SWIDTH 468 0
DWIDTH 7 0
BBX 6 12 0 0
BITMAP
001E40
000790
000E20
000000
02CEB2
0D71AA
3E004E
5FFFFF
5E1111
3F1000
0D8149
03CFD5
ENDCHAR
STARTCHAR uni1EBC
ENCODING 7868
SWIDTH 496 0
DWIDTH 7 0
BBX 6 14 1 0
BITMAP
000010
1C93B0
585E50
000000
EFFFF5
E61110
E50000
E50000
EFFFD0
E61110
E50000
E50000
E61110
EFFFF6
ENDCHAR
STARTCHAR uni1EBD
ENCODING 7869
SWIDTH 468 0
DWIDTH 7 0
BBX 6 11 0 0
BITMAP
04E676
0949D1
000000
02CEB2
0D71AA
3E004E
5FFFFF
5E1111
3F1000
0D8149
03CFD5
ENDCHAR
STARTCHAR uni1EBE
ENCODING 7870
SWIDTH 496 0
DWIDTH 7 0
BBX 7 14 1 0
BITMAP
00001E40
05EB5900
2D3B7000
00000000
EFFFF500
E6111000
E5000000
E5000000
EFFFD000
E6111000
E5000000
E5000000
E6111000
EFFFF600
ENDCHAR
STARTCHAR uni1EBF
ENCODING 7871
SWIDTH 468 0
DWIDTH 7 0
BBX 8 12 0 0
BITMAP
000005D1
009E7950
06C2D300
00000000
02CEB200
0D71AA00
3E004E00
5FFFFF00
5E111100
3F100000
0D814900
03CFD500
ENDCHAR
STARTCHAR uni1EC0
ENCODING 7872
SWIDTH 496 0
DWIDTH 7 0
BBX 7 14 0 0
BITMAP
C6000000
4A6EA100
02D3B700
00000000
0EFFFF50
0E611100
0E500000
0E500000
0EFFFD00
0E611100
0E500000
0E500000
0E611100
0EFFFF60
ENDCHAR
STARTCHAR uni1EC1
ENCODING 7873
SWIDTH 468 0
DWIDTH 7 0
BBX 7 12 -1 0
BITMAP
3E200000
086AE600
006B3D30
00000000
002CEB20
00D71AA0
03E004E0
05FFFFF0
05E11110
03F10000
00D81490
003CFD50
ENDCHAR
STARTCHAR uni1EC2
ENCODING 7874
SWIDTH 496 0
DWIDTH 7 0
BBX 6 15 1 0
BITMAP
000086
00004B
07DBB3
3C1970
000000
EFFFF5
E61110
E50000
E50000
EFFFD0
E61110
E50000
E50000
E61110
EFFFF6
ENDCHAR
STARTCHAR uni1EC3
ENCODING 7875
SWIDTH 468 0
DWIDTH 7 0
BBX 7 13 0 0
BITMAP
00001B30
00000860
01BD7D10
0691C300
00000000
02CEB200
0D71AA00
3E004E00
5FFFFF00
5E111100
3F100000
0D814900
03CFD500
ENDCHAR
STARTCHAR uni1EC4
ENCODING 7876
SWIDTH 496 0
DWIDTH 7 0
BBX 6 16 1 0
BITMAP
089620
086C00
000000
05DA00
2C2970
000000
EFFFF5
E61110
E50000
E50000
EFFFD0
E61110
E50000
E50000
E61110
EFFFF6
ENDCHAR
STARTCHAR uni1EC5
ENCODING 7877
SWIDTH 468 0
DWIDTH 7 0
BBX 6 14 0 0
BITMAP
00C580
026A70
000000
009E60
06A1C3
000000
02CEB2
0D71AA
3E004E
5FFFFF
5E1111
3F1000
0D8149
03CFD5
ENDCHAR
STARTCHAR uni1EC6
ENCODING 7878
SWIDTH 496 0
DWIDTH 7 0
BBX 6 16 1 -3
BITMAP
03E800
0B4B30
000000
EFFFF5
E61110
E50000
E50000
EFFFD0
E61110
E50000
E50000
E61110
EFFFF6
000000
00D400
005100
ENDCHAR
STARTCHAR uni1EC7
ENCODING 7879
SWIDTH 468 0
DWIDTH 7 0
BBX 6 14 0 -3
BITMAP
007E40
02C3B0
000000
02CEB2
0D71AA
3E004E
5FFFFF
5E1111
3F1000
0D8149
03CFD5
000000
004D00
001500
ENDCHAR
STARTCHAR uni1EC8
ENCODING 7880
SWIDTH 250 0
DWIDTH 4 0
BBX 2 14 1 0
BITMAP
A9
2E
A6
00
D6
D6
D6
D6
D6
D6
D6
D6
D6
D6
ENDCHAR
STARTCHAR uni1EC9
ENCODING 7881
SWIDTH 234 0
DWIDTH 3 0
BBX 2 12 1 0
BITMAP
C8
3D
C5
00
F3
F3
F3
F3
F3
F3
F3
F3
ENDCHAR
STARTCHAR uni1ECA
ENCODING 7882
SWIDTH 250 0
DWIDTH 4 0
BBX 2 13 1 -3
BITMAP
D6
D6
D6
D6
D6
D6
D6
D6
D6
D6
00
D5
51
ENDCHAR
STARTCHAR uni1ECB
ENCODING 7883
SWIDTH 229 0
DWIDTH 3 0
BBX 3 14 0 -3
BITMAP
0510
0D30
0000
0F30
0F30
0F30
0F30
0F30
0F30
0F30
0F30
0000
1E30
0510
ENDCHAR
STARTCHAR uni1ECC
ENCODING 7884
SWIDTH 600 0
DWIDTH 8 0
BBX 8 13 0 -3
BITMAP
008EFB20
07E53AD0
0D6000E5
1F2000C7
2F1000B8
2F1000B8
1F2000B7
0E6000E5
07D439D0
008EFB20
00000000
0006C000
00024000
ENDCHAR
STARTCHAR uni1ECD
ENCODING 7885
SWIDTH 501 0
DWIDTH 7 0
BBX 7 11 0 -3
BITMAP
02BEB200
0C929D00
3F101F30
5D000D50
5D000D50
3F100E30
0D817D00
02BEC200
00000000
002E2000
00150000
ENDCHAR
STARTCHAR uni1ECE
ENCODING 7886
SWIDTH 600 0
DWIDTH 8 0
BBX 8 14 0 0
BITMAP
0004D300
00009700
0003C100
00000000
008EFB20
07E53AD0
0D6000E5
1F2000C7
2F1000B8
2F1000B8
1F2000B7
0E6000E5
07D439D0
008EFB20
ENDCHAR
STARTCHAR uni1ECF
ENCODING 7887
SWIDTH 501 0
DWIDTH 7 0
BBX 7 12 0 0
BITMAP
000E5000
0006A000
000E3000
00000000
02BEB200
0C929D00
3F101F30
5D000D50
5D000D50
3F100E30
0D817D00
02BEC200
ENDCHAR
STARTCHAR uni1ED0
ENCODING 7888
SWIDTH 600 0
DWIDTH 8 0
BBX 8 14 0 0
BITMAP
0000007C
001BE5B3
008A4D20
00000000
008EFB20
07E53AD0
0D6000E5
1F2000C7
2F1000B8
2F1000B8
1F2000B7
0E6000E5
07D439D0
008EFB20
ENDCHAR
STARTCHAR uni1ED1
ENCODING 7889
SWIDTH 501 0
DWIDTH 7 0
BBX 8 12 0 0
BITMAP
000004E1
009F8860
05C2C400
00000000
02BEB200
0C929D00
3F101F30
5D000D50
5D000D50
3F100E30
0D817D00
02BEC200
ENDCHAR
STARTCHAR uni1ED2
ENCODING 7890
SWIDTH 600 0
DWIDTH 8 0
BBX 8 14 0 0
BITMAP
5D100000
0A5BE500
008A4C20
00000000
008EFB20
07E53AD0
0D6000E5
1F2000C7
2F1000B8
2F1000B8
1F2000B7
0E6000E5
07D439D0
008EFB20
ENDCHAR
STARTCHAR uni1ED3
ENCODING 7891
SWIDTH 501 0
DWIDTH 7 0
BBX 8 12 -1 0
BITMAP
2E200000
0769E700
005C2D40
00000000
002BEB20
00C929D0
03F101F3
05D000D5
05D000D5
03F100E3
00D817D0
002BEC20
ENDCHAR
STARTCHAR uni1ED4
ENCODING 7892
SWIDTH 600 0
DWIDTH 8 0
BBX 8 15 0 0
BITMAP
000002B1
000000A4
001CD8B0
00972C20
00000000
008EFB20
07E53AD0
0D6000E5
1F2000C7
2F1000B8
2F1000B8
1F2000B7
0E6000E5
07D439D0
008EFB20
ENDCHAR
STARTCHAR uni1ED5
ENCODING 7893
SWIDTH 501 0
DWIDTH 7 0
BBX 7 13 0 0
BITMAP
00000B30
00000770
00AD8C10
06A1B400
00000000
02BEB200
0C929D00
3F101F30
5D000D50
5D000D50
3F100E30
0D817D00
02BEC200
ENDCHAR
STARTCHAR uni1ED6
ENCODING 7894
SWIDTH 600 0
DWIDTH 8 0
BBX 8 16 0 0
BITMAP
001D4800
0045C500
00000000
001BD400
00882C20
00000000
008EFB20
07E53AD0
0D6000E5
1F2000C7
2F1000B8
2F1000B8
1F2000B7
0E6000E5
07D439D0
008EFB20
ENDCHAR
STARTCHAR uni1ED7
ENCODING 7895
SWIDTH 501 0
DWIDTH 7 0
BBX 7 14 0 0
BITMAP
00B68000
01798000
00000000
008E7000
05B1C400
00000000
02BEB200
0C929D00
3F101F30
5D000D50
5D000D50
3F100E30
0D817D00
02BEC200
ENDCHAR
STARTCHAR uni1ED8
ENCODING 7896
SWIDTH 600 0
DWIDTH 8 0
BBX 8 16 0 -3
BITMAP
0009D200
004B4A00
00000000
008EFB20
07E53AD0
0D6000E5
1F2000C7
2F1000B8
2F1000B8
1F2000B7
0E6000E5
07D439D0
008EFB20
00000000
0006C000
00024000
ENDCHAR
STARTCHAR uni1ED9
ENCODING 7897
SWIDTH 501 0
DWIDTH 7 0
BBX 7 14 0 -3
BITMAP
006E5000
02C3C100
00000000
02BEB200
0C929D00
3F101F30
5D000D50
5D000D50
3F100E30
0D817D00
02BEC200
00000000
002E2000
00150000
ENDCHAR
STARTCHAR uni1EDA
ENCODING 7898
SWIDTH 592 0
DWIDTH 8 0
BBX 9 13 0 0
BITMAP
0000AC1000
0004C10000
0000000940
008EE92E20
08D44CF800
0E5003F100
3F0000D500
5E0000C600
5E0000C600
4F0000D500
1E5003F200
08D43CA000
008EE91000
ENDCHAR
STARTCHAR uni1EDB
ENCODING 7899
SWIDTH 502 0
DWIDTH 7 0
BBX 8 11 0 0
BITMAP
0005E300
001C4000
00000081
02BEB3E0
0B929F80
2F101F20
4E000E50
4D000E50
2F101F30
0B929C00
02BFC200
ENDCHAR
STARTCHAR uni1EDC
ENCODING 7900
SWIDTH 592 0
DWIDTH 8 0
BBX 9 13 0 0
BITMAP
008D100000
000A700000
0000000940
008EE92E20
08D44CF800
0E5003F100
3F0000D500
5E0000C600
5E0000C600
4F0000D500
1E5003F200
08D43CA000
008EE91000
ENDCHAR
STARTCHAR uni1EDD
ENCODING 7901
SWIDTH 502 0
DWIDTH 7 0
BBX 8 11 0 0
BITMAP
03E50000
005C0000
00000081
02BEB3E0
0B929F80
2F101F20
4E000E50
4D000E50
2F101F30
0B929C00
02BFC200
ENDCHAR
STARTCHAR uni1EDE
ENCODING 7902
SWIDTH 592 0
DWIDTH 8 0
BBX 9 14 0 0
BITMAP
0005D20000
0000A60000
0004B10000
0000000940
008EE92E20
08D44CF800
0E5003F100
3F0000D500
5E0000C600
5E0000C600
4F0000D500
1E5003F200
08D43CA000
008EE91000
ENDCHAR
STARTCHAR uni1EDF
ENCODING 7903
SWIDTH 502 0
DWIDTH 7 0
BBX 8 12 0 0
BITMAP
000E6000
0005B000
000D3000
00000081
02BEB3E0
0B929F80
2F101F20
4E000E50
4D000E50
2F101F30
0B929C00
02BFC200
ENDCHAR
STARTCHAR uni1EE0
ENCODING 7904
SWIDTH 592 0
DWIDTH 8 0
BBX 9 14 0 0
BITMAP
0000010000
007D3B2000
00C2CB0000
0000000940
008EE92E20
08D44CF800
0E5003F100
3F0000D500
5E0000C600
5E0000C600
4F0000D500
1E5003F200
08D43CA000
008EE91000
ENDCHAR
STARTCHAR uni1EE1
ENCODING 7905
SWIDTH 502 0
DWIDTH 7 0
BBX 8 11 0 0
BITMAP
03E76700
0858D200
00000081
02BEB3E0
0B929F80
2F101F20
4E000E50
4D000E50
2F101F30
0B929C00
02BFC200
ENDCHAR
STARTCHAR uni1EE2
ENCODING 7906
SWIDTH 592 0
DWIDTH 8 0
BBX 9 14 0 -3
BITMAP
0000000940
008EE92E20
08D44CF800
0E5003F100
3F0000D500
5E0000C600
5E0000C600
4F0000D500
1E5003F200
08D43CA000
008EE91000
0000000000
0008A00000
0003400000
ENDCHAR
STARTCHAR uni1EE3
ENCODING 7907
SWIDTH 502 0
DWIDTH 7 0
BBX 8 12 0 -3
BITMAP
00000081
02BEB3E0
0B929F80
2F101F20
4E000E50
4D000E50
2F101F30
0B929C00
02BFC200
00000000
003E1000
00150000
ENDCHAR
STARTCHAR uni1EE4
ENCODING 7908
SWIDTH 561 0
DWIDTH 8 0
BBX 7 13 0 -3
BITMAP
2F2004F0
2F2004F0
2F2004F0
2F2004F0
2F2004F0
2F2004F0
2F2004F0
1F3005E0
0BA22C90
02AEE910
00000000
000A7000
00042000
ENDCHAR
STARTCHAR uni1EE5
ENCODING 7909
SWIDTH 483 0
DWIDTH 7 0
BBX 6 11 0 -3
BITMAP
2F105D
2F105D
2F105D
2F105D
2F105D
1F205D
0E72CD
05ED9D
000000
009900
003300
ENDCHAR
STARTCHAR uni1EE6
ENCODING 7910
SWIDTH 561 0
DWIDTH 8 0
BBX 7 14 0 0
BITMAP
0008B000
0001D200
00079000
00000000
2F2004F0
2F2004F0
2F2004F0
2F2004F0
2F2004F0
2F2004F0
2F2004F0
1F3005E0
0BA22C90
02AEE910
ENDCHAR
STARTCHAR uni1EE7
ENCODING 7911
SWIDTH 483 0
DWIDTH 7 0
BBX 6 12 0 0
BITMAP
001E40
000790
000E20
000000
2F105D
2F105D
2F105D
2F105D
2F105D
1F205D
0E72CD
05ED9D
ENDCHAR
STARTCHAR uni1EE8
ENCODING 7912
SWIDTH 608 0
DWIDTH 9 0
BBX 10 13 0 0
BITMAP
0000AC1000
0004C10000
00000000D3
2F2004F3E1
2F2004FD50
2F2004F000
2F2004F000
2F2004F000
2F2004F000
2F2004F000
0F4006D000
0AC23D7000
019ED80000
ENDCHAR
STARTCHAR uni1EE9
ENCODING 7913
SWIDTH 549 0
DWIDTH 8 0
BBX 8 11 0 0
BITMAP
0005E300
001C4000
00000025
2F105D68
2F105FD2
2F105D00
2F105D00
2F105D00
1F205D00
0E72CD00
05ED9D00
ENDCHAR
STARTCHAR uni1EEA
ENCODING 7914
SWIDTH 608 0
DWIDTH 9 0
BBX 10 13 0 0
BITMAP
008D200000
0009800000
00000000D3
2F2004F3E1
2F2004FD50
2F2004F000
2F2004F000
2F2004F000
2F2004F000
2F2004F000
0F4006D000
0AC23D7000
019ED80000
ENDCHAR
STARTCHAR uni1EEB
ENCODING 7915
SWIDTH 549 0
DWIDTH 8 0
BBX 8 11 0 0
BITMAP
04E50000
005C0000
00000025
2F105D68
2F105FD2
2F105D00
2F105D00
2F105D00
1F205D00
0E72CD00
05ED9D00
ENDCHAR
STARTCHAR uni1EEC
ENCODING 7916
SWIDTH 608 0
DWIDTH 9 0
BBX 10 14 0 0
BITMAP
0005D20000
0000A60000
0004C10000
00000000D3
2F2004F3E1
2F2004FD50
2F2004F000
2F2004F000
2F2004F000
2F2004F000
2F2004F000
0F4006D000
0AC23D7000
019ED80000
ENDCHAR
STARTCHAR uni1EED
ENCODING 7917
SWIDTH 549 0
DWIDTH 8 0
BBX 8 12 0 0
BITMAP
000E5000
0005A000
000E3000
00000025
2F105D68
2F105FD2
2F105D00
2F105D00
2F105D00
1F205D00
0E72CD00
05ED9D00
ENDCHAR
STARTCHAR uni1EEE
ENCODING 7918
SWIDTH 608 0
DWIDTH 9 0
BBX 10 14 0 0
BITMAP
0000010000
007D3B2000
00C2CB0000
00000000D3
2F2004F3E1
2F2004FD50
2F2004F000
2F2004F000
2F2004F000
2F2004F000
2F2004F000
0F4006D000
0AC23D7000
019ED80000
ENDCHAR
STARTCHAR uni1EEF
ENCODING 7919
SWIDTH 549 0
DWIDTH 8 0
BBX 8 11 0 0
BITMAP
03E76700
0858D200
00000025
2F105D68
2F105FD2
2F105D00
2F105D00
2F105D00
1F205D00
0E72CD00
05ED9D00
ENDCHAR
STARTCHAR uni1EF0
ENCODING 7920
SWIDTH 608 0
DWIDTH 9 0
BBX 10 14 0 -3
BITMAP
00000000D3
2F2004F3E1
2F2004FD50
2F2004F000
2F2004F000
2F2004F000
2F2004F000
2F2004F000
0F4006D000
0AC23D7000
019ED80000
0000000000
0007A00000
0002400000
ENDCHAR
STARTCHAR uni1EF1
ENCODING 7921
SWIDTH 549 0
DWIDTH 8 0
BBX 8 12 0 -3
BITMAP
00000025
2F105D68
2F105FD2
2F105D00
2F105D00
2F105D00
1F205D00
0E72CD00
05ED9D00
00000000
004D0000
00150000
ENDCHAR
STARTCHAR Ygrave
ENCODING 7922
SWIDTH 524 0
DWIDTH 7 0
BBX 7 13 0 0
BITMAP
02D80000
003D2000
00000000
9C0008D0
2F400D60
0AA05E10
03F1B800
00C9F100
005F9000
000F4000
000F4000
000F4000
000F4000
ENDCHAR
STARTCHAR ygrave
ENCODING 7923
SWIDTH 416 0
DWIDTH 6 0
BBX 6 14 0 -3
BITMAP
0AC100
00B600
000000
9A00D6
5E01F2
1F25D0
0C6890
08AC50
04EF10
00EC00
00A800
00C400
15E000
5E4000
ENDCHAR
STARTCHAR uni1EF4
ENCODING 7924
SWIDTH 524 0
DWIDTH 7 0
BBX 7 13 0 -3
BITMAP
9C0008D0
2F400D60
0AA05E10
03F1B800
00C9F100
005F9000
000F4000
000F4000
000F4000
000F4000
00000000
001D4000
00051000
ENDCHAR
STARTCHAR uni1EF5
ENCODING 7925
SWIDTH 416 0
DWIDTH 6 0
BBX 6 12 0 -4
BITMAP
9A00D6
5E01F2
1F25D0
0C6890
08AC50
04EF10
00EC00
00A800
00C400
15E000
5E46B0
000240
ENDCHAR
STARTCHAR uni1EF6
ENCODING 7926
SWIDTH 524 0
DWIDTH 7 0
BBX 7 14 0 0
BITMAP
000B8000
0002E000
000B5000
00000000
9C0008D0
2F400D60
0AA05E10
03F1B800
00C9F100
005F9000
000F4000
000F4000
000F4000
000F4000
ENDCHAR
STARTCHAR uni1EF7
ENCODING 7927
SWIDTH 416 0
DWIDTH 6 0
BBX 6 15 0 -3
BITMAP
006C10
000B40
005A00
000000
9A00D6
5E01F2
1F25D0
0C6890
08AC50
04EF10
00EC00
00A800
00C400
15E000
5E4000
ENDCHAR
STARTCHAR uni1EF8
ENCODING 7928
SWIDTH 524 0
DWIDTH 7 0
BBX 7 14 0 0
BITMAP
00000100
01C93B00
0585E500
00000000
9C0008D0
2F400D60
0AA05E10
03F1B800
00C9F100
005F9000
000F4000
000F4000
000F4000
000F4000
ENDCHAR
STARTCHAR uni1EF9
ENCODING 7929
SWIDTH 416 0
DWIDTH 6 0
BBX 6 15 0 -3
BITMAP
000010
08D2C1
0C2D90
000000
9A00D6
5E01F2
1F25D0
0C6890
08AC50
04EF10
00EC00
00A800
00C400
15E000
5E4000
ENDCHAR
STARTCHAR uni1F4D
ENCODING 8013
SWIDTH 634 0
DWIDTH 9 0
BBX 11 10 -3 0
BITMAP
A68A03CFD700
49A11E935E50
00006D0007C0
00009A0004E0
0000A90003F0
0000A90003F0
00009A0004E0
00006D0007C0
00001E835E50
000003CFD700
ENDCHAR
STARTCHAR uni2000
ENCODING 8192
SWIDTH 447 0
DWIDTH 6 0
BBX 1 1 0 0
BITMAP
00
ENDCHAR
STARTCHAR uni2001
ENCODING 8193
SWIDTH 876 0
DWIDTH 12 0
BBX 1 1 0 0
BITMAP
00
ENDCHAR
STARTCHAR uni2002
ENCODING 8194
SWIDTH 447 0
DWIDTH 6 0
BBX 1 1 0 0
BITMAP
00
ENDCHAR
STARTCHAR uni2003
ENCODING 8195
SWIDTH 876 0
DWIDTH 12 0
BBX 1 1 0 0
BITMAP
00
ENDCHAR
STARTCHAR uni2004
ENCODING 8196
SWIDTH 305 0
DWIDTH 4 0
BBX 1 1 0 0
BITMAP
00
ENDCHAR
STARTCHAR uni2005
ENCODING 8197
SWIDTH 233 0
DWIDTH 3 0
BBX 1 1 0 0
BITMAP
00
ENDCHAR
STARTCHAR uni2006
ENCODING 8198
SWIDTH 162 0
DWIDTH 2 0
BBX 1 1 0 0
BITMAP
00
ENDCHAR
STARTCHAR uni2007
ENCODING 8199
SWIDTH 491 0
DWIDTH 7 0
BBX 1 1 0 0
BITMAP
00
ENDCHAR
STARTCHAR uni2008
ENCODING 8200
SWIDTH 249 0
DWIDTH 3 0
BBX 1 1 0 0
BITMAP
00
ENDCHAR
STARTCHAR uni2009
ENCODING 8201
SWIDTH 190 0
DWIDTH 3 0
BBX 1 1 0 0
BITMAP
00
ENDCHAR
STARTCHAR uni200A
ENCODING 8202
SWIDTH 105 0
DWIDTH 1 0
BBX 1 1 0 0
BITMAP
00
ENDCHAR
STARTCHAR uni200B
ENCODING 8203
SWIDTH 0 0
DWIDTH 0 0
BBX 1 1 0 0
BITMAP
00
ENDCHAR
STARTCHAR uni2010
ENCODING 8208
SWIDTH 248 0
DWIDTH 3 0
BBX 4 1 0 4
BITMAP
AFF2
ENDCHAR
STARTCHAR uni2011
ENCODING 8209
SWIDTH 248 0
DWIDTH 3 0
BBX 4 1 0 4
BITMAP
AFF2
ENDCHAR
STARTCHAR endash
ENCODING 8211
SWIDTH 572 0
DWIDTH 8 0
BBX 6 1 1 4
BITMAP
DFFFFD
ENDCHAR
STARTCHAR emdash
ENCODING 8212
SWIDTH 678 0
DWIDTH 10 0
BBX 8 1 1 4
BITMAP
EFFFFFFC
ENDCHAR
STARTCHAR uni2015
ENCODING 8213
SWIDTH 678 0
DWIDTH 10 0
BBX 8 1 1 4
BITMAP
EFFFFFFC
ENDCHAR
STARTCHAR underscoredbl
ENCODING 8215
SWIDTH 402 0
DWIDTH 6 0
BBX 6 3 0 -3
BITMAP
DFFFF7
000000
DFFFF7
ENDCHAR
STARTCHAR quoteleft
ENCODING 8216
SWIDTH 194 0
DWIDTH 3 0
BBX 3 3 0 8
BITMAP
0930
3F00
5D00
ENDCHAR
STARTCHAR quoteright
ENCODING 8217
SWIDTH 194 0
DWIDTH 3 0
BBX 3 4 0 7
BITMAP
1F20
2F10
4D00
6600
ENDCHAR
STARTCHAR quotesinglbase
ENCODING 8218
SWIDTH 194 0
DWIDTH 3 0
BBX 3 4 0 -2
BITMAP
0400
2F10
4D00
7500
ENDCHAR
STARTCHAR quotereversed
ENCODING 8219
SWIDTH 194 0
DWIDTH 3 0
BBX 3 3 0 8
BITMAP
7B00
5D00
0B20
ENDCHAR
STARTCHAR quotedblleft
ENCODING 8220
SWIDTH 333 0
DWIDTH 5 0
BBX 5 3 0 8
BITMAP
084940
2F3F10
4E4D00
ENDCHAR
STARTCHAR quotedblright
ENCODING 8221
SWIDTH 337 0
DWIDTH 5 0
BBX 5 4 0 7
BITMAP
0F4F20
0F4F10
3E5D00
576600
ENDCHAR
STARTCHAR quotedblbase
ENCODING 8222
SWIDTH 326 0
DWIDTH 5 0
BBX 4 4 0 -2
BITMAP
1A4A
2F5E
4D7B
7593
ENDCHAR
STARTCHAR dagger
ENCODING 8224
SWIDTH 482 0
DWIDTH 7 0
BBX 7 10 0 0
BITMAP
004F0000
004F0000
7FFFFF40
014F1100
004F0000
004F0000
004F0000
004F0000
004F0000
004F0000
ENDCHAR
STARTCHAR daggerdbl
ENCODING 8225
SWIDTH 500 0
DWIDTH 7 0
BBX 7 13 0 -3
BITMAP
002F1000
002F1000
5FFFFF50
013F2100
002F1000
002F1000
002F1000
002F1000
002F2000
5FFFFF50
002F1000
002F1000
002F1000
ENDCHAR
STARTCHAR bullet
ENCODING 8226
SWIDTH 336 0
DWIDTH 5 0
BBX 4 3 0 4
BITMAP
0AE6
1FFB
0AE6
ENDCHAR
STARTCHAR twodotenleader
ENCODING 8229
SWIDTH 420 0
DWIDTH 6 0
BBX 4 2 1 0
BITMAP
5226
D65D
ENDCHAR
STARTCHAR ellipsis
ENCODING 8230
SWIDTH 590 0
DWIDTH 8 0
BBX 7 2 1 0
BITMAP
52260520
D65D0D60
ENDCHAR
STARTCHAR uni2027
ENCODING 8231
SWIDTH 181 0
DWIDTH 3 0
BBX 2 2 0 3
BITMAP
4C
14
ENDCHAR
STARTCHAR perthousand
ENCODING 8240
SWIDTH 818 0
DWIDTH 11 0
BBX 11 10 0 0
BITMAP
1BE500000000
693D04700000
860E0B200000
693D59000000
1BE5C1000000
000678E8BE40
001C2D1C84C0
00763A0950D0
00A01D1C84C0
000008E8BE40
ENDCHAR
STARTCHAR minute
ENCODING 8242
SWIDTH 174 0
DWIDTH 2 0
BBX 2 3 0 8
BITMAP
4B
4A
49
ENDCHAR
STARTCHAR second
ENCODING 8243
SWIDTH 319 0
DWIDTH 4 0
BBX 4 4 0 7
BITMAP
1D3B
1D3B
1C3A
1B38
ENDCHAR
STARTCHAR guilsinglleft
ENCODING 8249
SWIDTH 271 0
DWIDTH 4 0
BBX 4 5 0 1
BITMAP
01C2
0970
2F10
0970
01C1
ENDCHAR
STARTCHAR guilsinglright
ENCODING 8250
SWIDTH 271 0
DWIDTH 4 0
BBX 4 5 0 1
BITMAP
2C10
0890
01F1
0890
2C10
ENDCHAR
STARTCHAR exclamdbl
ENCODING 8252
SWIDTH 491 0
DWIDTH 7 0
BBX 5 10 1 0
BITMAP
E507C0
D507C0
D507B0
D506B0
D406B0
D406B0
C406B0
200110
410240
C505B0
ENDCHAR
STARTCHAR fraction
ENCODING 8260
SWIDTH 403 0
DWIDTH 6 0
BBX 6 8 0 1
BITMAP
0000A1
0004A0
000C20
005800
00C100
067000
1C1000
560000
ENDCHAR
STARTCHAR uni2074
ENCODING 8308
SWIDTH 329 0
DWIDTH 5 0
BBX 5 5 0 5
BITMAP
00B900
06D900
2B7900
8FFF20
006900
ENDCHAR
STARTCHAR uni207F
ENCODING 8319
SWIDTH 374 0
DWIDTH 5 0
BBX 5 5 0 5
BITMAP
3CCD20
3F2B70
3E0980
3E0980
3E0980
ENDCHAR
STARTCHAR franc
ENCODING 8355
SWIDTH 480 0
DWIDTH 7 0
BBX 7 10 0 0
BITMAP
0EFFFF40
0E611100
0E500000
0E500000
0EFFFA00
0E611100
0E500000
0E500000
CFFE0000
0E500000
ENDCHAR
STARTCHAR lira
ENCODING 8356
SWIDTH 510 0
DWIDTH 7 0
BBX 7 10 0 0
BITMAP
006DE800
03F44F40
07C00740
08B00000
5FFFB000
07C00000
5FFFB000
06D00000
0AA11110
5FFFFFA0
ENDCHAR
STARTCHAR uni20A6
ENCODING 8358
SWIDTH 691 0
DWIDTH 10 0
BBX 10 10 0 0
BITMAP
06F1003F10
06F8003F10
06EE103F10
06CB603F10
AFFFFFFFF6
07D1B73F20
AFFFFFFFF6
07D11ACF20
06C002EF10
06C0007F10
ENDCHAR
STARTCHAR peseta
ENCODING 8359
SWIDTH 709 0
DWIDTH 10 0
BBX 8 10 1 0
BITMAP
EFFC25E0
E41BB5E0
E405FFFF
E405C5E0
E41A85E0
EFFB15E0
E40005E0
E40005E0
E40004F3
E40000BE
ENDCHAR
STARTCHAR uni20A8
ENCODING 8360
SWIDTH 911 0
DWIDTH 13 0
BBX 11 10 1 0
BITMAP
EFFE90000000
E613D7000000
E5008B1BEC30
E5007C9B18C0
E503D7A90150
EFFFA03EB300
E61B90018F80
E504F16204F0
E500C8BA16E0
E5006E3BED40
ENDCHAR
STARTCHAR uni20A9
ENCODING 8361
SWIDTH 634 0
DWIDTH 9 0
BBX 9 10 0 0
BITMAP
7B03F10D50
5D04F30F30
3F06F52F10
1F28D64E00
AFFFFFFF90
0A7C5B9800
AFFFFFFF90
05DC1EE300
01F90BE000
00D709B000
ENDCHAR
STARTCHAR uni20AA
ENCODING 8362
SWIDTH 669 0
DWIDTH 9 0
BBX 9 8 0 0
BITMAP
1FFFE70B70
1F215F1B70
1F200F3B70
1F2D5F4B70
1F2D5F4B70
1F2D500C60
1F2D513E40
1F2DFFFA00
ENDCHAR
STARTCHAR dong
ENCODING 8363
SWIDTH 510 0
DWIDTH 7 0
BBX 8 13 0 -2
BITMAP
00003F00
00003F00
0009FFF1
04DE9F00
0E82AF00
3E003F00
5D003F00
5D003F00
3E003F00
0E72AF00
04DE8F00
00000000
0EFFFF60
ENDCHAR
STARTCHAR Euro
ENCODING 8364
SWIDTH 493 0
DWIDTH 7 0
BBX 7 10 0 0
BITMAP
002BED20
00D92300
03F10000
4FFFF100
04E00000
4FFFF100
03F00000
01F30000
00AB2300
001AFE20
ENDCHAR
STARTCHAR uni20B1
ENCODING 8369
SWIDTH 648 0
DWIDTH 9 0
BBX 9 10 0 0
BITMAP
08FFFC4000
08B118F200
AFFFFFFFC0
09A000A900
AFFFFFFFC0
09A017F520
08FFFE6000
08B1100000
08A0000000
08A0000000
ENDCHAR
STARTCHAR uni20B9
ENCODING 8377
SWIDTH 462 0
DWIDTH 6 0
BBX 6 10 0 0
BITMAP
7FFFFE
112AC1
7FFFFE
112AD1
9FFD40
3F6000
09E100
01E800
006F20
000CB0
ENDCHAR
STARTCHAR uni20BA
ENCODING 8378
SWIDTH 500 0
DWIDTH 7 0
BBX 7 10 0 0
BITMAP
04F00000
04F86000
18FB2000
ADF86000
38FB2000
ADF00D60
24F00E50
04F03F10
04F4C900
03EE9100
ENDCHAR
STARTCHAR uni20BC
ENCODING 8380
SWIDTH 575 0
DWIDTH 8 0
BBX 8 8 0 0
BITMAP
00099000
008EF900
06DBBC70
0D5994E0
2F1990E3
4E0990D5
5D0990C6
5D0990C6
ENDCHAR
STARTCHAR uni20BD
ENCODING 8381
SWIDTH 583 0
DWIDTH 8 0
BBX 8 10 0 0
BITMAP
08FFFD60
08C115F4
08B000B8
08B000A9
08B003E5
AFFFFE80
18C11000
AFFF9000
18C11000
08B00000
ENDCHAR
STARTCHAR uni2105
ENCODING 8453
SWIDTH 640 0
DWIDTH 9 0
BBX 9 10 0 0
BITMAP
08E8000000
1D2C028000
2B000A4000
1D2C4A0000
08E8B30000
000498E800
000C4D1D20
00684A0A30
00A12D1D20
000008E800
ENDCHAR
STARTCHAR uni2113
ENCODING 8467
SWIDTH 422 0
DWIDTH 6 0
BBX 6 11 0 0
BITMAP
006E90
00E6F2
01F1E4
02F2F2
02F6E0
02FC80
04FD10
4FF300
12F200
00D800
004D40
ENDCHAR
STARTCHAR uni2116
ENCODING 8470
SWIDTH 886 0
DWIDTH 12 0
BBX 11 10 1 0
BITMAP
F8006C09EB10
FE106C4D1A80
FD606C6A06A0
F7C06C4D1A80
F4D36C09EC10
F4696C000000
F41E7C3FFF60
F409DC000000
F403FC000000
F400CC000000
ENDCHAR
STARTCHAR trademark
ENCODING 8482
SWIDTH 547 0
DWIDTH 8 0
BBX 7 4 0 6
BITMAP
4FE93750
07286A50
07287950
07286550
ENDCHAR
STARTCHAR Omega
ENCODING 8486
SWIDTH 581 0
DWIDTH 8 0
BBX 8 10 0 0
BITMAP
008EE800
08D33D70
0E5005E0
2F2002F2
3F1001F3
3F1001F3
1F2002F1
0B6006B0
05D33D50
3FFBAFF3
ENDCHAR
STARTCHAR estimated
ENCODING 8494
SWIDTH 636 0
DWIDTH 9 0
BBX 7 8 1 0
BITMAP
02BEC300
2D613C20
AB000890
DB0008D0
EFFFFFF0
AB000000
3C301510
03BED800
ENDCHAR
STARTCHAR oneeighth
ENCODING 8539
SWIDTH 666 0
DWIDTH 9 0
BBX 9 10 0 0
BITMAP
16A0000000
6CC0065000
03C01C1000
03C0760000
03C1C00000
000956ED20
002B0B6B60
00A406FE20
01A00C5A70
000007ED30
ENDCHAR
STARTCHAR threeeighths
ENCODING 8540
SWIDTH 736 0
DWIDTH 10 0
BBX 10 10 0 0
BITMAP
1CEA000000
142F005600
03FA00C200
252E168000
1CFA1C1000
0000777EC1
0001C0C5C4
0008507FE1
000A00E4B6
0000008ED2
ENDCHAR
STARTCHAR fiveeighths
ENCODING 8541
SWIDTH 736 0
DWIDTH 10 0
BBX 10 10 0 0
BITMAP
0FFD000000
1D00007300
2EEA01C000
142F195000
2CE92B0000
0000A47EC1
0003A0C5C4
000B208FD1
002900E3B5
0000008ED2
ENDCHAR
STARTCHAR seveneighths
ENCODING 8542
SWIDTH 692 0
DWIDTH 10 0
BBX 9 10 0 0
BITMAP
6FFF300000
002C029000
0096094000
02D02B0000
0970A30000
0003A1CE70
000B24C5C0
005901DF80
009105B3E0
000002DE80
ENDCHAR
STARTCHAR partialdiff
ENCODING 8706
SWIDTH 497 0
DWIDTH 7 0
BBX 7 10 0 0
BITMAP
07EE9000
0424D800
00004E00
02CE8F20
0C917F40
2F100E40
3F000E40
2F102F10
0B919A00
02BEB100
ENDCHAR
STARTCHAR Delta
ENCODING 8710
SWIDTH 614 0
DWIDTH 9 0
BBX 9 10 0 0
BITMAP
0005F10000
000BF60000
001F9B0000
006C2F1000
00C70C6000
02F208B000
07B003F100
0D6000D600
3F31119A00
8FFFFFFF10
ENDCHAR
STARTCHAR product
ENCODING 8719
SWIDTH 614 0
DWIDTH 9 0
BBX 7 11 1 -1
BITMAP
EFFFFF80
E5111B80
E4000B80
E4000B80
E4000B80
E4000B80
E4000B80
E4000B80
E4000B80
E4000B80
E4000B80
ENDCHAR
STARTCHAR summation
ENCODING 8721
SWIDTH 513 0
DWIDTH 7 0
BBX 7 12 0 -2
BITMAP
7FFFFF80
2E411100
06D10000
00A90000
001E5000
0005E100
0004E200
001E5000
00AA0000
06D10000
2E411110
7FFFFFF0
ENDCHAR
STARTCHAR minus
ENCODING 8722
SWIDTH 499 0
DWIDTH 7 0
BBX 5 1 1 4
BITMAP
DFFFE0
ENDCHAR
STARTCHAR radical
ENCODING 8730
SWIDTH 536 0
DWIDTH 8 0
BBX 8 10 0 0
BITMAP
000004E1
000008A0
00000D50
00003F10
00007B00
8FA0C600
04E2F100
00DCB000
008F6000
002F2000
ENDCHAR
STARTCHAR infinity
ENCODING 8734
SWIDTH 874 0
DWIDTH 12 0
BBX 12 8 0 0
BITMAP
01BEA108EC30
0B92A97C27D0
2F101EE300E4
5E000AD000B7
5D000AD000B7
2F101EE300E5
0B92A97C27D0
01BEA108EC30
ENDCHAR
STARTCHAR integral
ENCODING 8747
SWIDTH 235 0
DWIDTH 3 0
BBX 5 14 -1 -3
BITMAP
003DD0
00B910
00D500
00D500
00D500
00D500
00D500
00D500
00D500
00D500
00D500
00D500
02F300
2E9000
ENDCHAR
STARTCHAR approxequal
ENCODING 8776
SWIDTH 492 0
DWIDTH 7 0
BBX 7 6 0 1
BITMAP
2CE71610
464BFD10
00001000
1CE71510
464AFD00
00001000
ENDCHAR
STARTCHAR notequal
ENCODING 8800
SWIDTH 479 0
DWIDTH 7 0
BBX 5 8 1 1
BITMAP
000430
000B10
FFFFC0
11C210
048000
FFFFC0
591110
520000
ENDCHAR
STARTCHAR lessequal
ENCODING 8804
SWIDTH 445 0
DWIDTH 6 0
BBX 6 8 0 0
BITMAP
0003A3
03AE71
6F6000
29D810
0029E3
000011
000000
8FFFF4
ENDCHAR
STARTCHAR greaterequal
ENCODING 8805
SWIDTH 460 0
DWIDTH 6 0
BBX 6 8 0 0
BITMAP
1B4000
06CC50
0003CC
016CC4
1EA300
020000
000000
1FFFFB
ENDCHAR
STARTCHAR lozenge
ENCODING 9674
SWIDTH 442 0
DWIDTH 6 0
BBX 6 10 0 0
BITMAP
009C00
01EE40
08A7A0
1E31E2
6C0099
6C0099
1E41E2
07A7B0
01ED40
009C00
ENDCHAR
STARTCHAR uniEE01
ENCODING 60929
SWIDTH 271 0
DWIDTH 4 0
BBX 2 8 1 1
BITMAP
44
99
00
00
00
00
44
9A
ENDCHAR
STARTCHAR uniEE02
ENCODING 60930
SWIDTH 298 0
DWIDTH 4 0
BBX 4 3 0 5
BITMAP
4A68
4A68
4A68
ENDCHAR
STARTCHAR uniF6C3
ENCODING 63171
SWIDTH 235 0
DWIDTH 3 0
BBX 3 3 0 -2
BITMAP
0F30
1F00
3900
ENDCHAR
STARTCHAR uniFB01
ENCODING 64257
SWIDTH 489 0
DWIDTH 7 0
BBX 6 11 0 0
BITMAP
02BEC2
09B341
0B7000
BFFA6C
0C706C
0C706C
0C706C
0C706C
0C706C
0C706C
0C706C
ENDCHAR
STARTCHAR uniFB02
ENCODING 64258
SWIDTH 503 0
DWIDTH 7 0
BBX 6 11 0 0
BITMAP
01BEDA
06D25F
08A03F
8FFE3F
08A03F
08A03F
08A03F
08A03F
08A03F
08A03F
08A03F
ENDCHAR
STARTCHAR uniFB03
ENCODING 64259
SWIDTH 744 0
DWIDTH 10 0
BBX 10 11 0 0
BITMAP
01BE45DE80
06D21F6340
08A03F0000
8FFFFFF3C6
08A03F00C6
08A03F00C6
08A03F00C6
08A03F00C6
08A03F00C6
08A03F00C6
08A03F00C6
ENDCHAR
STARTCHAR uniFB04
ENCODING 64260
SWIDTH 744 0
DWIDTH 10 0
BBX 10 11 0 0
BITMAP
01BE46EEB3
06D22F52D6
08A03F00C6
8FFFFFF4C6
08A03F00C6
08A03F00C6
08A03F00C6
08A03F00C6
08A03F00C6
08A03F00C6
08A03F00C6
ENDCHAR
STARTCHAR uniFEFF
ENCODING 65279
SWIDTH 0 0
DWIDTH 0 0
BBX 1 1 0 0
BITMAP
00
ENDCHAR
STARTCHAR uniFFFC
ENCODING 65532
SWIDTH 1024 0
DWIDTH 14 0
BBX 14 13 0 -3
BITMAP
6FB6F7BF3FE4FD
6600000000000B
00000000000000
6600000000000B
6600000000000B
002DE3EF900720
667529EF90072B
007529A1B43920
662DE3EF92DC0B
6600000000000B
00000000000000
6600000000000B
6FB6F7BF3FE4FD
ENDCHAR
STARTCHAR uniFFFD
ENCODING 65533
SWIDTH 1025 0
DWIDTH 14 0
BBX 14 14 0 -3
BITMAP
00000059000000
000004FF900000
00003EFFF80000
0003EFFFFF7000
002EF9115FF600
02DFF79C0BFF50
1CFFFFF62EFFF4
1DFFFF72EFFFF4
02DFFFFFFFFF50
002EFF54FFF600
0003EFFFFF7000
00003EFFF80000
000004FF900000
00000059000000
ENDCHAR
STARTCHAR .notdef
ENCODING -1
SWIDTH 392 0
DWIDTH 5 0
BBX 5 10 0 0
BITMAP
4FFFB0
420160
430350
414450
407150
407150
414450
430350
420160
4FFFB0
ENDCHAR
STARTCHAR glyph369
ENCODING -1
SWIDTH 364 0
DWIDTH 5 0
BBX 5 2 0 8
BITMAP
2E1E30
0B6700
ENDCHAR
STARTCHAR uni2009.locl
ENCODING -1
SWIDTH 124 0
DWIDTH 2 0
BBX 1 1 0 0
BITMAP
00
ENDCHAR
STARTCHAR f_f.dlig
ENCODING -1
SWIDTH 546 0
DWIDTH 8 0
BBX 8 11 0 0
BITMAP
01BE48E7
06D23F31
08A05D00
8FFFFFF2
08A05D00
08A05D00
08A05D00
08A05D00
08A05D00
08A05D00
08A05D00
ENDCHAR
STARTCHAR longs_t.dlig
ENCODING -1
SWIDTH 544 0
DWIDTH 8 0
BBX 7 11 0 0
BITMAP
01BEC700
07D26D00
08A05D00
8FA7FFF0
08A05D00
08A05D00
08A05D00
08A05D00
08A05D00
08A04F30
04400BE0
ENDCHAR
STARTCHAR s_t.dlig
ENCODING -1
SWIDTH 710 0
DWIDTH 10 0
BBX 10 11 0 0
BITMAP
00006EE700
0001F44F20
0001F10E40
05DEF5FFF6
0E52C80E40
1F70110E40
05ED600E40
0017F60E40
28009A0E40
1E51B70D71
05DEA106E5
ENDCHAR
STARTCHAR two.dnom
ENCODING -1
SWIDTH 329 0
DWIDTH 5 0
BBX 5 5 0 0
BITMAP
2CE700
474D00
00B600
0B6000
6FFF10
ENDCHAR
STARTCHAR one.dnom
ENCODING -1
SWIDTH 329 0
DWIDTH 5 0
BBX 4 5 0 0
BITMAP
05C1
2CF1
00F1
00F1
00F1
ENDCHAR
STARTCHAR zero.dnom
ENCODING -1
SWIDTH 329 0
DWIDTH 5 0
BBX 4 5 0 0
BITMAP
1BE6
5B2E
690F
5B3E
1BE7
ENDCHAR
STARTCHAR nine.c2sc
ENCODING -1
SWIDTH 447 0
DWIDTH 6 0
BBX 6 8 0 0
BITMAP
06EE60
2F44F2
5D00C6
3F33E7
08ECD6
0001E4
002AC0
04EA20
ENDCHAR
STARTCHAR eight.c2sc
ENCODING -1
SWIDTH 447 0
DWIDTH 6 0
BBX 6 8 0 0
BITMAP
06EE90
1F52E5
1E42E4
06FFA0
1E42E4
4E00A8
2F42D5
06DE90
ENDCHAR
STARTCHAR seven.c2sc
ENCODING -1
SWIDTH 447 0
DWIDTH 6 0
BBX 6 8 0 0
BITMAP
7FFFFA
0111C6
0003E0
000A80
001F20
008B00
00E400
06D000
ENDCHAR
STARTCHAR six.c2sc
ENCODING -1
SWIDTH 447 0
DWIDTH 6 0
BBX 6 8 0 0
BITMAP
008D80
09D410
1F4000
3FAEB1
3F62C7
2F0089
0D72D7
03DEA0
ENDCHAR
STARTCHAR five.c2sc
ENCODING -1
SWIDTH 447 0
DWIDTH 6 0
BBX 6 8 0 0
BITMAP
09FFF6
0B7221
0C5000
0CDEB1
0002C8
15008A
0E61C8
04DEA1
ENDCHAR
STARTCHAR four.c2sc
ENCODING -1
SWIDTH 447 0
DWIDTH 6 0
BBX 6 8 0 0
BITMAP
000AE0
004FE0
01D9E0
0894E0
2D14E0
9FFFFD
0005E0
0004E0
ENDCHAR
STARTCHAR three.c2sc
ENCODING -1
SWIDTH 447 0
DWIDTH 6 0
BBX 6 8 0 0
BITMAP
07EE90
3E32E4
1202E3
00DFA0
0003E4
1300C7
4E33E4
08EE70
ENDCHAR
STARTCHAR two.c2sc
ENCODING -1
SWIDTH 447 0
DWIDTH 6 0
BBX 6 8 0 0
BITMAP
06DE90
3E33E4
3600D6
0004F2
002D70
01C900
0BA100
4FFFFB
ENDCHAR
STARTCHAR one.c2sc
ENCODING -1
SWIDTH 447 0
DWIDTH 6 0
BBX 4 8 1 0
BITMAP
38D1
EAF1
02F1
02F1
02F1
02F1
02F1
02F1
ENDCHAR
STARTCHAR zero.c2sc
ENCODING -1
SWIDTH 447 0
DWIDTH 6 0
BBX 6 8 0 0
BITMAP
04DE70
0E63E3
3E00B7
5D00A9
5D00A9
3E00B7
0E63E3
04DE70
ENDCHAR
STARTCHAR Z.c2sc
ENCODING -1
SWIDTH 454 0
DWIDTH 6 0
BBX 6 8 0 0
BITMAP
7FFFFB
0112E5
0009A0
003E20
00C700
07D000
2E4000
7FFFFD
ENDCHAR
STARTCHAR Y.c2sc
ENCODING -1
SWIDTH 458 0
DWIDTH 6 0
BBX 7 8 0 0
BITMAP
9C005E10
2F30C800
0AA4E100
03FB9000
00BF2000
006C0000
006C0000
006C0000
ENDCHAR
STARTCHAR X.c2sc
ENCODING -1
SWIDTH 478 0
DWIDTH 7 0
BBX 7 8 0 0
BITMAP
5F206E10
0B90D700
03F8D000
00AF5000
00AF5000
04E7D100
0C80D800
6E105F20
ENDCHAR
STARTCHAR W.c2sc
ENCODING -1
SWIDTH 655 0
DWIDTH 9 0
BBX 9 8 0 0
BITMAP
7A00F407B0
4D03F80980
1F17BB0C50
0D3A4E0E20
0A6D1B5E00
07BC08BB00
03F804F700
01F501F400
ENDCHAR
STARTCHAR V.c2sc
ENCODING -1
SWIDTH 487 0
DWIDTH 7 0
BBX 7 8 0 0
BITMAP
9A000D60
4E002F10
0E406B00
0980B700
04D1E200
00E6C000
00AE7000
005F2000
ENDCHAR
STARTCHAR U.c2sc
ENCODING -1
SWIDTH 488 0
DWIDTH 7 0
BBX 7 8 0 0
BITMAP
4E002F10
4E002F10
4E002F10
4E002F10
4E002F10
3F002F10
1E618C00
04CEB200
ENDCHAR
STARTCHAR T.c2sc
ENCODING -1
SWIDTH 456 0
DWIDTH 6 0
BBX 6 8 0 0
BITMAP
AFFFFF
017C11
006C00
006C00
006C00
006C00
006C00
006C00
ENDCHAR
STARTCHAR S.c2sc
ENCODING -1
SWIDTH 453 0
DWIDTH 6 0
BBX 6 8 0 0
BITMAP
06DEA1
2F41B9
3F2035
0AE930
004AF5
46007B
4E31AB
07DEB2
ENDCHAR
STARTCHAR R.c2sc
ENCODING -1
SWIDTH 465 0
DWIDTH 7 0
BBX 7 8 0 0
BITMAP
2FFFC200
2F219B00
2F204E00
2F219B00
2FFFD200
2F24E100
2F20C800
2F204E10
ENDCHAR
STARTCHAR Q.c2sc
ENCODING -1
SWIDTH 519 0
DWIDTH 7 0
BBX 7 10 0 -2
BITMAP
02BEC300
0C927E10
3F100C60
5D000A80
5D000A80
3F100C60
0C926E10
02BEF900
00003D50
00000100
ENDCHAR
STARTCHAR P.c2sc
ENCODING -1
SWIDTH 481 0
DWIDTH 7 0
BBX 7 8 0 0
BITMAP
2FFFD400
2F216E10
2F100F30
2F105F10
2FFFE500
2F210000
2F100000
2F100000
ENDCHAR
STARTCHAR O.c2sc
ENCODING -1
SWIDTH 519 0
DWIDTH 7 0
BBX 7 8 0 0
BITMAP
02BED400
0CA26E10
2F100C60
5D000980
4D000980
2F100C60
0B926E10
02BFD400
ENDCHAR
STARTCHAR N.c2sc
ENCODING -1
SWIDTH 533 0
DWIDTH 7 0
BBX 7 8 0 0
BITMAP
2F500A80
2FD00A80
2FB70A80
2F3D1A80
2F188A80
2F11DB80
2F107F80
2F100D80
ENDCHAR
STARTCHAR M.c2sc
ENCODING -1
SWIDTH 652 0
DWIDTH 9 0
BBX 9 8 0 0
BITMAP
2F90007F40
2FE000DF40
2FC403ED40
2F7A089E40
2F3E0D3E40
2F1B7D0F40
2F16F80F40
2F11F30F40
ENDCHAR
STARTCHAR L.c2sc
ENCODING -1
SWIDTH 411 0
DWIDTH 6 0
BBX 6 8 0 0
BITMAP
2F1000
2F1000
2F1000
2F1000
2F1000
2F1000
2F2000
2FFFF6
ENDCHAR
STARTCHAR K.c2sc
ENCODING -1
SWIDTH 473 0
DWIDTH 7 0
BBX 7 8 0 0
BITMAP
2F107E10
2F14F400
2F3E7000
2FCD0000
2FDE5000
2F27D100
2F10C900
2F103F40
ENDCHAR
STARTCHAR J.c2sc
ENCODING -1
SWIDTH 419 0
DWIDTH 6 0
BBX 5 8 0 0
BITMAP
0003F0
0003F0
0003F0
0003F0
0003F0
4303F0
7C17D0
1AED30
ENDCHAR
STARTCHAR I.c2sc
ENCODING -1
SWIDTH 221 0
DWIDTH 3 0
BBX 3 8 0 0
BITMAP
1F20
1F20
1F20
1F20
1F20
1F20
1F20
1F20
ENDCHAR
STARTCHAR H.c2sc
ENCODING -1
SWIDTH 533 0
DWIDTH 7 0
BBX 7 8 0 0
BITMAP
2F100A80
2F100A80
2F100A80
2FFFFF80
2F211A80
2F100A80
2F100A80
2F100A80
ENDCHAR
STARTCHAR G.c2sc
ENCODING -1
SWIDTH 509 0
DWIDTH 7 0
BBX 7 8 0 0
BITMAP
02BED400
0C916E10
3F100720
5D000000
5E05FF50
3F100D50
0CA12E50
01AEE900
ENDCHAR
STARTCHAR F.c2sc
ENCODING -1
SWIDTH 415 0
DWIDTH 6 0
BBX 6 8 0 0
BITMAP
2FFFF6
2F2110
2F1000
2F1000
2FFFF0
2F2110
2F1000
2F1000
ENDCHAR
STARTCHAR dollar.c2sc
ENCODING -1
SWIDTH 453 0
DWIDTH 6 0
BBX 6 12 0 -2
BITMAP
001600
003C00
06EFB1
2F31B9
3F2025
0AE930
004AF5
35007B
4E31AB
07EFC2
003C00
001600
ENDCHAR
STARTCHAR sterling.c2sc
ENCODING -1
SWIDTH 467 0
DWIDTH 7 0
BBX 6 8 0 0
BITMAP
01AEB1
07C2C8
0A8058
0B7000
9FFFC0
0B7000
0D6111
3FFFFF
ENDCHAR
STARTCHAR yen.c2sc
ENCODING -1
SWIDTH 400 0
DWIDTH 6 0
BBX 6 8 0 0
BITMAP
9A01F3
3E16C0
0B5C50
05CE00
5FFFD0
00C600
5FFFD0
00C600
ENDCHAR
STARTCHAR Gamma.c2sc
ENCODING -1
SWIDTH 405 0
DWIDTH 6 0
BBX 6 8 0 0
BITMAP
2FFFF5
2F2110
2F1000
2F1000
2F1000
2F1000
2F1000
2F1000
ENDCHAR
STARTCHAR Delta.c2sc
ENCODING -1
SWIDTH 487 0
DWIDTH 7 0
BBX 7 8 0 0
BITMAP
005F2000
00AE7000
00E6C000
04D1E200
0980B700
0E407B00
4E113F10
9FFFFF60
ENDCHAR
STARTCHAR Theta.c2sc
ENCODING -1
SWIDTH 519 0
DWIDTH 7 0
BBX 7 8 0 0
BITMAP
02BED400
0CA26E10
2F100C60
5DAFF980
4D011980
2F100C60
0B926E10
02BFD400
ENDCHAR
STARTCHAR Lambda.c2sc
ENCODING -1
SWIDTH 487 0
DWIDTH 7 0
BBX 7 8 0 0
BITMAP
005F2000
00AE7000
00E6C000
04D1E200
0980B700
0E406B00
4E002F10
9A000D60
ENDCHAR
STARTCHAR Xi.c2sc
ENCODING -1
SWIDTH 389 0
DWIDTH 5 0
BBX 5 8 0 0
BITMAP
8FFFF0
011110
000000
3FFF90
011100
000000
011110
8FFFF0
ENDCHAR
STARTCHAR Pi.c2sc
ENCODING -1
SWIDTH 525 0
DWIDTH 7 0
BBX 7 8 0 0
BITMAP
2FFFFF70
2F211B70
2F100B70
2F100B70
2F100B70
2F100B70
2F100B70
2F100B70
ENDCHAR
STARTCHAR Sigma.c2sc
ENCODING -1
SWIDTH 435 0
DWIDTH 6 0
BBX 6 8 0 0
BITMAP
7FFFF7
3F4110
09D100
01D800
01D800
09D000
3F4110
7FFFFB
ENDCHAR
STARTCHAR Phi.c2sc
ENCODING -1
SWIDTH 587 0
DWIDTH 8 0
BBX 8 8 0 0
BITMAP
0007B000
02BFFC40
1D78B5E2
4E07B0B7
4E07B0B7
1E68B4E3
03CFFD50
0007B000
ENDCHAR
STARTCHAR Psi.c2sc
ENCODING -1
SWIDTH 560 0
DWIDTH 8 0
BBX 8 8 0 0
BITMAP
5D0A80F3
5D0A80F3
4E0A81F2
2F1A83F0
0C9B9B90
02CFFA10
000A8000
000A8000
ENDCHAR
STARTCHAR Omega.c2sc
ENCODING -1
SWIDTH 540 0
DWIDTH 8 0
BBX 7 8 0 0
BITMAP
01AED500
0BA24E30
1F200990
3F0007B0
3F1007B0
0E300980
08C14E20
3FF7DFC0
ENDCHAR
STARTCHAR uni0402.c2sc
ENCODING -1
SWIDTH 596 0
DWIDTH 8 0
BBX 8 8 0 0
BITMAP
AFFFF900
01A91000
00A80000
00ADEEB1
00AA21B9
00A8006C
00A801A9
00A80DB2
ENDCHAR
STARTCHAR uni0404.c2sc
ENCODING -1
SWIDTH 490 0
DWIDTH 7 0
BBX 7 8 0 0
BITMAP
02BED400
0C716E10
3E000930
5FFF4000
5E110000
3F100920
0C915E10
02BEC400
ENDCHAR
STARTCHAR uni0409.c2sc
ENCODING -1
SWIDTH 782 0
DWIDTH 11 0
BBX 11 8 0 0
BITMAP
03FFFF600000
04E11C600000
04E00C600000
04E00CFFD700
05D00C714F30
06B00C600C60
2C800C714F30
9C100CFFD700
ENDCHAR
STARTCHAR uni040A.c2sc
ENCODING -1
SWIDTH 788 0
DWIDTH 11 0
BBX 11 8 0 0
BITMAP
2F100B700000
2F100B700000
2F100B700000
2FFFFFFFE800
2F211B813E40
2F100B700B70
2F100B813E40
2F100BFFE700
ENDCHAR
STARTCHAR uni040B.c2sc
ENCODING -1
SWIDTH 596 0
DWIDTH 8 0
BBX 8 8 0 0
BITMAP
AFFFF900
01A91000
00A80000
00ADEEB1
00AA21B9
00A8007C
00A8006C
00A8006C
ENDCHAR
STARTCHAR uni040F.c2sc
ENCODING -1
SWIDTH 524 0
DWIDTH 7 0
BBX 7 10 0 -2
BITMAP
2F100B70
2F100B70
2F100B70
2F100B70
2F100B70
2F100B70
2F211B70
2FFFFF70
000E4000
000E4000
ENDCHAR
STARTCHAR uni0411.c2sc
ENCODING -1
SWIDTH 479 0
DWIDTH 7 0
BBX 7 8 0 0
BITMAP
2FFFF700
2F200000
2F100000
2FFFC400
2F217E00
2F102F10
2F217D00
2FFFC300
ENDCHAR
STARTCHAR uni0414.c2sc
ENCODING -1
SWIDTH 563 0
DWIDTH 8 0
BBX 8 10 0 -2
BITMAP
00FFFF90
00F41990
00F20990
01F20990
02F00990
05C00990
0C7119A0
9FFFFFF7
990000B7
990000B7
ENDCHAR
STARTCHAR uni0416.c2sc
ENCODING -1
SWIDTH 651 0
DWIDTH 9 0
BBX 9 8 0 0
BITMAP
3F31F32F50
0AB1F39B00
02E4F5F300
00AFFFC000
01F5F5F300
08D1F3BA00
1E71F35F20
7E11F30D90
ENDCHAR
STARTCHAR uni0417.c2sc
ENCODING -1
SWIDTH 466 0
DWIDTH 7 0
BBX 6 8 0 0
BITMAP
07EEB1
3E32B9
1201B8
00AFC0
0002C8
23007B
5E32C8
08EEA1
ENDCHAR
STARTCHAR uni0418.c2sc
ENCODING -1
SWIDTH 537 0
DWIDTH 8 0
BBX 7 8 0 0
BITMAP
2F100D90
2F106F90
2F11EC90
2F19A990
2F4E2990
2FC80990
2FE10990
2F600990
ENDCHAR
STARTCHAR uni041A.c2sc
ENCODING -1
SWIDTH 473 0
DWIDTH 7 0
BBX 7 8 0 0
BITMAP
2F10AB00
2F15E100
2F3E4000
2FFB0000
2F4F3000
2F19C000
2F11E600
2F108E10
ENDCHAR
STARTCHAR uni041B.c2sc
ENCODING -1
SWIDTH 521 0
DWIDTH 7 0
BBX 7 8 0 0
BITMAP
03FFFF60
04E11C60
04E00C60
05D00C60
05D00C60
07B00C60
2C700C60
9B100C60
ENDCHAR
STARTCHAR uni0423.c2sc
ENCODING -1
SWIDTH 454 0
DWIDTH 6 0
BBX 6 8 0 0
BITMAP
7D007E
2F30B8
0B81F3
06C6C0
01FD70
00AF10
019A00
0BD200
ENDCHAR
STARTCHAR uni0426.c2sc
ENCODING -1
SWIDTH 564 0
DWIDTH 8 0
BBX 8 10 0 -2
BITMAP
2F100B70
2F100B70
2F100B70
2F100B70
2F100B70
2F100B70
2F211B70
2FFFFFF7
000000A7
000000A6
ENDCHAR
STARTCHAR uni0427.c2sc
ENCODING -1
SWIDTH 487 0
DWIDTH 7 0
BBX 6 8 0 0
BITMAP
8A004E
8A004E
8B004E
5E217E
09EFDE
00004E
00004E
00004E
ENDCHAR
STARTCHAR uni0428.c2sc
ENCODING -1
SWIDTH 691 0
DWIDTH 10 0
BBX 9 8 0 0
BITMAP
2F10C706C0
2F10C706C0
2F10C706C0
2F10C706C0
2F10C706C0
2F10C706C0
2F21C717C0
2FFFFFFFC0
ENDCHAR
STARTCHAR uni0429.c2sc
ENCODING -1
SWIDTH 731 0
DWIDTH 10 0
BBX 10 10 0 -2
BITMAP
2F10C706C0
2F10C706C0
2F10C706C0
2F10C706C0
2F10C706C0
2F10C706C0
2F21C717C1
2FFFFFFFFC
000000005C
000000005B
ENDCHAR
STARTCHAR uni042A.c2sc
ENCODING -1
SWIDTH 559 0
DWIDTH 8 0
BBX 8 8 0 0
BITMAP
CFF40000
11E40000
00E40000
00EFFD50
00E515F2
00E400E4
00E515F1
00EFFD50
ENDCHAR
STARTCHAR uni042B.c2sc
ENCODING -1
SWIDTH 658 0
DWIDTH 9 0
BBX 9 8 0 0
BITMAP
2F10000D50
2F10000D50
2F10000D50
2FFFC40D50
2F217E0D50
2F102F1D50
2F217D0D50
2FFFC30D50
ENDCHAR
STARTCHAR uni042C.c2sc
ENCODING -1
SWIDTH 475 0
DWIDTH 7 0
BBX 7 8 0 0
BITMAP
2F100000
2F100000
2F100000
2FFFC400
2F217E00
2F102F10
2F217D00
2FFFC300
ENDCHAR
STARTCHAR uni042D.c2sc
ENCODING -1
SWIDTH 491 0
DWIDTH 7 0
BBX 7 8 0 0
BITMAP
05DEA100
2F419A00
48001F10
006FFF30
00011F30
48003F10
2E41BA00
05DEA100
ENDCHAR
STARTCHAR uni042E.c2sc
ENCODING -1
SWIDTH 705 0
DWIDTH 10 0
BBX 10 8 0 0
BITMAP
2F106DEA10
2F14F52B90
2F19A003F0
2FFF7000F2
2F2A7000F2
2F17A003F0
2F11E52B90
2F105DFA10
ENDCHAR
STARTCHAR uni042F.c2sc
ENCODING -1
SWIDTH 499 0
DWIDTH 7 0
BBX 7 8 0 0
BITMAP
04CFFF10
0D812F10
1F302F10
0D702F10
03EFFF10
02F22F10
0A902F10
2F202F10
ENDCHAR
STARTCHAR uni0492.c2sc
ENCODING -1
SWIDTH 444 0
DWIDTH 6 0
BBX 6 8 0 0
BITMAP
08FFFD
08A111
08A000
CFFD00
09A000
08A000
08A000
08A000
ENDCHAR
STARTCHAR uni0496.c2sc
ENCODING -1
SWIDTH 676 0
DWIDTH 9 0
BBX 10 11 0 -3
BITMAP
3F31F32F50
0AB1F39B00
02E4F5F300
00AFFFC000
01F5F5F300
08D1F3B900
1E71F35F20
7E11F30DF3
00000000E3
00000000E3
0000000041
ENDCHAR
STARTCHAR uni049A.c2sc
ENCODING -1
SWIDTH 492 0
DWIDTH 7 0
BBX 7 10 0 -2
BITMAP
2F10AB00
2F15E100
2F3E4000
2FFA0000
2F4F3000
2F19B000
2F11E500
2F108F80
00000880
00000880
ENDCHAR
STARTCHAR uni049C.c2sc
ENCODING -1
SWIDTH 562 0
DWIDTH 8 0
BBX 8 8 0 0
BITMAP
2F1006E2
2F542E40
2F88C700
2FFFE000
2F98D600
2F435E10
2F100CA0
2F1004F4
ENDCHAR
STARTCHAR uni04A0.c2sc
ENCODING -1
SWIDTH 571 0
DWIDTH 8 0
BBX 8 8 0 0
BITMAP
9FF704E3
01B71E60
00B7A900
00BFF100
00B7C800
00B74F30
00B70AB0
00B702F6
ENDCHAR
STARTCHAR uni04A8.c2sc
ENCODING -1
SWIDTH 625 0
DWIDTH 9 0
BBX 9 8 0 0
BITMAP
03C49EB100
0D75E3B800
3F08906C00
5D09805D00
4E08906C00
1F24D09A00
0AC3B9E400
019EFFFB10
ENDCHAR
STARTCHAR uni04B0.c2sc
ENCODING -1
SWIDTH 480 0
DWIDTH 7 0
BBX 7 8 0 0
BITMAP
9C005E10
2F30C800
0AA4E100
03FB9000
00BF2000
0AFFF000
007C0000
006C0000
ENDCHAR
STARTCHAR uni04B2.c2sc
ENCODING -1
SWIDTH 514 0
DWIDTH 7 0
BBX 7 10 0 -2
BITMAP
5F206E10
0B90D700
03F8D000
00AF5000
00AF5000
04E7D100
0C80D800
6E105FC0
000004C0
000004C0
ENDCHAR
STARTCHAR uni04B4.c2sc
ENCODING -1
SWIDTH 695 0
DWIDTH 10 0
BBX 9 10 0 -2
BITMAP
AFFFF94E00
01A9104E00
00A8004E00
00A8004E00
00A8004E00
00A8004E00
00A9115E10
00AFFFFFE0
00000003E0
00000003D0
ENDCHAR
STARTCHAR uni04B8.c2sc
ENCODING -1
SWIDTH 487 0
DWIDTH 7 0
BBX 6 8 0 0
BITMAP
8A004E
8A004E
8B374E
5E6B6E
09FFDE
004A4E
00144E
00004E
ENDCHAR
STARTCHAR uni04BA.c2sc
ENCODING -1
SWIDTH 487 0
DWIDTH 7 0
BBX 7 8 0 0
BITMAP
2F100000
2F100000
2F100000
2FCFD600
2F514F20
2F100D50
2F100D50
2F100D50
ENDCHAR
STARTCHAR uni04BC.c2sc
ENCODING -1
SWIDTH 632 0
DWIDTH 9 0
BBX 9 8 0 0
BITMAP
0007DEB200
716E429C00
A7B7001F10
2CFFFFFF30
00C7111100
0099000000
003E625100
0005DFC300
ENDCHAR
STARTCHAR uni04D8.c2sc
ENCODING -1
SWIDTH 527 0
DWIDTH 7 0
BBX 7 8 0 0
BITMAP
04CEC400
03527F20
00000B80
000008A0
5FFFFFB0
3E000990
1D714E30
03CED500
ENDCHAR
STARTCHAR uni04E0.c2sc
ENCODING -1
SWIDTH 466 0
DWIDTH 7 0
BBX 6 8 0 0
BITMAP
4FFFF8
0117D1
004E30
009E80
0013C8
23007B
5E32B9
08EEA1
ENDCHAR
STARTCHAR uni04E8.c2sc
ENCODING -1
SWIDTH 519 0
DWIDTH 7 0
BBX 7 8 0 0
BITMAP
02BED400
0C825E10
2E000B60
5FFFFF80
4E111A80
2F200D60
0BA27E10
02BFD400
ENDCHAR
STARTCHAR lira.c2sc
ENCODING -1
SWIDTH 467 0
DWIDTH 7 0
BBX 6 8 0 0
BITMAP
01BEB2
08C2B9
0B7023
9FFFC0
0A8000
9FFFC0
0D6111
3FFFFF
ENDCHAR
STARTCHAR Euro.c2sc
ENCODING -1
SWIDTH 433 0
DWIDTH 6 0
BBX 6 8 0 0
BITMAP
009EE6
07D221
7FFFE0
099000
7FFFE0
08B000
03F411
006DE6
ENDCHAR
STARTCHAR uni2116.c2sc
ENCODING -1
SWIDTH 884 0
DWIDTH 12 0
BBX 12 8 0 0
BITMAP
2F500A80AEA1
2FD00A85C1B6
2FB70A879088
2F3D1A85C1B6
2F188A80AEB1
2F11DB800000
2F107F81FFF2
2F100D800000
ENDCHAR
STARTCHAR uni20BD.c2sc
ENCODING -1
SWIDTH 512 0
DWIDTH 7 0
BBX 7 8 0 0
BITMAP
08FFE900
08A12D70
08A009A0
08A01C70
9FFFFA10
08A10000
9FFF1000
08A10000
ENDCHAR
STARTCHAR three.dnom
ENCODING -1
SWIDTH 329 0
DWIDTH 5 0
BBX 4 5 0 0
BITMAP
2DE7
234D
05F7
343E
3DE8
ENDCHAR
STARTCHAR four.dnom
ENCODING -1
SWIDTH 329 0
DWIDTH 5 0
BBX 5 5 0 0
BITMAP
00B900
06D900
2B7900
8FFF20
006900
ENDCHAR
STARTCHAR five.dnom
ENCODING -1
SWIDTH 329 0
DWIDTH 5 0
BBX 4 5 0 0
BITMAP
0FFC
2C00
3EEA
142F
2CE8
ENDCHAR
STARTCHAR six.dnom
ENCODING -1
SWIDTH 329 0
DWIDTH 5 0
BBX 5 5 0 0
BITMAP
06D500
2E3000
5EEA00
5B2F10
0BE900
ENDCHAR
STARTCHAR seven.dnom
ENCODING -1
SWIDTH 329 0
DWIDTH 5 0
BBX 5 5 0 0
BITMAP
8FFF10
004A00
00B300
03C000
0B5000
ENDCHAR
STARTCHAR eight.dnom
ENCODING -1
SWIDTH 329 0
DWIDTH 5 0
BBX 4 5 0 0
BITMAP
1CE7
4D4D
1DF8
5B3E
2DE9
ENDCHAR
STARTCHAR nine.dnom
ENCODING -1
SWIDTH 329 0
DWIDTH 5 0
BBX 4 5 0 0
BITMAP
2CE6
6B4E
2DDE
007B
09C3
ENDCHAR
STARTCHAR glyph550
ENCODING -1
SWIDTH 404 0
DWIDTH 6 0
BBX 4 1 1 4
BITMAP
FFFB
ENDCHAR
STARTCHAR glyph551
ENCODING -1
SWIDTH 306 0
DWIDTH 4 0
BBX 3 4 1 7
BITMAP
0A70
1B00
BC00
CC00
ENDCHAR
STARTCHAR E.c2sc
ENCODING -1
SWIDTH 428 0
DWIDTH 6 0
BBX 6 8 0 0
BITMAP
2FFFF8
2F2110
2F1000
2FFFF1
2F2110
2F1000
2F2000
2FFFF8
ENDCHAR
STARTCHAR g.ss01
ENCODING -1
SWIDTH 463 0
DWIDTH 7 0
BBX 7 11 0 -3
BITMAP
06DFFF30
3F42D700
5D009900
2F42D600
09EE8000
0E200000
0EFFD500
6B116E00
A7003F10
8C22BB00
1AEE9100
ENDCHAR
STARTCHAR alpha.ss02
ENCODING -1
SWIDTH 523 0
DWIDTH 7 0
BBX 7 8 0 0
BITMAP
03DE7970
0C92CD50
2F205F30
4E002F00
4E002F00
3F105F30
0D82CD50
03DE7980
ENDCHAR
STARTCHAR R.ss03
ENCODING -1
SWIDTH 577 0
DWIDTH 8 0
BBX 7 10 1 0
BITMAP
DFFEB200
D712BB00
D6004F00
D6004F00
D601AA00
DFFFE200
D712BB00
D6004F00
D6004F00
D6002F30
ENDCHAR
STARTCHAR K.ss04
ENCODING -1
SWIDTH 560 0
DWIDTH 8 0
BBX 7 10 1 0
BITMAP
D6006F30
D602E700
D60CB000
D67E1000
DFF80000
D77E1000
D60C9000
D604F300
D600AC00
D6002E70
ENDCHAR
STARTCHAR k.ss04
ENCODING -1
SWIDTH 453 0
DWIDTH 6 0
BBX 7 11 0 0
BITMAP
1F200000
1F200000
1F200000
1F20C900
1F25E100
1F2C6000
1FFE0000
1F3D6000
1F26D000
1F20D700
1F206E10
ENDCHAR
STARTCHAR K.ss05
ENCODING -1
SWIDTH 572 0
DWIDTH 8 0
BBX 7 10 1 0
BITMAP
D6009E10
D605F400
D62E7000
D6CB0000
DED10000
DCE20000
D6AD1000
D61DA000
D602E700
D6005F30
ENDCHAR
STARTCHAR k.ss05
ENCODING -1
SWIDTH 454 0
DWIDTH 6 0
BBX 6 11 0 0
BITMAP
1F2000
1F2000
1F2000
1F22E7
1F2AB0
1F7E10
1FE600
1FEB00
1F5F60
1F27E2
1F20BB
ENDCHAR
STARTCHAR D.c2sc
ENCODING -1
SWIDTH 492 0
DWIDTH 7 0
BBX 7 8 0 0
BITMAP
2FFE9100
2F22B900
2F103F00
2F100F30
2F100F30
2F103F10
2F22C900
2FFD8000
ENDCHAR
STARTCHAR C.c2sc
ENCODING -1
SWIDTH 490 0
DWIDTH 7 0
BBX 7 8 0 0
BITMAP
02BEC400
0C926E10
3F100A30
5D000000
5D000000
3F100A30
0C816E10
02BEC400
ENDCHAR
STARTCHAR B.c2sc
ENCODING -1
SWIDTH 475 0
DWIDTH 7 0
BBX 6 8 0 0
BITMAP
2FFFC3
2F21AB
2F119A
2FFFE2
2F108B
2F104E
2F219C
2FFFC3
ENDCHAR
STARTCHAR A.c2sc
ENCODING -1
SWIDTH 501 0
DWIDTH 7 0
BBX 7 8 0 0
BITMAP
003F3000
008F9000
00D7E000
03E0D400
08909900
0DFFFE00
4E101E40
99000990
ENDCHAR
STARTCHAR glyph564
ENCODING -1
SWIDTH 236 0
DWIDTH 3 0
BBX 2 3 1 8
BITMAP
56
D5
E4
ENDCHAR
STARTCHAR glyph565
ENCODING -1
SWIDTH 402 0
DWIDTH 6 0
BBX 5 4 0 9
BITMAP
04A000
00A000
1E2B50
08EB00
ENDCHAR
STARTCHAR glyph566
ENCODING -1
SWIDTH 0 0
DWIDTH 0 0
BBX 4 4 -5 8
BITMAP
02D0
0750
7C74
97D1
ENDCHAR
STARTCHAR glyph567
ENCODING -1
SWIDTH 455 0
DWIDTH 6 0
BBX 6 3 1 9
BITMAP
0000B8
2DD4C1
B77B00
ENDCHAR
STARTCHAR glyph568
ENCODING -1
SWIDTH 454 0
DWIDTH 6 0
BBX 6 3 -1 8
BITMAP
9A0000
1C4DD2
01C58A
ENDCHAR
STARTCHAR glyph569
ENCODING -1
SWIDTH 446 0
DWIDTH 6 0
BBX 6 4 0 9
BITMAP
000059
00002D
04DD97
1C35B0
ENDCHAR
STARTCHAR glyph570
ENCODING -1
SWIDTH 453 0
DWIDTH 6 0
BBX 5 5 0 9
BITMAP
05C450
073D20
000000
03DC20
1C46A0
ENDCHAR
STARTCHAR uni0490.c2sc
ENCODING -1
SWIDTH 405 0
DWIDTH 6 0
BBX 6 11 0 0
BITMAP
000021
0000D5
0000D5
2FFFF5
2F2110
2F1000
2F1000
2F1000
2F1000
2F1000
2F1000
ENDCHAR
STARTCHAR glyph572
ENCODING -1
SWIDTH 404 0
DWIDTH 6 0
BBX 5 4 0 9
BITMAP
005900
007300
1E2B50
08EB00
ENDCHAR
STARTCHAR glyph573
ENCODING -1
SWIDTH 404 0
DWIDTH 6 0
BBX 5 5 0 9
BITMAP
009700
006C00
00C300
1E2D30
08E900
ENDCHAR
STARTCHAR zero.numr
ENCODING -1
SWIDTH 329 0
DWIDTH 5 0
BBX 4 5 0 5
BITMAP
1BE6
5B2E
690F
5B3E
1BE7
ENDCHAR
STARTCHAR four.numr
ENCODING -1
SWIDTH 329 0
DWIDTH 5 0
BBX 5 5 0 5
BITMAP
00B900
06D900
2B7900
8FFF20
006900
ENDCHAR
STARTCHAR five.numr
ENCODING -1
SWIDTH 329 0
DWIDTH 5 0
BBX 4 5 0 5
BITMAP
0FFC
2C00
3EEA
142F
2CE8
ENDCHAR
STARTCHAR six.numr
ENCODING -1
SWIDTH 329 0
DWIDTH 5 0
BBX 5 5 0 5
BITMAP
06D500
2E3000
5EEA00
5B2F10
0BE900
ENDCHAR
STARTCHAR seven.numr
ENCODING -1
SWIDTH 329 0
DWIDTH 5 0
BBX 5 5 0 5
BITMAP
8FFF10
004A00
00B300
03C000
0B5000
ENDCHAR
STARTCHAR eight.numr
ENCODING -1
SWIDTH 329 0
DWIDTH 5 0
BBX 4 5 0 5
BITMAP
1CE7
4D4D
1DF8
5B3E
2DE9
ENDCHAR
STARTCHAR nine.numr
ENCODING -1
SWIDTH 329 0
DWIDTH 5 0
BBX 4 5 0 5
BITMAP
2CE6
6B4E
2DDE
007B
09C3
ENDCHAR
STARTCHAR C.ss06
ENCODING -1
SWIDTH 603 0
DWIDTH 8 0
BBX 8 10 0 0
BITMAP
004CEC40
04E627E2
0B9000B8
0F400034
2F200000
2F200000
0F400033
0B9000B8
03F626F2
004CEC40
ENDCHAR
STARTCHAR G.ss06
ENCODING -1
SWIDTH 618 0
DWIDTH 9 0
BBX 8 10 0 0
BITMAP
004CEC50
03F726F3
0B9000A9
0F400000
2F200000
2F205FFB
0F40018B
0AA0008B
03E724CA
003CFE91
ENDCHAR
STARTCHAR D.ss06
ENCODING -1
SWIDTH 608 0
DWIDTH 9 0
BBX 7 10 1 0
BITMAP
DFFD7000
D714D900
D6003F30
D6000C70
D6000A90
D6000A90
D6000C70
D6003F30
D714D900
DFFD7000
ENDCHAR
STARTCHAR O.ss06
ENCODING -1
SWIDTH 643 0
DWIDTH 9 0
BBX 9 10 0 0
BITMAP
003CEC3000
03E737E300
0AA000AA00
0F40004E00
2F20002F10
2F20002F10
0F40004E00
0A9000AA00
03E727E300
003CEC4000
ENDCHAR
STARTCHAR Q.ss06
ENCODING -1
SWIDTH 644 0
DWIDTH 9 0
BBX 9 12 0 -2
BITMAP
003CEC3000
02E737E300
0AA000AA00
0E40004E00
2F20002F10
2F20002F10
0F40004E00
0A9000AA00
03E727E300
003CFF8000
000005F500
0000004100
ENDCHAR
STARTCHAR one.oldstyle.pnum
ENCODING -1
SWIDTH 421 0
DWIDTH 6 0
BBX 4 8 1 0
BITMAP
27C6
D8D6
00C6
00C6
00C6
00C6
00C6
00C6
ENDCHAR
STARTCHAR two.oldstyle.pnum
ENCODING -1
SWIDTH 492 0
DWIDTH 7 0
BBX 7 8 0 0
BITMAP
02BEC200
0C91AB00
1C205D00
0000B900
0008C100
007E2000
05E30000
0EFFFF30
ENDCHAR
STARTCHAR three.oldstyle.pnum
ENCODING -1
SWIDTH 474 0
DWIDTH 7 0
BBX 6 10 0 -2
BITMAP
5FFFFB
0114D2
003D30
00BF90
0003E6
00008B
00006C
000099
5416F3
5CFD50
ENDCHAR
STARTCHAR four.oldstyle.pnum
ENCODING -1
SWIDTH 524 0
DWIDTH 7 0
BBX 7 10 0 -2
BITMAP
0000BC00
0005FC00
000DAC00
006B6C00
01E36C00
08A06C00
2E306C00
7FFFFFE0
00006C00
00006C00
ENDCHAR
STARTCHAR five.oldstyle.pnum
ENCODING -1
SWIDTH 483 0
DWIDTH 7 0
BBX 7 10 0 -2
BITMAP
09FFFF10
0A733300
0C400000
0ECEB100
1F53DA00
01005E00
00003F00
00005E00
1723D800
1AEE8000
ENDCHAR
STARTCHAR seven.oldstyle.pnum
ENCODING -1
SWIDTH 458 0
DWIDTH 6 0
BBX 6 10 0 -2
BITMAP
7FFFFE
01118A
0000D4
0004D0
000A80
001E20
006C00
00C600
02F100
08A000
ENDCHAR
STARTCHAR glyph592
ENCODING -1
SWIDTH 402 0
DWIDTH 6 0
BBX 5 5 0 8
BITMAP
09A630
086D00
000000
1E1C30
08EA00
ENDCHAR
STARTCHAR glyph593
ENCODING -1
SWIDTH 183 0
DWIDTH 3 0
BBX 2 4 0 -3
BITMAP
5D
5D
5D
5D
ENDCHAR
STARTCHAR OE.c2sc
ENCODING -1
SWIDTH 714 0
DWIDTH 10 0
BBX 10 8 0 0
BITMAP
02BFFFFFF8
0CA23F2110
2F101F2000
5D001FFFF1
4D001F2110
2F101F2000
0B912F2000
02BFFFFFF9
ENDCHAR
STARTCHAR nine.oldstyle.pnum
ENCODING -1
SWIDTH 520 0
DWIDTH 7 0
BBX 7 10 0 -2
BITMAP
01AEC300
09B27E10
0E400D50
1F200B70
0E400B70
09C25F70
01AECE60
00001F20
0222BA00
05EE9100
ENDCHAR
STARTCHAR glyph596
ENCODING -1
SWIDTH 234 0
DWIDTH 3 0
BBX 4 5 -1 -3
BITMAP
0010
00D5
00D5
03F3
2E90
ENDCHAR
STARTCHAR three.oldstyle
ENCODING -1
SWIDTH 494 0
DWIDTH 7 0
BBX 6 10 0 -2
BITMAP
2FFFFF
0112D5
001C50
008FB1
0002CA
00004F
00003F
00005D
3514D7
3BEE80
ENDCHAR
STARTCHAR five.oldstyle
ENCODING -1
SWIDTH 494 0
DWIDTH 7 0
BBX 7 10 0 -2
BITMAP
07FFFF20
09933300
0B500000
0DCEC200
0E63CB00
01003F10
00001F20
00004F00
0722C900
19EE9100
ENDCHAR
STARTCHAR four.oldstyle
ENCODING -1
SWIDTH 494 0
DWIDTH 7 0
BBX 7 10 0 -2
BITMAP
0000DA00
0007FA00
001EAA00
00898A00
02E18A00
0A808A00
3E108A00
9FFFFFC0
00008A00
00008A00
ENDCHAR
STARTCHAR two.oldstyle
ENCODING -1
SWIDTH 494 0
DWIDTH 7 0
BBX 7 8 0 0
BITMAP
02CEB200
0D81BA00
1C106C00
0000C800
0009C100
008D1000
06E30000
0EFFFF20
ENDCHAR
STARTCHAR seven.oldstyle
ENCODING -1
SWIDTH 494 0
DWIDTH 7 0
BBX 7 10 0 -2
BITMAP
2FFFFF30
01114E00
00009800
0001E300
0005C000
000B7000
002F1000
008A0000
00D50000
04E00000
ENDCHAR
STARTCHAR zero.oldstyle
ENCODING -1
SWIDTH 494 0
DWIDTH 7 0
BBX 7 8 0 0
BITMAP
03CFC300
1E728D00
5D000E40
7B000C60
7B000C60
5D000E40
1E718D00
03CFC300
ENDCHAR
STARTCHAR six.oldstyle
ENCODING -1
SWIDTH 494 0
DWIDTH 7 0
BBX 7 10 0 0
BITMAP
004CE000
03E72000
0A800000
0E9EC200
1FA29C00
2F202F10
1F200F20
0E402F10
09C29B00
01BEB200
ENDCHAR
STARTCHAR nine.oldstyle
ENCODING -1
SWIDTH 494 0
DWIDTH 7 0
BBX 7 10 0 -2
BITMAP
02CEB100
0D82AB00
3F102F10
4E000F30
3F100F40
0D918F30
03CEBF20
00005D00
0314D600
09ED6000
ENDCHAR
STARTCHAR eight.oldstyle
ENCODING -1
SWIDTH 494 0
DWIDTH 7 0
BBX 7 10 0 0
BITMAP
03CEB200
0C91AB00
0F305D00
0B819A00
02FFE100
0C82AA00
2F103F10
2F102F10
0D819C00
03CEB200
ENDCHAR
STARTCHAR one.oldstyle
ENCODING -1
SWIDTH 494 0
DWIDTH 7 0
BBX 4 8 1 0
BITMAP
15AB
8A9C
006C
006C
006C
006C
006C
006C
ENDCHAR
STARTCHAR glyph607
ENCODING -1
SWIDTH 237 0
DWIDTH 3 0
BBX 4 11 -1 -3
BITMAP
00D5
00D5
00D5
00D5
00D5
00D5
00D5
00D5
00E4
02F2
2E90
ENDCHAR
STARTCHAR glyph608
ENCODING -1
SWIDTH 238 0
DWIDTH 3 0
BBX 4 11 -1 -3
BITMAP
00D5
00D5
00D5
00D5
00D5
00D5
00D5
00D5
00E4
02F2
2E90
ENDCHAR
STARTCHAR glyph609
ENCODING -1
SWIDTH 235 0
DWIDTH 3 0
BBX 2 8 1 0
BITMAP
F3
F3
F3
F3
F3
F3
F3
F3
ENDCHAR
STARTCHAR glyph610
ENCODING -1
SWIDTH 235 0
DWIDTH 3 0
BBX 3 11 0 -3
BITMAP
0F30
0F30
0F30
0F30
0F30
0F30
0F30
0F30
7900
D400
9E20
ENDCHAR
STARTCHAR glyph611
ENCODING -1
SWIDTH 235 0
DWIDTH 3 0
BBX 2 8 1 0
BITMAP
F3
F3
F3
F3
F3
F3
F3
F3
ENDCHAR
STARTCHAR germandbls.sc
ENCODING -1
SWIDTH 475 0
DWIDTH 7 0
BBX 6 8 0 0
BITMAP
04DEA2
0D73F4
1F2B70
2F4FC3
2F108D
2F104F
2F318C
2F7EC3
ENDCHAR
STARTCHAR zero.oldstyle.pnum
ENCODING -1
SWIDTH 545 0
DWIDTH 8 0
BBX 7 8 0 0
BITMAP
01AED600
09B24E40
0F3009A0
2F1006C0
2F1006C0
0F3009A0
09B24E40
01AEE700
ENDCHAR
STARTCHAR seven.pnum
ENCODING -1
SWIDTH 458 0
DWIDTH 6 0
BBX 6 10 0 0
BITMAP
8FFFFC
011198
0000E3
0005D0
000A70
001F20
006C00
00B600
02F100
07B000
ENDCHAR
STARTCHAR b.ss06
ENCODING -1
SWIDTH 493 0
DWIDTH 7 0
BBX 7 11 0 0
BITMAP
1F200000
1F200000
1F200000
1F9ED300
1F929D00
1F201F30
1F200D50
1F200D50
1F201F30
1F929D00
1F7ED300
ENDCHAR
STARTCHAR c.ss06
ENCODING -1
SWIDTH 460 0
DWIDTH 6 0
BBX 6 8 0 0
BITMAP
02CEB1
0C82AA
3F103B
5D0000
4D0000
2F1028
0C81AA
02CFA1
ENDCHAR
STARTCHAR d.ss06
ENCODING -1
SWIDTH 503 0
DWIDTH 7 0
BBX 7 11 0 0
BITMAP
00002F10
00002F10
00002F10
02CE9F10
0CA29F10
3F102F10
5E002F10
5E002F10
2F102F10
0CA28F10
02CE8F10
ENDCHAR
STARTCHAR g.ss06
ENCODING -1
SWIDTH 500 0
DWIDTH 7 0
BBX 7 11 0 -3
BITMAP
02CE7F10
0CA29F10
3F102F10
5E002F10
5E002F10
2F102F10
0CA28F10
02CE9F10
00004E00
0641AA00
05DEA100
ENDCHAR
STARTCHAR o.ss06
ENCODING -1
SWIDTH 508 0
DWIDTH 7 0
BBX 7 8 0 0
BITMAP
01BEC200
0BA28D00
2F200E40
5E000C60
4E000C60
2F100E40
0B928D00
02BFC200
ENDCHAR
STARTCHAR p.ss06
ENCODING -1
SWIDTH 500 0
DWIDTH 7 0
BBX 7 11 0 -3
BITMAP
1F7EC300
1F92AD00
1F201F30
1F200D50
1F200D50
1F201F30
1F829C00
1F9ED300
1F200000
1F200000
1F200000
ENDCHAR
STARTCHAR q.ss06
ENCODING -1
SWIDTH 508 0
DWIDTH 7 0
BBX 7 11 0 -3
BITMAP
03CE8F10
0CA28F10
2F102F10
4E002F10
4E002F10
2F102F10
0CA28F10
03CEAF10
00002F10
00002F10
00002F10
ENDCHAR
STARTCHAR e.ss07
ENCODING -1
SWIDTH 468 0
DWIDTH 7 0
BBX 6 8 0 0
BITMAP
02BEB2
0B81AA
2F004E
4FFFFF
4E1111
2F3000
0BB225
01AED5
ENDCHAR
STARTCHAR g.ss07
ENCODING -1
SWIDTH 492 0
DWIDTH 7 0
BBX 6 11 0 -3
BITMAP
03DE7F
0D92AF
3F103F
4E003F
4E003F
2F103F
0C92AF
03DEAF
00005D
0332B8
05DEA1
ENDCHAR
STARTCHAR one.pnum
ENCODING -1
SWIDTH 382 0
DWIDTH 5 0
BBX 4 10 0 0
BITMAP
049C
6CAD
005D
005D
005D
005D
005D
005D
005D
005D
ENDCHAR
STARTCHAR ampersand.c2sc
ENCODING -1
SWIDTH 526 0
DWIDTH 7 0
BBX 7 8 0 0
BITMAP
04DE5000
0C87D000
0A98B000
02FD2100
0ACE2A60
3E17DE30
3F32DD00
08EE9C70
ENDCHAR
STARTCHAR Lslash.c2sc
ENCODING -1
SWIDTH 411 0
DWIDTH 6 0
BBX 6 8 0 0
BITMAP
2F1000
2F1000
2F1000
2FA700
CF6100
3F1000
2F2000
2FFFF6
ENDCHAR
STARTCHAR AE.c2sc
ENCODING -1
SWIDTH 676 0
DWIDTH 9 0
BBX 9 8 0 0
BITMAP
0005FFFF90
000CCB0000
004D7B0000
00B77FFF40
03E16C0000
0AFFFD0000
2F305D0000
9A004FFFE0
ENDCHAR
STARTCHAR Thorn.c2sc
ENCODING -1
SWIDTH 440 0
DWIDTH 6 0
BBX 6 8 0 0
BITMAP
2F1000
2FFE90
2F22D7
2F109A
2F11C7
2FFFA1
2F2000
2F1000
ENDCHAR
STARTCHAR Oslash.c2sc
ENCODING -1
SWIDTH 519 0
DWIDTH 7 0
BBX 7 10 0 -1
BITMAP
00000110
02BECC30
0CA29E10
2F11CC60
5D087980
4D2C0980
2FB40C60
0BD16E10
0CBFD400
13000000
ENDCHAR
STARTCHAR Hbar.c2sc
ENCODING -1
SWIDTH 533 0
DWIDTH 7 0
BBX 8 8 0 0
BITMAP
2F100A80
9FFFFFF1
2F200A90
2F100A80
2FFFFF80
2F211A80
2F100A80
2F100A80
ENDCHAR
STARTCHAR Eng.c2sc
ENCODING -1
SWIDTH 533 0
DWIDTH 7 0
BBX 7 11 0 -3
BITMAP
2F500A80
2FD00A80
2FB70A80
2F3D1A80
2F188A80
2F11DB80
2F107F80
2F100D80
00000A80
00002C60
0000DB10
ENDCHAR
STARTCHAR Dcroat.c2sc
ENCODING -1
SWIDTH 492 0
DWIDTH 7 0
BBX 8 8 -1 0
BITMAP
02FFE910
02F22B90
02F103F0
4FFF60F3
02F200F3
02F103F1
02F22C90
02FFD800
ENDCHAR
STARTCHAR Eth.c2sc
ENCODING -1
SWIDTH 492 0
DWIDTH 7 0
BBX 8 8 -1 0
BITMAP
02FFE910
02F22B90
02F103F0
4FFF60F3
02F200F3
02F103F1
02F22C90
02FFD800
ENDCHAR
STARTCHAR Tbar.c2sc
ENCODING -1
SWIDTH 456 0
DWIDTH 6 0
BBX 6 8 0 0
BITMAP
AFFFFF
017C11
006C00
0AFFF1
007C00
006C00
006C00
006C00
ENDCHAR
STARTCHAR Agrave.c2sc
ENCODING -1
SWIDTH 501 0
DWIDTH 7 0
BBX 7 11 0 0
BITMAP
03E60000
004C1000
00000000
003F3000
008F9000
00D7E000
03E0D400
08909900
0DFFFE00
4E101E40
99000990
ENDCHAR
STARTCHAR Aacute.c2sc
ENCODING -1
SWIDTH 501 0
DWIDTH 7 0
BBX 7 11 0 0
BITMAP
0005E400
000C5000
00000000
003F3000
008F9000
00D7E000
03E0D400
08909900
0DFFFE00
4E101E40
99000990
ENDCHAR
STARTCHAR Acircumflex.c2sc
ENCODING -1
SWIDTH 501 0
DWIDTH 7 0
BBX 7 11 0 0
BITMAP
005E6000
01C3C100
00000000
003F3000
008F9000
00D7E000
03E0D400
08909900
0DFFFE00
4E101E40
99000990
ENDCHAR
STARTCHAR Atilde.c2sc
ENCODING -1
SWIDTH 501 0
DWIDTH 7 0
BBX 7 11 0 0
BITMAP
02D75800
0767E300
00000000
003F3000
008F9000
00D7E000
03E0D400
08909900
0DFFFE00
4E101E40
99000990
ENDCHAR
STARTCHAR Adieresis.c2sc
ENCODING -1
SWIDTH 501 0
DWIDTH 7 0
BBX 7 11 0 0
BITMAP
02303300
08A09900
00000000
003F3000
008F9000
00D7E000
03E0D400
08909900
0DFFFE00
4E101E40
99000990
ENDCHAR
STARTCHAR Aring.c2sc
ENCODING -1
SWIDTH 501 0
DWIDTH 7 0
BBX 7 12 0 0
BITMAP
007A8000
00B0B000
007A8000
00000000
003F3000
008F9000
00D7E000
03E0D400
08909900
0DFFFE00
4E101E40
99000990
ENDCHAR
STARTCHAR Aringacute.c2sc
ENCODING -1
SWIDTH 501 0
DWIDTH 7 0
BBX 7 11 0 0
BITMAP
0003E100
00075000
004E5000
007F9000
008F9000
00D7E000
03E0D400
08909900
0DFFFE00
4E101E40
99000990
ENDCHAR
STARTCHAR Ccedilla.c2sc
ENCODING -1
SWIDTH 490 0
DWIDTH 7 0
BBX 7 11 0 -3
BITMAP
02BEC400
0C926E10
3F100A30
5D000000
5D000000
3F100A30
0C816E10
02BEC400
000D0000
00058000
000E6000
ENDCHAR
STARTCHAR Egrave.c2sc
ENCODING -1
SWIDTH 428 0
DWIDTH 6 0
BBX 6 11 0 0
BITMAP
07E200
009800
000000
2FFFF8
2F2110
2F1000
2FFFF1
2F2110
2F1000
2F2000
2FFFF8
ENDCHAR
STARTCHAR Eacute.c2sc
ENCODING -1
SWIDTH 428 0
DWIDTH 6 0
BBX 6 11 0 0
BITMAP
0009D1
003C20
000000
2FFFF8
2F2110
2F1000
2FFFF1
2F2110
2F1000
2F2000
2FFFF8
ENDCHAR
STARTCHAR Ecircumflex.c2sc
ENCODING -1
SWIDTH 428 0
DWIDTH 6 0
BBX 6 11 0 0
BITMAP
009D20
04A5A0
000000
2FFFF8
2F2110
2F1000
2FFFF1
2F2110
2F1000
2F2000
2FFFF8
ENDCHAR
STARTCHAR Edieresis.c2sc
ENCODING -1
SWIDTH 428 0
DWIDTH 6 0
BBX 6 11 0 0
BITMAP
041051
0C60D5
000000
2FFFF8
2F2110
2F1000
2FFFF1
2F2110
2F1000
2F2000
2FFFF8
ENDCHAR
STARTCHAR Igrave.c2sc
ENCODING -1
SWIDTH 221 0
DWIDTH 3 0
BBX 4 11 -1 0
BITMAP
3E60
04C1
0000
01F2
01F2
01F2
01F2
01F2
01F2
01F2
01F2
ENDCHAR
STARTCHAR Iacute.c2sc
ENCODING -1
SWIDTH 221 0
DWIDTH 3 0
BBX 4 11 0 0
BITMAP
04E4
0B50
0000
1F20
1F20
1F20
1F20
1F20
1F20
1F20
1F20
ENDCHAR
STARTCHAR Icircumflex.c2sc
ENCODING -1
SWIDTH 221 0
DWIDTH 3 0
BBX 5 11 -1 0
BITMAP
05E600
1C3C20
000000
01F200
01F200
01F200
01F200
01F200
01F200
01F200
01F200
ENDCHAR
STARTCHAR Idieresis.c2sc
ENCODING -1
SWIDTH 221 0
DWIDTH 3 0
BBX 5 11 -1 0
BITMAP
240330
7A08A0
000000
01F200
01F200
01F200
01F200
01F200
01F200
01F200
01F200
ENDCHAR
STARTCHAR Ntilde.c2sc
ENCODING -1
SWIDTH 533 0
DWIDTH 7 0
BBX 7 12 0 0
BITMAP
00000100
01CA3B00
0485E500
00000000
2F500A80
2FD00A80
2FB70A80
2F3D1A80
2F188A80
2F11DB80
2F107F80
2F100D80
ENDCHAR
STARTCHAR Ograve.c2sc
ENCODING -1
SWIDTH 519 0
DWIDTH 7 0
BBX 7 11 0 0
BITMAP
02E70000
003D2000
00000000
02BED400
0CA26E10
2F100C60
5D000980
4D000980
2F100C60
0B926E10
02BFD400
ENDCHAR
STARTCHAR Oacute.c2sc
ENCODING -1
SWIDTH 519 0
DWIDTH 7 0
BBX 7 11 0 0
BITMAP
0003E500
000A6000
00000000
02BED400
0CA26E10
2F100C60
5D000980
4D000980
2F100C60
0B926E10
02BFD400
ENDCHAR
STARTCHAR Ocircumflex.c2sc
ENCODING -1
SWIDTH 519 0
DWIDTH 7 0
BBX 7 11 0 0
BITMAP
004E7000
00B3C200
00000000
02BED400
0CA26E10
2F100C60
5D000980
4D000980
2F100C60
0B926E10
02BFD400
ENDCHAR
STARTCHAR Otilde.c2sc
ENCODING -1
SWIDTH 519 0
DWIDTH 7 0
BBX 7 12 0 0
BITMAP
00000100
01D94A00
0586E400
00000000
02BED400
0CA26E10
2F100C60
5D000980
4D000980
2F100C60
0B926E10
02BFD400
ENDCHAR
STARTCHAR Odieresis.c2sc
ENCODING -1
SWIDTH 519 0
DWIDTH 7 0
BBX 7 11 0 0
BITMAP
02402400
06C07B00
00000000
02BED400
0CA26E10
2F100C60
5D000980
4D000980
2F100C60
0B926E10
02BFD400
ENDCHAR
STARTCHAR Ugrave.c2sc
ENCODING -1
SWIDTH 488 0
DWIDTH 7 0
BBX 7 11 0 0
BITMAP
04E40000
006B0000
00000000
4E002F10
4E002F10
4E002F10
4E002F10
4E002F10
3F002F10
1E618C00
04CEB200
ENDCHAR
STARTCHAR Uacute.c2sc
ENCODING -1
SWIDTH 488 0
DWIDTH 7 0
BBX 7 11 0 0
BITMAP
0006E300
001C3000
00000000
4E002F10
4E002F10
4E002F10
4E002F10
4E002F10
3F002F10
1E618C00
04CEB200
ENDCHAR
STARTCHAR Ucircumflex.c2sc
ENCODING -1
SWIDTH 488 0
DWIDTH 7 0
BBX 7 11 0 0
BITMAP
007E4000
02C3C100
00000000
4E002F10
4E002F10
4E002F10
4E002F10
4E002F10
3F002F10
1E618C00
04CEB200
ENDCHAR
STARTCHAR Udieresis.c2sc
ENCODING -1
SWIDTH 488 0
DWIDTH 7 0
BBX 7 11 0 0
BITMAP
03304200
0A80A700
00000000
4E002F10
4E002F10
4E002F10
4E002F10
4E002F10
3F002F10
1E618C00
04CEB200
ENDCHAR
STARTCHAR Yacute.c2sc
ENCODING -1
SWIDTH 458 0
DWIDTH 6 0
BBX 7 11 0 0
BITMAP
0009C100
003C1000
00000000
9C005E10
2F30C800
0AA4E100
03FB9000
00BF2000
006C0000
006C0000
006C0000
ENDCHAR
STARTCHAR Amacron.c2sc
ENCODING -1
SWIDTH 501 0
DWIDTH 7 0
BBX 7 10 0 0
BITMAP
06FFF800
00000000
003F3000
008F9000
00D7E000
03E0D400
08909900
0DFFFE00
4E101E40
99000990
ENDCHAR
STARTCHAR Abreve.c2sc
ENCODING -1
SWIDTH 501 0
DWIDTH 7 0
BBX 7 11 0 0
BITMAP
06B19700
01BEB100
00000000
003F3000
008F9000
00D7E000
03E0D400
08909900
0DFFFE00
4E101E40
99000990
ENDCHAR
STARTCHAR Aogonek.c2sc
ENCODING -1
SWIDTH 501 0
DWIDTH 7 0
BBX 7 11 0 -3
BITMAP
003F3000
008F9000
00D7E000
03E0D400
08909900
0DFFFE00
4E101E40
99000990
00001C20
00007A10
00003E80
ENDCHAR
STARTCHAR Cacute.c2sc
ENCODING -1
SWIDTH 490 0
DWIDTH 7 0
BBX 7 11 0 0
BITMAP
0005E400
000C5000
00000000
02BEC400
0C926E10
3F100A30
5D000000
5D000000
3F100A30
0C816E10
02BEC400
ENDCHAR
STARTCHAR Ccircumflex.c2sc
ENCODING -1
SWIDTH 490 0
DWIDTH 7 0
BBX 7 11 0 0
BITMAP
005E6000
01C3C100
00000000
02BEC400
0C926E10
3F100A30
5D000000
5D000000
3F100A30
0C816E10
02BEC400
ENDCHAR
STARTCHAR Cdotaccent.c2sc
ENCODING -1
SWIDTH 490 0
DWIDTH 7 0
BBX 7 11 0 0
BITMAP
00050000
002E2000
00000000
02BEC400
0C926E10
3F100A30
5D000000
5D000000
3F100A30
0C816E10
02BEC400
ENDCHAR
STARTCHAR Ccaron.c2sc
ENCODING -1
SWIDTH 490 0
DWIDTH 7 0
BBX 7 11 0 0
BITMAP
01D3D200
004E4000
00000000
02BEC400
0C926E10
3F100A30
5D000000
5D000000
3F100A30
0C816E10
02BEC400
ENDCHAR
STARTCHAR Dcaron.c2sc
ENCODING -1
SWIDTH 492 0
DWIDTH 7 0
BBX 7 11 0 0
BITMAP
08888000
00BB0000
00000000
2FFE9100
2F22B900
2F103F00
2F100F30
2F100F30
2F103F10
2F22C900
2FFD8000
ENDCHAR
STARTCHAR Emacron.c2sc
ENCODING -1
SWIDTH 428 0
DWIDTH 6 0
BBX 6 10 0 0
BITMAP
0BFFF4
000000
2FFFF8
2F2110
2F1000
2FFFF1
2F2110
2F1000
2F2000
2FFFF8
ENDCHAR
STARTCHAR Ebreve.c2sc
ENCODING -1
SWIDTH 428 0
DWIDTH 6 0
BBX 6 11 0 0
BITMAP
0B71D3
03DE80
000000
2FFFF8
2F2110
2F1000
2FFFF1
2F2110
2F1000
2F2000
2FFFF8
ENDCHAR
STARTCHAR Edotaccent.c2sc
ENCODING -1
SWIDTH 428 0
DWIDTH 6 0
BBX 6 11 0 0
BITMAP
002400
006C00
000000
2FFFF8
2F2110
2F1000
2FFFF1
2F2110
2F1000
2F2000
2FFFF8
ENDCHAR
STARTCHAR Eogonek.c2sc
ENCODING -1
SWIDTH 428 0
DWIDTH 6 0
BBX 6 11 0 -3
BITMAP
2FFFF8
2F2110
2F1000
2FFFF1
2F2110
2F1000
2F2000
2FFFF8
0005A0
000B50
0008E3
ENDCHAR
STARTCHAR Ecaron.c2sc
ENCODING -1
SWIDTH 428 0
DWIDTH 6 0
BBX 6 11 0 0
BITMAP
05B5B0
008D10
000000
2FFFF8
2F2110
2F1000
2FFFF1
2F2110
2F1000
2F2000
2FFFF8
ENDCHAR
STARTCHAR Gcircumflex.c2sc
ENCODING -1
SWIDTH 509 0
DWIDTH 7 0
BBX 7 11 0 0
BITMAP
006E5000
02C3C100
00000000
02BED400
0C916E10
3F100720
5D000000
5E05FF50
3F100D50
0CA12E50
01AEE900
ENDCHAR
STARTCHAR Gbreve.c2sc
ENCODING -1
SWIDTH 509 0
DWIDTH 7 0
BBX 7 11 0 0
BITMAP
07A1A700
01BEB100
00000000
02BED400
0C916E10
3F100720
5D000000
5E05FF50
3F100D50
0CA12E50
01AEE900
ENDCHAR
STARTCHAR Gdotaccent.c2sc
ENCODING -1
SWIDTH 509 0
DWIDTH 7 0
BBX 7 11 0 0
BITMAP
00050000
002E2000
00000000
02BED400
0C916E10
3F100720
5D000000
5E05FF50
3F100D50
0CA12E50
01AEE900
ENDCHAR
STARTCHAR uni0122.c2sc
ENCODING -1
SWIDTH 509 0
DWIDTH 7 0
BBX 7 12 0 -4
BITMAP
02BED400
0C916E10
3F100720
5D000000
5E05FF50
3F100D50
0CA12E50
01AEE900
00000000
001F1000
003D0000
00580000
ENDCHAR
STARTCHAR Hcircumflex.c2sc
ENCODING -1
SWIDTH 533 0
DWIDTH 7 0
BBX 7 11 0 0
BITMAP
004E8000
00B3B300
00000000
2F100A80
2F100A80
2F100A80
2FFFFF80
2F211A80
2F100A80
2F100A80
2F100A80
ENDCHAR
STARTCHAR Itilde.c2sc
ENCODING -1
SWIDTH 221 0
DWIDTH 3 0
BBX 5 11 -1 0
BITMAP
2D8580
767E30
000000
01F200
01F200
01F200
01F200
01F200
01F200
01F200
01F200
ENDCHAR
STARTCHAR Imacron.c2sc
ENCODING -1
SWIDTH 221 0
DWIDTH 3 0
BBX 5 10 -1 0
BITMAP
6FFF90
000000
01F200
01F200
01F200
01F200
01F200
01F200
01F200
01F200
ENDCHAR
STARTCHAR Ibreve.c2sc
ENCODING -1
SWIDTH 221 0
DWIDTH 3 0
BBX 5 11 -1 0
BITMAP
6B1980
1BEB10
000000
01F200
01F200
01F200
01F200
01F200
01F200
01F200
01F200
ENDCHAR
STARTCHAR Iogonek.c2sc
ENCODING -1
SWIDTH 221 0
DWIDTH 3 0
BBX 3 11 0 -3
BITMAP
1F20
1F20
1F20
1F20
1F20
1F20
1F20
1F30
6A00
C500
8E30
ENDCHAR
STARTCHAR Idotaccent.c2sc
ENCODING -1
SWIDTH 221 0
DWIDTH 3 0
BBX 3 11 0 0
BITMAP
0510
1E30
0000
1F20
1F20
1F20
1F20
1F20
1F20
1F20
1F20
ENDCHAR
STARTCHAR Jcircumflex.c2sc
ENCODING -1
SWIDTH 419 0
DWIDTH 6 0
BBX 6 11 0 0
BITMAP
0008E3
003B4B
000000
0003F0
0003F0
0003F0
0003F0
0003F0
4303F0
7C17D0
1AED30
ENDCHAR
STARTCHAR uni0136.c2sc
ENCODING -1
SWIDTH 473 0
DWIDTH 7 0
BBX 7 12 0 -4
BITMAP
2F107E10
2F14F400
2F3E7000
2FCD0000
2FDE5000
2F27D100
2F10C900
2F103F40
00000000
006B0000
00890000
00930000
ENDCHAR
STARTCHAR Lacute.c2sc
ENCODING -1
SWIDTH 411 0
DWIDTH 6 0
BBX 6 11 0 0
BITMAP
05E400
0C5000
000000
2F1000
2F1000
2F1000
2F1000
2F1000
2F1000
2F2000
2FFFF6
ENDCHAR
STARTCHAR uni013B.c2sc
ENCODING -1
SWIDTH 411 0
DWIDTH 6 0
BBX 6 12 0 -4
BITMAP
2F1000
2F1000
2F1000
2F1000
2F1000
2F1000
2F2000
2FFFF6
000000
007B00
008800
009300
ENDCHAR
STARTCHAR Lcaron.c2sc
ENCODING -1
SWIDTH 411 0
DWIDTH 6 0
BBX 6 8 0 0
BITMAP
2F1A70
2F1C40
2F2B10
2F1000
2F1000
2F1000
2F2000
2FFFF6
ENDCHAR
STARTCHAR Ldot.c2sc
ENCODING -1
SWIDTH 411 0
DWIDTH 6 0
BBX 6 8 0 0
BITMAP
2F1000
2F1000
2F1510
2F1D50
2F1000
2F1000
2F2000
2FFFF6
ENDCHAR
STARTCHAR Nacute.c2sc
ENCODING -1
SWIDTH 533 0
DWIDTH 7 0
BBX 7 11 0 0
BITMAP
0002E600
00098000
00000000
2F500A80
2FD00A80
2FB70A80
2F3D1A80
2F188A80
2F11DB80
2F107F80
2F100D80
ENDCHAR
STARTCHAR uni0145.c2sc
ENCODING -1
SWIDTH 533 0
DWIDTH 7 0
BBX 7 12 0 -4
BITMAP
2F500A80
2FD00A80
2FB70A80
2F3D1A80
2F188A80
2F11DB80
2F107F80
2F100D80
00000000
000D4000
000F1000
002A0000
ENDCHAR
STARTCHAR Ncaron.c2sc
ENCODING -1
SWIDTH 533 0
DWIDTH 7 0
BBX 7 11 0 0
BITMAP
00C4C400
002D7000
00000000
2F500A80
2FD00A80
2FB70A80
2F3D1A80
2F188A80
2F11DB80
2F107F80
2F100D80
ENDCHAR
STARTCHAR Omacron.c2sc
ENCODING -1
SWIDTH 519 0
DWIDTH 7 0
BBX 7 10 0 0
BITMAP
05FFFA00
00000000
02BED400
0CA26E10
2F100C60
5D000980
4D000980
2F100C60
0B926E10
02BFD400
ENDCHAR
STARTCHAR Obreve.c2sc
ENCODING -1
SWIDTH 519 0
DWIDTH 7 0
BBX 7 11 0 0
BITMAP
05C18900
00AEC200
00000000
02BED400
0CA26E10
2F100C60
5D000980
4D000980
2F100C60
0B926E10
02BFD400
ENDCHAR
STARTCHAR Ohungarumlaut.c2sc
ENCODING -1
SWIDTH 519 0
DWIDTH 7 0
BBX 7 11 0 0
BITMAP
004E7E20
0087C400
00000000
02BED400
0CA26E10
2F100C60
5D000980
4D000980
2F100C60
0B926E10
02BFD400
ENDCHAR
STARTCHAR Racute.c2sc
ENCODING -1
SWIDTH 465 0
DWIDTH 7 0
BBX 7 11 0 0
BITMAP
000AC100
004C1000
00000000
2FFFC200
2F219B00
2F204E00
2F219B00
2FFFD200
2F24E100
2F20C800
2F204E10
ENDCHAR
STARTCHAR uni0156.c2sc
ENCODING -1
SWIDTH 465 0
DWIDTH 7 0
BBX 7 12 0 -4
BITMAP
2FFFC200
2F219B00
2F204E00
2F219B00
2FFFD200
2F24E100
2F20C800
2F204E10
00000000
007B0000
00880000
00930000
ENDCHAR
STARTCHAR Rcaron.c2sc
ENCODING -1
SWIDTH 465 0
DWIDTH 7 0
BBX 7 11 0 0
BITMAP
06A6A000
00AC1000
00000000
2FFFC200
2F219B00
2F204E00
2F219B00
2FFFD200
2F24E100
2F20C800
2F204E10
ENDCHAR
STARTCHAR Sacute.c2sc
ENCODING -1
SWIDTH 453 0
DWIDTH 6 0
BBX 6 11 0 0
BITMAP
0008D1
002C20
000000
06DEA1
2F41B9
3F2035
0AE930
004AF5
46007B
4E31AB
07DEB2
ENDCHAR
STARTCHAR Scircumflex.c2sc
ENCODING -1
SWIDTH 453 0
DWIDTH 6 0
BBX 6 11 0 0
BITMAP
009D30
04B4A0
000000
06DEA1
2F41B9
3F2035
0AE930
004AF5
46007B
4E31AB
07DEB2
ENDCHAR
STARTCHAR Scedilla.c2sc
ENCODING -1
SWIDTH 453 0
DWIDTH 6 0
BBX 6 11 0 -3
BITMAP
06DEA1
2F41B9
3F2035
0AE930
004AF5
46007B
4E31AB
07DEB2
002B00
000850
003E40
ENDCHAR
STARTCHAR Scaron.c2sc
ENCODING -1
SWIDTH 453 0
DWIDTH 6 0
BBX 6 11 0 0
BITMAP
04B4B0
007D10
000000
06DEA1
2F41B9
3F2035
0AE930
004AF5
46007B
4E31AB
07DEB2
ENDCHAR
STARTCHAR uni021A.c2sc
ENCODING -1
SWIDTH 456 0
DWIDTH 6 0
BBX 6 12 0 -4
BITMAP
AFFFFF
017C11
006C00
006C00
006C00
006C00
006C00
006C00
000000
006B00
008900
009300
ENDCHAR
STARTCHAR Tcaron.c2sc
ENCODING -1
SWIDTH 456 0
DWIDTH 6 0
BBX 6 11 0 0
BITMAP
05B5A0
009C10
000000
AFFFFF
017C11
006C00
006C00
006C00
006C00
006C00
006C00
ENDCHAR
STARTCHAR uni0162.c2sc
ENCODING -1
SWIDTH 456 0
DWIDTH 6 0
BBX 6 11 0 -3
BITMAP
AFFFFF
017C11
006C00
006C00
006C00
006C00
006C00
006C00
004900
000940
005D30
ENDCHAR
STARTCHAR Utilde.c2sc
ENCODING -1
SWIDTH 488 0
DWIDTH 7 0
BBX 7 11 0 0
BITMAP
03E67600
0949D200
00000000
4E002F10
4E002F10
4E002F10
4E002F10
4E002F10
3F002F10
1E618C00
04CEB200
ENDCHAR
STARTCHAR Umacron.c2sc
ENCODING -1
SWIDTH 488 0
DWIDTH 7 0
BBX 7 10 0 0
BITMAP
08FFF700
00000000
4E002F10
4E002F10
4E002F10
4E002F10
4E002F10
3F002F10
1E618C00
04CEB200
ENDCHAR
STARTCHAR Ubreve.c2sc
ENCODING -1
SWIDTH 488 0
DWIDTH 7 0
BBX 7 11 0 0
BITMAP
0891B600
02CEA000
00000000
4E002F10
4E002F10
4E002F10
4E002F10
4E002F10
3F002F10
1E618C00
04CEB200
ENDCHAR
STARTCHAR Uring.c2sc
ENCODING -1
SWIDTH 488 0
DWIDTH 7 0
BBX 7 12 0 0
BITMAP
008A6000
00A0B000
009A7000
00000000
4E002F10
4E002F10
4E002F10
4E002F10
4E002F10
3F002F10
1E618C00
04CEB200
ENDCHAR
STARTCHAR Uhungarumlaut.c2sc
ENCODING -1
SWIDTH 488 0
DWIDTH 7 0
BBX 7 11 0 0
BITMAP
007C9C00
00B5C200
00000000
4E002F10
4E002F10
4E002F10
4E002F10
4E002F10
3F002F10
1E618C00
04CEB200
ENDCHAR
STARTCHAR Uogonek.c2sc
ENCODING -1
SWIDTH 488 0
DWIDTH 7 0
BBX 7 11 0 -3
BITMAP
4E002F10
4E002F10
4E002F10
4E002F10
4E002F10
3F002F10
1E618C00
04CFD300
000D3000
002E1000
000CC000
ENDCHAR
STARTCHAR Wcircumflex.c2sc
ENCODING -1
SWIDTH 655 0
DWIDTH 9 0
BBX 9 11 0 0
BITMAP
0004E70000
000B3C2000
0000000000
7A00F407B0
4D03F80980
1F17BB0C50
0D3A4E0E20
0A6D1B5E00
07BC08BB00
03F804F700
01F501F400
ENDCHAR
STARTCHAR Ycircumflex.c2sc
ENCODING -1
SWIDTH 458 0
DWIDTH 6 0
BBX 7 11 0 0
BITMAP
00AD2000
04A5A000
00000000
9C005E10
2F30C800
0AA4E100
03FB9000
00BF2000
006C0000
006C0000
006C0000
ENDCHAR
STARTCHAR Ydieresis.c2sc
ENCODING -1
SWIDTH 458 0
DWIDTH 6 0
BBX 7 11 0 0
BITMAP
04105100
0C50D400
00000000
9C005E10
2F30C800
0AA4E100
03FB9000
00BF2000
006C0000
006C0000
006C0000
ENDCHAR
STARTCHAR Zacute.c2sc
ENCODING -1
SWIDTH 454 0
DWIDTH 6 0
BBX 6 11 0 0
BITMAP
0009C1
003C10
000000
7FFFFB
0112E5
0009A0
003E20
00C700
07D000
2E4000
7FFFFD
ENDCHAR
STARTCHAR Zdotaccent.c2sc
ENCODING -1
SWIDTH 454 0
DWIDTH 6 0
BBX 6 11 0 0
BITMAP
002400
006C00
000000
7FFFFB
0112E5
0009A0
003E20
00C700
07D000
2E4000
7FFFFD
ENDCHAR
STARTCHAR Zcaron.c2sc
ENCODING -1
SWIDTH 454 0
DWIDTH 6 0
BBX 6 11 0 0
BITMAP
05B5B0
008D10
000000
7FFFFB
0112E5
0009A0
003E20
00C700
07D000
2E4000
7FFFFD
ENDCHAR
STARTCHAR two.pnum
ENCODING -1
SWIDTH 493 0
DWIDTH 7 0
BBX 7 10 0 0
BITMAP
04CEB200
1E71AB00
4E004E00
01006D00
0000C700
0007D000
004E3000
01D60000
0BA00000
3FFFFF50
ENDCHAR
STARTCHAR three.pnum
ENCODING -1
SWIDTH 493 0
DWIDTH 7 0
BBX 6 10 0 0
BITMAP
04CEB1
1E61AA
2B005D
0001B9
00AFD1
0002BA
00004E
3B004E
1E61B9
04DEA1
ENDCHAR
STARTCHAR four.pnum
ENCODING -1
SWIDTH 493 0
DWIDTH 7 0
BBX 7 10 0 0
BITMAP
0002F600
000AF600
003DD600
00A6C600
03E0C600
0B70C600
3E10C600
9FFFFF70
0000D600
0000C600
ENDCHAR
STARTCHAR five.pnum
ENCODING -1
SWIDTH 493 0
DWIDTH 7 0
BBX 6 10 1 0
BITMAP
5FFFF1
6B3330
890000
9DED30
683AD0
0001F3
0000E4
B200F3
AA18D0
1BEC30
ENDCHAR
STARTCHAR six.pnum
ENCODING -1
SWIDTH 503 0
DWIDTH 7 0
BBX 6 10 1 0
BITMAP
02BE20
1E9300
8B0000
C9DD40
DC27E0
E500E4
E400D5
C700E3
6D27D0
09EC30
ENDCHAR
STARTCHAR eight.pnum
ENCODING -1
SWIDTH 513 0
DWIDTH 7 0
BBX 6 10 1 0
BITMAP
2BEC30
AB18D0
D503F0
9A18C0
1EFF20
AA28C0
F301F3
F300F3
B917D0
2BEC30
ENDCHAR
STARTCHAR nine.pnum
ENCODING -1
SWIDTH 503 0
DWIDTH 7 0
BBX 6 10 0 0
BITMAP
02CEA0
0C82D7
2F106C
4E004E
3F004F
0D71CE
04EE9D
000099
0027E3
02EB30
ENDCHAR
STARTCHAR zero.pnum
ENCODING -1
SWIDTH 513 0
DWIDTH 7 0
BBX 7 10 0 0
BITMAP
01BEC200
0AB29C00
0E402F20
1F200F30
1F200E40
1F200E40
1F200F30
0E402F20
09B28C00
01BFC300
ENDCHAR
STARTCHAR G_acutecomb.ccmp
ENCODING -1
SWIDTH 590 0
DWIDTH 8 0
BBX 8 13 0 0
BITMAP
0001CA00
0006A000
00000000
019EEB20
09D32AD0
0E5001F3
2F200010
2F200000
2F20CFF4
1F3011E4
0E6000E4
07D425F4
008EFD60
ENDCHAR
STARTCHAR g_acutecomb.ccmp
ENCODING -1
SWIDTH 492 0
DWIDTH 7 0
BBX 6 14 0 -3
BITMAP
0008D2
002C30
000000
04DE7F
0E82AF
3F003F
5D003F
5D003F
3F003F
0E72AF
04DE9F
00004E
0841AA
05DEB2
ENDCHAR
STARTCHAR N_gravecomb.ccmp
ENCODING -1
SWIDTH 619 0
DWIDTH 9 0
BBX 7 13 1 0
BITMAP
06E30000
007A0000
00000000
E9000A90
EF200A90
ED900A90
E6E20A90
E58A0A90
E51E3A90
E508AA90
E501ED90
E5007F90
E5001E90
ENDCHAR
STARTCHAR n_gravecomb.ccmp
ENCODING -1
SWIDTH 483 0
DWIDTH 7 0
BBX 6 11 0 0
BITMAP
04E400
006B00
000000
1F7ED3
1FA2AA
1F206C
1F205D
1F205D
1F205D
1F205D
1F205D
ENDCHAR
STARTCHAR A_uni030F.ccmp
ENCODING -1
SWIDTH 576 0
DWIDTH 8 0
BBX 8 13 0 0
BITMAP
09BA9000
00B8D200
00000000
000AB000
000EF100
005CB600
00976B00
00E21E10
04D00C50
09FFFFA0
0D4113E0
3E0000E5
8B0000A9
ENDCHAR
STARTCHAR a_uni030F.ccmp
ENCODING -1
SWIDTH 479 0
DWIDTH 7 0
BBX 6 11 0 0
BITMAP
3E7E10
05C970
000000
03CEB1
0E71B9
02007B
03CFFB
0E817B
3F007B
1F53DC
07EC8E
ENDCHAR
STARTCHAR E_uni030F.ccmp
ENCODING -1
SWIDTH 496 0
DWIDTH 7 0
BBX 7 13 0 0
BITMAP
2D8E3000
03D7A000
00000000
0EFFFF50
0E611100
0E500000
0E500000
0EFFFD00
0E611100
0E500000
0E500000
0E611100
0EFFFF60
ENDCHAR
STARTCHAR e_uni030F.ccmp
ENCODING -1
SWIDTH 468 0
DWIDTH 7 0
BBX 6 11 0 0
BITMAP
5E8D00
06BA60
000000
02CEB2
0D71AA
3E004E
5FFFFF
5E1111
3F1000
0D8149
03CFD5
ENDCHAR
STARTCHAR I_uni030F.ccmp
ENCODING -1
SWIDTH 250 0
DWIDTH 4 0
BBX 5 13 -2 0
BITMAP
1D8E40
02D7B0
000000
000D60
000D60
000D60
000D60
000D60
000D60
000D60
000D60
000D60
000D60
ENDCHAR
STARTCHAR dotlessi_uni030F.ccmp
ENCODING -1
SWIDTH 234 0
DWIDTH 3 0
BBX 5 11 -2 0
BITMAP
2E7E20
03D890
000000
000F30
000F30
000F30
000F30
000F30
000F30
000F30
000F30
ENDCHAR
STARTCHAR O_uni030F.ccmp
ENCODING -1
SWIDTH 600 0
DWIDTH 8 0
BBX 8 13 0 0
BITMAP
07D9B000
0099C300
00000000
008EFB20
07E53AD0
0D6000E5
1F2000C7
2F1000B8
2F1000B8
1F2000B7
0E6000E5
07D439D0
008EFB20
ENDCHAR
STARTCHAR o_uni030F.ccmp
ENCODING -1
SWIDTH 501 0
DWIDTH 7 0
BBX 7 11 0 0
BITMAP
4E7E1000
05C97000
00000000
02BEB200
0C929D00
3F101F30
5D000D50
5D000D50
3F100E30
0D817D00
02BEC200
ENDCHAR
STARTCHAR R_uni030F.ccmp
ENCODING -1
SWIDTH 530 0
DWIDTH 7 0
BBX 8 13 0 0
BITMAP
2E7E2000
03D8A000
00000000
0EFFE900
0E613D70
0E5008B0
0E5007C0
0E503D70
0EFFFA00
0E61B900
0E504F10
0E500C80
0E5006E1
ENDCHAR
ENDFONT
